<svg xmlns="http://www.w3.org/2000/svg">
<defs>
<font id="GrueneTypeNeue-Regular" horiz-adv-x="462" >
  <font-face 
    font-family="GrueneType Neue"
    font-weight="400"
    font-stretch="condensed"
    units-per-em="1000"
    panose-1="2 0 0 0 0 0 0 0 0 0"
    ascent="800"
    descent="-200"
    x-height="581"
    cap-height="747"
    bbox="-156 -181 1234 957"
    underline-thickness="50"
    underline-position="-125"
    unicode-range="U+0020-FB02"
  />
<missing-glyph horiz-adv-x="925" 
d="M674 429l20 -2q12 0 7 11q-1 2 -26 -2q-36 -6 -37 -2q0 5 13.5 18t38.5 23q-37 -7 -64 -5l30 16q6 1 -1 8q-1 1 -12.5 -4t-20.5 -9q-2 0 -5 -1q-5 0 -9.5 4t-4.5 7t31 36l8 9l-48 -31q-6 1 -10 5.5t-5 8.5l4 11l7 21q8 19 7 19q-2 1 -14 -9t-16 -16q-3 -4 -8 -4
q-4 0 -9 2.5t-7 5.5q-2 4 -2 6l3 17l-1 2q-4 0 -24 -15q-9 -4 -17 -4t-11.5 5t-4 10.5l-0.5 5.5q-3 -6 -15 -13q-5 3 -7.5 12t-4 17.5t-2.5 9.5q-1 3 -5 3q-2 -6 -2 -12l3 -31q0 -7 -14 -7q-12 0 -14 2q-2 1 -17 16q1 -10 -8.5 -23.5t-21.5 -21t-19 -1.5q-33 30 -33 24
q0 -3 23 -29q3 -4 3 -8q0 -8 -8 -14q-4 2 -9 2q-2 0 -2 -2t1.5 -5t-0.5 -4q-3 -4 -7 -11t-8 -10q-3 -3 -9 -3q-5 0 -12.5 2t-11.5 3q1 -2 7 -9t11 -11q2 -1 -21 6q-19 7 -25 7q-2 0 -3 -1.5t-1 -3.5q21 -8 33 -14t13 -8q4 -13 -16 -20t-53 -5q24 -4 48 -19q17 -10 17 -19
q0 -10 -22 -14l18 -14l-29 -5l4 -5q10 -1 19.5 -2.5t13.5 -2.5q1 0 1 -2q0 -5 -10 -15q23 -8 24 -10q1 -1 -12 -8t-28 -15q-22 -9 -22 -11v-3q0 -3 1.5 -4.5l2.5 -2.5l36 21q23 13 23 11q4 0 4 -1q0 -2 -8 -14.5t-3 -12.5q4 0 12.5 4.5t14.5 9.5q4 -1 8 -4.5t4 -8.5t-4 -17
t-9 -22q22 22 29 26.5t10 -1.5q5 -7 5 -14q4 -3 4 -9t-1 -10.5t1 -4.5q6 3 13 8.5t10 8.5h1q3 0 13 -8q7 -5 9 -36q19 36 36 36q9 0 16.5 -10t11.5 -25q4 13 8 23.5t3 5.5q-1 -7 5.5 -28t8.5 -21t3 2t1 4l-2 28q0 29 12 29q16 0 41 -38l-6 45q0 3 2 5t5 0l25 -26
q-4 13 -6.5 26.5t0.5 12.5q4 -2 15 -20q16 -24 19 -24q4 -1 6 5q1 1 -4.5 8.5t-12.5 16.5q-16 22 -18 27q0 3 -1 5q0 8 9 12q21 -14 23 -13q1 0 1 2q0 4 -9 26q2 5 6 6.5t7 0.5t16.5 -15t19.5 -22q2 -2 6 -2q5 0 8 3q0 4 -9 13.5t-18 18.5q-17 18 -16 19h3l19 -2

<glyph glyph-name="fi" unicode="fi" horiz-adv-x="526" 
d="M187.5 718.5q41.5 37.5 118.5 37.5q45 0 82 -10l-26 -118q-17 13 -44 13q-19 0 -30.5 -11t-16.5 -36l-6 -27h82l-23 -114h-83l-95 -453h-144l96 454h-56l23 112h57l7 34q17 81 58.5 118.5zM400 581h144l-123 -581h-144zM433 642q-22 19 -22 49q0 32 24 54.5t60 22.5
q33 0 54 -19t21 -50q0 -33 -23 -54.5t-59 -21.5q-33 0 -55 19z" />
    <glyph glyph-name="fl" unicode="fl" horiz-adv-x="542" 
d="M340 24.5q-35 27.5 -35 75.5q0 20 7 57l125 590h143l-126 -596q-2 -10 -2 -15q0 -24 29 -24q8 0 14 2l-25 -114q-15 -3 -33 -3q-62 0 -97 27.5zM187.5 718.5q41.5 37.5 118.5 37.5q45 0 82 -10l-26 -118q-17 13 -44 13q-19 0 -30.5 -11t-16.5 -36l-6 -27h82l-23 -114h-83
l-95 -453h-144l96 454h-56l23 112h57l7 34q17 81 58.5 118.5z" />
    <glyph glyph-name="f_f" unicode="ff" horiz-adv-x="587" 
d="M459 717q43 39 120 39q48 0 89 -13l-26 -119q-22 16 -50 16q-21 0 -33 -11.5t-18 -37.5l-5 -24h92l-23 -114h-93l-95 -453h-144l96 454h-127l-96 -454h-144l96 454h-56l23 112h57l7 34q17 81 59 118.5t120 37.5q43 0 78 -10l-26 -118q-16 12 -39 12q-21 0 -33 -10.5
t-17 -35.5l-6 -29h127l7 31q17 82 60 121z" />
    <glyph glyph-name="f_f_i" unicode="ffi" horiz-adv-x="797" 
d="M188 718.5q42 37.5 120 37.5q43 0 78 -10l-26 -118q-16 12 -39 12q-21 0 -33 -10.5t-17 -35.5l-6 -29h128l7 35q17 81 58.5 118.5t118.5 37.5q45 0 82 -10l-26 -118q-17 13 -44 13q-19 0 -30.5 -11t-16.5 -36l-6 -27h82l-23 -114h-83l-95 -453h-144l96 454h-127l-96 -454
h-144l96 454h-56l23 112h57l7 34q17 81 59 118.5zM671 581h144l-123 -581h-144zM704 642q-22 19 -22 49q0 32 24 54.5t60 22.5q33 0 54 -19t21 -50q0 -33 -23 -54.5t-59 -21.5q-33 0 -55 19z" />
    <glyph glyph-name="f_f_l" unicode="ffl" horiz-adv-x="813" 
d="M188 718.5q42 37.5 120 37.5q43 0 78 -10l-26 -118q-16 12 -39 12q-21 0 -33 -10.5t-17 -35.5l-6 -29h128l7 35q17 81 58.5 118.5t118.5 37.5q45 0 82 -10l-26 -118q-17 13 -44 13q-19 0 -30.5 -11t-16.5 -36l-6 -27h82l-23 -114h-83l-95 -453h-144l96 454h-127l-96 -454
h-144l96 454h-56l23 112h57l7 34q17 81 59 118.5zM611 24.5q-35 27.5 -35 75.5q0 20 7 57l125 590h143l-126 -596q-2 -10 -2 -15q0 -24 29 -24q8 0 14 2l-25 -114q-15 -3 -33 -3q-62 0 -97 27.5z" />
    <glyph glyph-name=".notdef" horiz-adv-x="925" 
d="M674 429l20 -2q12 0 7 11q-1 2 -26 -2q-36 -6 -37 -2q0 5 13.5 18t38.5 23q-37 -7 -64 -5l30 16q6 1 -1 8q-1 1 -12.5 -4t-20.5 -9q-2 0 -5 -1q-5 0 -9.5 4t-4.5 7t31 36l8 9l-48 -31q-6 1 -10 5.5t-5 8.5l4 11l7 21q8 19 7 19q-2 1 -14 -9t-16 -16q-3 -4 -8 -4
q-4 0 -9 2.5t-7 5.5q-2 4 -2 6l3 17l-1 2q-4 0 -24 -15q-9 -4 -17 -4t-11.5 5t-4 10.5l-0.5 5.5q-3 -6 -15 -13q-5 3 -7.5 12t-4 17.5t-2.5 9.5q-1 3 -5 3q-2 -6 -2 -12l3 -31q0 -7 -14 -7q-12 0 -14 2q-2 1 -17 16q1 -10 -8.5 -23.5t-21.5 -21t-19 -1.5q-33 30 -33 24
q0 -3 23 -29q3 -4 3 -8q0 -8 -8 -14q-4 2 -9 2q-2 0 -2 -2t1.5 -5t-0.5 -4q-3 -4 -7 -11t-8 -10q-3 -3 -9 -3q-5 0 -12.5 2t-11.5 3q1 -2 7 -9t11 -11q2 -1 -21 6q-19 7 -25 7q-2 0 -3 -1.5t-1 -3.5q21 -8 33 -14t13 -8q4 -13 -16 -20t-53 -5q24 -4 48 -19q17 -10 17 -19
q0 -10 -22 -14l18 -14l-29 -5l4 -5q10 -1 19.5 -2.5t13.5 -2.5q1 0 1 -2q0 -5 -10 -15q23 -8 24 -10q1 -1 -12 -8t-28 -15q-22 -9 -22 -11v-3q0 -3 1.5 -4.5l2.5 -2.5l36 21q23 13 23 11q4 0 4 -1q0 -2 -8 -14.5t-3 -12.5q4 0 12.5 4.5t14.5 9.5q4 -1 8 -4.5t4 -8.5t-4 -17
t-9 -22q22 22 29 26.5t10 -1.5q5 -7 5 -14q4 -3 4 -9t-1 -10.5t1 -4.5q6 3 13 8.5t10 8.5h1q3 0 13 -8q7 -5 9 -36q19 36 36 36q9 0 16.5 -10t11.5 -25q4 13 8 23.5t3 5.5q-1 -7 5.5 -28t8.5 -21t3 2t1 4l-2 28q0 29 12 29q16 0 41 -38l-6 45q0 3 2 5t5 0l25 -26
q-4 13 -6.5 26.5t0.5 12.5q4 -2 15 -20q16 -24 19 -24q4 -1 6 5q1 1 -4.5 8.5t-12.5 16.5q-16 22 -18 27q0 3 -1 5q0 8 9 12q21 -14 23 -13q1 0 1 2q0 4 -9 26q2 5 6 6.5t7 0.5t16.5 -15t19.5 -22q2 -2 6 -2q5 0 8 3q0 4 -9 13.5t-18 18.5q-17 18 -16 19h3l19 -2
q-14 14 -19.5 21t-5 13l0.5 6q0 6 8.5 8t22.5 3t12 3q-1 2 -19 8q-26 6 -16 12q13 8 8 8q-12 11 -12 16t9.5 7t17.5 3h4zM908 413q7 -9 -10 -22t-31 -17q-8 -2 -19 -13q7 -7 35 -27q8 -5 14.5 -15t4.5 -12q-7 -10 -21 -15q-6 -10 -33 -16t-56 -7q26 -20 50 -50.5t20 -48.5
l-12 -6q-14 -7 -33 -7q-23 0 -48 8.5t-45 19t-28 14.5l-10 3q18 -46 31 -87t10 -47h-3q-18 0 -28 6q-27 14 -45.5 31t-32 32.5t-15.5 16.5q-6 3 -7.5 2t0.5 -4q6 -2 12.5 -27t6.5 -52q0 -18 -2 -27q-5 -29 -15 -51t-13 -19q-5 4 -70 86q-2 -21 -6 -35t-9.5 -26t-8.5 -21
q-3 -8 -7.5 -12.5t-9 -6l-7.5 -2.5q-2 0 -5 -6t-5 -11q-1 -4 -5 4q-5 7 -17 51.5t-22 88.5q-3 -11 -30.5 -50t-33.5 -43l-15 -10q-1 1 -2 3t0 6q2 17 4 44.5t2 53.5q0 9 -0.5 15t-2.5 3q-14 -21 -37 -40q-11 -9 -24 -20.5t-13 -8.5q0 2 -5 4.5t-5 6.5l-3 37q-2 7 -2 21
q0 15 3.5 29t8 24.5t3.5 9.5l-27 -20q-13 -9 -43.5 -22.5t-50.5 -14.5q-2 0 9 23q4 9 7 17t2 9l-19 1q0 17 15 41.5t33.5 48t16.5 22.5q-7 -2 -67 5.5t-69 13.5q-7 4 -7 6q-2 0 2 4q3 5 34 19q-54 37 -55 42q1 3 9.5 5.5t18.5 5.5l18 6t12 5q6 3 26 12q47 17 81 16
q-14 2 -32 6q-32 8 -54 29t-33 41.5t-7 20.5q8 0 41 7q-2 2 -18 28t-17 30q0 1 42 1q-4 17 -7 24q-1 6 105 -12q-16 28 -36 66.5t-20 40.5t14 1t31.5 -5t30.5 -11q29 -14 39 -23q-1 5 -1 16q0 19 5 44t11 44t7 18l45 -39q3 5 8 33l4 33q1 1 10.5 -6.5t24.5 -22.5
q49 -26 66 -99q6 40 25.5 62.5t45.5 39.5q14 9 17 13l15 11q1 0 3 -3t3 -6q5 -13 6 -24q6 -12 6 -38q0 -5 -3 -41q28 30 51 44.5t37 18t18 2.5q1 -1 -6 -71l41 26q12 9 19.5 14t12.5 6h4q1 0 1 -8q0 -14 -3 -27q-10 -66 -63 -119q15 7 26.5 9t17.5 2l39 6.5t37 10.5
q11 7 21.5 10t12.5 1v-1q-1 -5 -3 -11.5t-5 -12.5q-11 -36 -27.5 -57.5t-26.5 -28t-25 -13.5l-36 -11l32 2q41 1 72.5 -9t41 -17t37.5 -28l10 -7q0 -3 -12 -13z" />
    <glyph glyph-name=".null" horiz-adv-x="0" 
 />
    <glyph glyph-name="nonmarkingreturn" horiz-adv-x="333" 
 />
    <glyph glyph-name="space" unicode=" " horiz-adv-x="136" 
 />
    <glyph glyph-name="exclam" unicode="!" horiz-adv-x="251" 
d="M18 12.5q-25 24.5 -25 60.5q0 38 25.5 63.5t63.5 25.5q36 0 60.5 -24.5t24.5 -60.5q0 -38 -25 -63.5t-63 -25.5q-36 0 -61 24.5zM148 747h153l-132 -526h-125z" />
    <glyph glyph-name="quotedbl" unicode="&#x22;" horiz-adv-x="401" 
d="M324 747h128l-71 -283h-110zM144 747h128l-71 -283h-110z" />
    <glyph glyph-name="numbersign" unicode="#" horiz-adv-x="495" 
d="M68 224h-60l20 94h65l35 131h-60l20 94h65l54 204h118l-54 -204h79l54 204h118l-54 -204h59l-20 -94h-64l-35 -131h60l-19 -94h-66l-60 -224h-118l60 224h-79l-59 -224h-118zM290 318l35 131h-79l-35 -131h79z" />
    <glyph glyph-name="dollar" unicode="$" 
d="M113 4q-78 28 -107 111q-11 30 -11 77q0 33 4 61l141 2q-6 -25 -6 -58q0 -41 18 -64.5t54 -23.5q35 0 52.5 21t17.5 56q0 27 -11 50t-42 60l-47 56q-42 50 -62.5 95.5t-20.5 94.5q0 87 45 146t130 70l19 84h121l-21 -95q44 -16 72 -53q35 -48 35 -118q0 -16 -4 -52h-138
q6 23 6 45q0 33 -15.5 50.5t-43.5 17.5q-32 0 -49.5 -20.5t-17.5 -55.5q0 -25 10.5 -47.5t37.5 -54.5l51 -61q47 -57 66.5 -98.5t19.5 -92.5q0 -92 -46.5 -150.5t-139.5 -65.5l-20 -91h-121z" />
    <glyph glyph-name="percent" unicode="%" horiz-adv-x="916" 
d="M115 324.5q-39 37.5 -39 101.5q0 20 5 47l28 131q32 151 168 151q71 0 108.5 -36t37.5 -101q0 -29 -7 -58l-27 -127q-16 -75 -56.5 -110.5t-108.5 -35.5q-70 0 -109 37.5zM258 396q11 12 16 38l33 156q3 15 3 26q0 42 -39 42q-36 0 -46 -50l-34 -162q-2 -7 -2 -21
q0 -41 39 -41q19 0 30 12zM643 747h117l-457 -747h-117zM567 26.5q-39 37.5 -39 101.5q0 20 5 47l28 131q32 151 168 151q71 0 108.5 -36t37.5 -101q0 -29 -7 -58l-27 -127q-16 -75 -56.5 -110.5t-108.5 -35.5q-70 0 -109 37.5zM710 98q11 12 16 38l33 156q3 15 3 26
q0 42 -39 42q-36 0 -46 -50l-34 -162q-2 -7 -2 -21q0 -41 39 -41q19 0 30 12z" />
    <glyph glyph-name="ampersand" unicode="&#x26;" horiz-adv-x="553" 
d="M39 62q-30 44 -30 98q0 31 9 71l13 63q11 54 38 87.5t76 55.5q-19 43 -27 73.5t-8 63.5q0 79 48 132.5t144 53.5q83 0 126.5 -39.5t43.5 -112.5q0 -65 -36 -112t-126 -97l69 -152l54 167h129l-119 -310l47 -104h-149l-11 25q-52 -38 -131 -38q-111 0 -160 75zM154 178
q0 -23 8 -38q17 -34 64 -34q35 0 59 18l-93 209q-8 -10 -13.5 -25.5t-10.5 -42.5l-10 -50q-4 -19 -4 -37zM252.5 531.5q5.5 -20.5 16.5 -47.5q40 31 55.5 57t15.5 56q0 24 -10.5 37t-30.5 13q-27 0 -39.5 -20.5t-12.5 -53.5q0 -21 5.5 -41.5z" />
    <glyph glyph-name="quotesingle" unicode="'" horiz-adv-x="221" 
d="M144 747h128l-71 -283h-110z" />
    <glyph glyph-name="parenleft" unicode="(" horiz-adv-x="305" 
d="M40.5 4q-15.5 79 -15.5 154q0 356 241 631h143q-130 -160 -188 -312t-58 -311q0 -157 45 -312h-124q-28 71 -43.5 150z" />
    <glyph glyph-name="parenright" unicode=")" horiz-adv-x="305" 
d="M97 166q58 152 58 311q0 158 -45 312h124q28 -71 43.5 -150t15.5 -154q0 -356 -241 -631h-143q130 160 188 312z" />
    <glyph glyph-name="asterisk" unicode="*" horiz-adv-x="357" 
d="M59 481l99 89l-88 42l49 85l88 -58l23 121l100 -19l-37 -120l105 20l11 -96l-109 -5l49 -113l-98 -32l-36 113l-86 -95z" />
    <glyph glyph-name="plus" unicode="+" 
d="M167 293h-124l22 106h125l30 144h125l-30 -144h127l-22 -106h-128l-31 -147h-125z" />
    <glyph glyph-name="comma" unicode="," horiz-adv-x="226" 
d="M41 0q-26 6 -42.5 25.5t-16.5 45.5q0 36 23.5 59.5t64.5 23.5q43 0 65 -26.5t22 -72.5q0 -86 -57 -146q-58 -60 -165 -60l19 89q76 -3 87 62z" />
    <glyph glyph-name="hyphen" unicode="-" horiz-adv-x="255" 
d="M39 377h212l-24 -118h-212z" />
    <glyph glyph-name="period" unicode="." horiz-adv-x="226" 
d="M4 13q-25 25 -25 62q0 39 26 65t65 26q37 0 62 -25t25 -62q0 -39 -26 -65t-65 -26q-37 0 -62 25z" />
    <glyph glyph-name="slash" unicode="/" horiz-adv-x="339" 
d="M307 789h134l-408 -935h-134z" />
    <glyph glyph-name="zero" unicode="0" horiz-adv-x="482" 
d="M47 60q-32 43 -32 111q0 39 8 75l68 319q20 95 76 145t144 50q105 0 157 -69q36 -46 36 -116q0 -31 -8 -69l-69 -325q-21 -98 -72.5 -146t-145.5 -48q-105 0 -162 73zM255.5 126.5q14.5 16.5 22.5 55.5l79 368q4 22 4 30q0 20 -8 33q-13 25 -46 25q-26 0 -42 -19t-25 -60
l-76 -352q-5 -27 -5 -40q0 -17 6 -29q15 -28 50 -28q26 0 40.5 16.5z" />
    <glyph glyph-name="one" unicode="1" horiz-adv-x="329" 
d="M192 587q-27 -17 -61 -30.5t-68 -19.5l27 127q81 17 158 83h126l-162 -747h-147z" />
    <glyph glyph-name="two" unicode="2" horiz-adv-x="426" 
d="M234 420q50 60 67.5 96.5t17.5 72.5q0 24 -11.5 37.5t-32.5 13.5q-34 0 -46.5 -26.5t-10.5 -89.5h-138q0 35 6 72q11 78 62.5 121t138.5 43t133 -44t46 -120q0 -63 -32 -123.5t-106 -146.5q-114 -133 -174 -198h218l-26 -128h-383l29 136q138 156 242 284z" />
    <glyph glyph-name="three" unicode="3" horiz-adv-x="453" 
d="M45 35.5q-52 48.5 -52 135.5q0 19 5 59h141q-7 -30 -7 -52q0 -35 15.5 -52.5t44.5 -17.5q27 0 42 16t22 54l8 41q5 24 5 46q0 23 -8 39q-10 19 -32 27.5t-63 8.5l20 109h36q48 0 70 22t31 61l5 23q5 23 5 35q0 20 -9 33q-13 20 -42 20q-34 0 -49 -25.5t-15 -75.5h-138
q5 101 58 159.5t155 58.5q98 0 145 -48q41 -42 41 -103q0 -20 -7 -57l-9 -43q-11 -52 -43.5 -78.5t-89.5 -33.5v-3q86 -28 86 -121q0 -23 -6 -52l-13 -62q-18 -87 -68 -129.5t-138 -42.5q-94 0 -146 48.5z" />
    <glyph glyph-name="four" unicode="4" horiz-adv-x="461" 
d="M10 261l234 486h149l-246 -491h100l52 230h139l-51 -230h54l-26 -120h-54l-30 -136h-141l31 136h-236z" />
    <glyph glyph-name="five" unicode="5" horiz-adv-x="453" 
d="M52 33.5q-49 46.5 -49 130.5q0 23 4 53h141q-8 -26 -8 -49q0 -29 14.5 -44t40.5 -15q25 0 40 17.5t22 56.5l24 121q4 19 4 36q0 21 -8 33q-12 17 -37 17t-43 -16t-27 -43h-120l107 416h334l-28 -133h-215l-40 -162h3q41 53 108 53q33 0 58.5 -12t40.5 -34q21 -30 21 -77
q0 -30 -9 -72l-29 -137q-20 -97 -70 -141.5t-139 -44.5q-91 0 -140 46.5z" />
    <glyph glyph-name="six" unicode="6" horiz-adv-x="468" 
d="M109 6q-44 19 -70 58q-27 40 -27 97q0 35 9 78l75 338q20 88 74.5 135.5t144.5 47.5q84 0 128.5 -41t44.5 -125q0 -19 -2 -37h-140q5 17 5 35q0 52 -44 52q-27 0 -42 -18t-24 -58l-32 -138h3q18 29 46.5 46t64.5 17q32 0 55 -10t40 -31q31 -39 31 -93q0 -21 -7 -58
l-28 -130q-20 -91 -69.5 -137.5t-141.5 -46.5q-50 0 -94 19zM267 168l29 132q3 15 3 27q0 22 -9 34q-12 18 -40 18q-50 0 -66 -72l-25 -111q-5 -25 -5 -38q0 -19 7 -29q14 -25 47 -25q45 0 59 64z" />
    <glyph glyph-name="seven" unicode="7" horiz-adv-x="399" 
d="M297 616h-220l27 131h368l-27 -128l-287 -619h-158z" />
    <glyph glyph-name="eight" unicode="8" horiz-adv-x="474" 
d="M28 71q-20 34 -20 82q0 29 8 67l12 56q12 55 39.5 85t75.5 40v2q-53 41 -53 109q0 21 6 48l7 32q17 81 69 124.5t134 43.5q104 0 151 -60q36 -46 36 -106q0 -25 -6 -57l-7 -33q-10 -47 -34.5 -76.5t-67.5 -43.5v-2q29 -19 42.5 -44.5t13.5 -61.5q0 -29 -7 -60l-10 -48
q-18 -85 -71.5 -133t-137.5 -48q-133 0 -180 84zM248.5 119q13.5 15 21.5 49l20 94q3 15 3 26q0 21 -10 35q-13 20 -43 20q-24 0 -40 -15.5t-23 -46.5l-20 -91q-4 -22 -4 -28q0 -17 7 -31q13 -27 50 -27q25 0 38.5 15zM314.5 452q13.5 15 19.5 47l14 69q3 14 3 23
q0 17 -8 31q-12 22 -39 22q-46 0 -59 -62l-13 -62q-4 -16 -4 -31q0 -20 10 -33q14 -19 40 -19q23 0 36.5 15z" />
    <glyph glyph-name="nine" unicode="9" horiz-adv-x="464" 
d="M61.5 31.5q-49.5 44.5 -49.5 128.5q0 14 2 34h139q-3 -15 -3 -32q0 -26 13.5 -40.5t36.5 -14.5q25 0 38.5 15.5t22.5 56.5l33 148h-3q-36 -61 -99 -61q-65 0 -102 40q-31 34 -31 88q0 30 7 62l25 121q18 86 71.5 134.5t140.5 48.5q52 0 93 -17.5t64 -51.5q27 -39 27 -101
q0 -44 -11 -92l-71 -326q-20 -93 -68.5 -139t-138.5 -46q-87 0 -136.5 44.5zM296.5 395q14.5 16 21.5 51l22 105q5 25 5 39q0 20 -7 30q-12 23 -42 23q-46 0 -60 -66l-25 -119q-4 -22 -4 -29q0 -15 8 -28q15 -22 44 -22q23 0 37.5 16z" />
    <glyph glyph-name="colon" unicode=":" horiz-adv-x="226" 
d="M79 365q-25 25 -25 62q0 39 26 65t65 26q37 0 62 -25t25 -62q0 -39 -26 -65t-65 -26q-37 0 -62 25zM3 13q-25 25 -25 62q0 39 26 65t65 26q37 0 62 -25t25 -62q0 -39 -26 -65t-65 -26q-37 0 -62 25z" />
    <glyph glyph-name="semicolon" unicode=";" horiz-adv-x="226" 
d="M41 0q-26 6 -42.5 25.5t-16.5 45.5q0 36 23.5 59.5t64.5 23.5q43 0 65 -26.5t22 -72.5q0 -86 -57 -146q-58 -60 -165 -60l19 89q76 -3 87 62zM79 365q-25 25 -25 62q0 39 26 65t65 26q37 0 62 -25t25 -62q0 -39 -26 -65t-65 -26q-37 0 -62 25z" />
    <glyph glyph-name="less" unicode="&#x3c;" 
d="M54 315l21 101l385 138l-27 -128l-221 -69l189 -88l-26 -120z" />
    <glyph glyph-name="equal" unicode="=" 
d="M90 498h371l-23 -107h-371zM53 327h371l-23 -107h-371z" />
    <glyph glyph-name="greater" unicode="&#x3e;" 
d="M56 279l221 68l-188 90l25 118l320 -169l-22 -101l-383 -135z" />
    <glyph glyph-name="question" unicode="?" horiz-adv-x="440" 
d="M121.5 11.5q-23.5 23.5 -23.5 57.5q0 36 24.5 60t60.5 24q35 0 58 -23t23 -58q0 -36 -24 -60t-61 -24q-34 0 -57.5 23.5zM147.5 319q12.5 38 40.5 72t83 79q35 29 50 53.5t15 54.5q0 31 -13.5 48t-40.5 17q-64 0 -64 -83q0 -14 2 -36h-140q-2 37 3 69q12 78 64 122.5
t144 44.5q89 0 139 -48.5t50 -128.5q0 -62 -26.5 -106t-94.5 -96q-38 -29 -57 -49t-28.5 -45t-14.5 -66h-129q5 60 17.5 98z" />
    <glyph glyph-name="at" unicode="@" horiz-adv-x="874" 
d="M212 -126q-93 51 -139.5 141.5t-46.5 206.5q0 148 59.5 270.5t165 194t237.5 71.5q111 0 194.5 -45.5t129 -127.5t45.5 -188q0 -105 -35 -188.5t-97.5 -130.5t-140.5 -47q-45 0 -76 17.5t-43 49.5h-3q-41 -67 -115 -67q-32 0 -58 14t-41 38q-16 26 -16 61q0 24 10 66
l51 204q33 134 138 134q38 0 63 -17.5t37 -46.5h3l14 55h126l-91 -352q-4 -16 -4 -28q0 -7 3 -15q9 -17 33 -17q22 0 44 13.5t39 38.5q26 38 41 94t15 122q0 82 -32 143t-92 94t-142 33q-103 0 -184 -59t-126 -160t-45 -224q0 -89 33 -158.5t102 -109.5t172 -40q42 0 76 6
l-20 -95l-58 -2q-133 0 -226 51zM432.5 144.5q13.5 12.5 20.5 36.5l49 189q6 24 6 33q0 41 -41 41q-38 0 -51 -48l-51 -198q-4 -15 -4 -27q0 -16 7 -24q12 -15 33 -15q18 0 31.5 12.5z" />
    <glyph glyph-name="A" unicode="A" horiz-adv-x="505" 
d="M256 747h186l-8 -747h-148l6 160h-136l-62 -160h-147zM301 280l16 296h-4l-114 -296h102z" />
    <glyph glyph-name="B" unicode="B" horiz-adv-x="490" 
d="M142 747h174q50 0 85 -9.5t63 -30.5q27 -21 38 -50t11 -69q0 -77 -41.5 -129t-116.5 -70v-3q99 -41 99 -144q0 -117 -68.5 -179.5t-197.5 -62.5h-205zM178 120q126 0 126 128q0 81 -81 81h-22l-44 -209h21zM251 445q58 0 86.5 32t28.5 86q0 64 -67 64h-34l-39 -182h25z
" />
    <glyph glyph-name="C" unicode="C" horiz-adv-x="480" 
d="M102 11.5q-47 24.5 -70 70.5q-18 36 -18 80q0 34 11 87l66 310q43 201 233 201q119 0 165 -79q22 -38 22 -96q0 -42 -12 -93h-145q14 47 14 79q0 65 -54 65q-28 0 -45 -17t-25 -54l-71 -330q-10 -44 -10 -62q0 -30 17 -46t46 -16q39 0 54 31.5t19 103.5h147
q-11 -95 -37 -151t-72.5 -82t-119.5 -26q-68 0 -115 24.5z" />
    <glyph glyph-name="D" unicode="D" horiz-adv-x="509" 
d="M145 747h157q63 0 105 -13.5t72 -43.5q45 -46 45 -128q0 -39 -11 -91l-54 -249q-26 -120 -94 -171t-198 -51h-184zM177 120q62 0 90.5 21.5t40.5 77.5l61 280q6 29 6 50q0 31 -14 51q-18 25 -69 25h-24l-109 -505h18z" />
    <glyph glyph-name="E" unicode="E" horiz-adv-x="425" 
d="M143 747h354l-26 -122h-205l-37 -174h154l-23 -119h-157l-44 -210h207l-25 -122h-358z" />
    <glyph glyph-name="F" unicode="F" horiz-adv-x="414" 
d="M143 747h350l-26 -124h-202l-38 -179h157l-26 -122h-157l-69 -322h-149z" />
    <glyph glyph-name="G" unicode="G" horiz-adv-x="501" 
d="M119 10q-50 23 -76 66q-26 42 -26 98q0 38 10 84l65 300q22 101 81.5 151.5t153.5 50.5q105 0 156 -62q35 -42 35 -115q0 -34 -6 -60h-144q9 29 9 52q0 29 -15 45t-43 16q-31 0 -50 -19.5t-27 -60.5l-71 -334q-6 -25 -6 -43q0 -17 7 -31q20 -39 71 -39q28 0 47 11l37 175
h-80l22 118h225l-76 -353q-68 -73 -180 -73q-69 0 -119 23z" />
    <glyph glyph-name="H" unicode="H" horiz-adv-x="518" 
d="M145 747h149l-64 -296h127l64 296h149l-162 -747h-149l71 326h-127l-71 -326h-149z" />
    <glyph glyph-name="I" unicode="I" horiz-adv-x="243" 
d="M144 747h149l-159 -747h-149z" />
    <glyph glyph-name="J" unicode="J" horiz-adv-x="439" 
d="M49.5 19.5q-45.5 32.5 -61.5 97.5q-5 27 -5 50q0 18 4 54h141q-6 -27 -6 -53q0 -27 12 -42t37 -15q21 0 32 12t17 40l126 584h149l-130 -591q-19 -87 -65.5 -128t-131.5 -41q-73 0 -118.5 32.5z" />
    <glyph glyph-name="K" unicode="K" horiz-adv-x="497" 
d="M142 747h149l-68 -318h4l206 318h155l-222 -336l60 -411h-150l-41 314l-56 -82l-49 -232h-147z" />
    <glyph glyph-name="L" unicode="L" horiz-adv-x="408" 
d="M143 747h149l-132 -621h197l-26 -126h-348z" />
    <glyph glyph-name="M" unicode="M" horiz-adv-x="639" 
d="M145 747h181l9 -341h4l161 341h191l-162 -747h-143q54 260 126 525h-4l-181 -361h-86l-19 360h-4q-39 -253 -100 -524h-135z" />
    <glyph glyph-name="N" unicode="N" horiz-adv-x="522" 
d="M145 747h167l42 -447h4l84 447h132l-161 -747h-140l-51 489h-4l-101 -489h-134z" />
    <glyph glyph-name="O" unicode="O" horiz-adv-x="510" 
d="M110.5 10.5q-47.5 23.5 -73.5 68.5q-21 36 -21 88q0 39 12 94l64 297q43 202 235 202q112 0 166 -72q34 -48 34 -116q0 -45 -13 -103l-63 -289q-21 -94 -77.5 -143.5t-150.5 -49.5q-65 0 -112.5 23.5zM274.5 127.5q17.5 17.5 26.5 59.5l74 347q5 22 5 36q0 31 -15 49
t-44 18q-60 0 -77 -78l-75 -343q-5 -22 -5 -37q0 -33 16.5 -51t47.5 -18q29 0 46.5 17.5z" />
    <glyph glyph-name="P" unicode="P" horiz-adv-x="484" 
d="M142 747h161q39 0 67.5 -4t51.5 -15q51 -23 74 -61.5t23 -100.5q0 -121 -70.5 -187.5t-210.5 -66.5h-40l-66 -312h-149zM245 431q126 0 126 126q0 36 -17.5 53t-55.5 17h-33l-41 -196h21z" />
    <glyph glyph-name="Q" unicode="Q" horiz-adv-x="511" 
d="M212 -115.5q-39 37.5 -41 106.5q-93 16 -134 88q-21 36 -21 88q0 39 12 94l64 297q43 202 235 202q112 0 166 -72q34 -48 34 -116q0 -45 -13 -103l-63 -289q-32 -146 -148 -182q0 -23 13 -32.5t38 -9.5q16 0 31 5l-24 -112q-20 -2 -37 -2q-73 0 -112 37.5zM274.5 127.5
q17.5 17.5 26.5 59.5l74 347q5 22 5 36q0 31 -15 49t-44 18q-60 0 -77 -78l-75 -343q-5 -22 -5 -37q0 -33 16.5 -51t47.5 -18q29 0 46.5 17.5z" />
    <glyph glyph-name="R" unicode="R" horiz-adv-x="487" 
d="M142 747h164q69 0 115 -18q96 -38 96 -164q0 -77 -35.5 -133.5t-101.5 -84.5l24 -347h-148l-10 325h-45l-69 -325h-149zM256 441q57 0 86 29t29 84q0 38 -17 55.5t-56 17.5h-33l-39 -186h30z" />
    <glyph glyph-name="S" unicode="S" horiz-adv-x="465" 
d="M8 117q-11 30 -11 78q0 32 4 60h144q-7 -28 -7 -59q0 -85 70 -85q32 0 48 20t16 55q0 27 -10.5 49.5t-40.5 58.5l-47 56q-42 50 -62.5 96t-20.5 96q0 96 54.5 157t159.5 61q56 0 94.5 -16.5t63.5 -49.5q35 -48 35 -118q0 -16 -4 -52h-142q6 23 6 45q0 34 -15 51t-42 17
q-32 0 -48.5 -20t-16.5 -56q0 -25 10.5 -47.5t37.5 -54.5l51 -61q47 -56 66 -97.5t19 -92.5q0 -100 -53.5 -160t-158.5 -60q-154 0 -200 129z" />
    <glyph glyph-name="T" unicode="T" horiz-adv-x="449" 
d="M220 622h-136l26 125h423l-26 -125h-138l-135 -622h-149z" />
    <glyph glyph-name="U" unicode="U" horiz-adv-x="505" 
d="M121 5.5q-42 18.5 -67 52.5q-32 42 -32 106q0 33 11 85l109 498h150l-118 -540q-6 -22 -6 -39q0 -15 6 -26q15 -28 50 -28q27 0 42.5 17t23.5 51l123 565h147l-125 -577q-39 -183 -217 -183q-55 0 -97 18.5z" />
    <glyph glyph-name="V" unicode="V" horiz-adv-x="481" 
d="M106 747h152q-22 -347 -41 -551h4q70 211 196 551h152l-304 -747h-178z" />
    <glyph glyph-name="W" unicode="W" horiz-adv-x="694" 
d="M107 747h148q-22 -206 -34 -304.5t-28 -196.5h4l181 501h137l-34 -502h4q21 80 58 201t83 264l12 37h143l-262 -747h-157l24 453h-4l-173 -453h-159z" />
    <glyph glyph-name="X" unicode="X" horiz-adv-x="467" 
d="M161 406l-49 341h148l21 -230h4l110 230h155l-209 -389l56 -358h-151l-25 244h-3l-115 -244h-157z" />
    <glyph glyph-name="Y" unicode="Y" horiz-adv-x="476" 
d="M164 295l-64 452h148l26 -284h4l139 284h153l-261 -472l-59 -275h-149z" />
    <glyph glyph-name="Z" unicode="Z" horiz-adv-x="432" 
d="M-7 121l316 504h-209l26 122h375l-25 -119l-316 -505h209l-25 -123h-375z" />
    <glyph glyph-name="bracketleft" unicode="[" horiz-adv-x="286" 
d="M154 789h220l-23 -106h-85l-154 -723h86l-23 -106h-221z" />
    <glyph glyph-name="backslash" unicode="\" horiz-adv-x="340" 
d="M102 789h124l35 -935h-124z" />
    <glyph glyph-name="bracketright" unicode="]" horiz-adv-x="286" 
d="M-52 -40h85l154 723h-86l23 106h221l-200 -935h-220z" />
    <glyph glyph-name="asciicircum" unicode="^" horiz-adv-x="393" 
d="M220 747h138l49 -285h-127l-9 158h-4l-78 -158h-131z" />
    <glyph glyph-name="underscore" unicode="_" horiz-adv-x="347" 
d="M-71 -34h349l-21 -106h-350z" />
    <glyph glyph-name="grave" unicode="`" horiz-adv-x="600" 
d="M184 773h132l36 -142h-104z" />
    <glyph glyph-name="a" unicode="a" horiz-adv-x="436" 
d="M18.5 28.5q-32.5 37.5 -32.5 95.5q0 90 65 149.5t218 99.5l6 30q4 19 4 34t-4 23q-9 22 -36 22q-19 0 -31 -12t-16 -32q-3 -18 -2 -35h-131q2 27 5 45q12 67 61.5 106.5t126.5 39.5q54 0 93.5 -18t59.5 -53q17 -29 17 -74q0 -31 -9 -75l-78 -374h-137l12 58h-3
q-21 -35 -44.5 -51t-57.5 -16q-54 0 -86.5 37.5zM141 115q11 -13 31 -13q40 0 52 58l23 110q-62 -23 -89.5 -52.5t-27.5 -67.5q0 -22 11 -35z" />
    <glyph glyph-name="b" unicode="b" horiz-adv-x="464" 
d="M178 10q-30 19 -44 51h-2l-15 -61h-138l160 747h144l-47 -223h2q17 29 48 47.5t68 18.5q60 0 91 -45q21 -30 21 -77q0 -29 -7 -60l-60 -278q-15 -70 -52.5 -104.5t-94.5 -34.5q-44 0 -74 19zM240.5 117q14.5 13 19.5 38l51 238q4 16 4 31q0 19 -8 32q-12 18 -37 18
q-45 0 -58 -59l-51 -239q-3 -15 -3 -26q0 -18 8 -29q12 -17 39 -17q21 0 35.5 13z" />
    <glyph glyph-name="c" unicode="c" horiz-adv-x="421" 
d="M90 6.5q-40 19.5 -63 55.5q-21 33 -21 82q0 33 9 76l43 204q17 81 68 125.5t137 44.5q72 0 118 -36.5t46 -107.5q0 -32 -10 -79h-132q12 38 12 66q0 47 -40 47q-23 0 -36 -16.5t-20 -50.5l-51 -239q-4 -17 -4 -31q0 -15 6 -26q11 -20 39 -20q27 0 39 23t14 73h137
q-12 -104 -57 -157t-141 -53q-53 0 -93 19.5z" />
    <glyph glyph-name="d" unicode="d" horiz-adv-x="463" 
d="M63 4q-26 13 -43 38q-21 30 -21 76q0 24 6 54l57 270q15 74 54.5 111.5t98.5 37.5q40 0 67 -19t41 -50h3l48 225h144l-158 -747h-136l12 57h-3q-22 -33 -48.5 -49.5t-62.5 -16.5q-33 0 -59 13zM228.5 118.5q14.5 13.5 19.5 37.5l52 239q5 23 5 32q0 22 -12.5 34.5
t-33.5 12.5t-36 -13t-20 -38l-54 -248q-3 -13 -3 -24q0 -17 9 -29q13 -17 38 -17q21 0 35.5 13.5z" />
    <glyph glyph-name="e" unicode="e" horiz-adv-x="438" 
d="M92.5 5q-39.5 18 -60.5 49q-26 37 -26 91q0 31 9 73l41 197q17 83 71.5 131t140.5 48q43 0 77 -13t56 -37q35 -38 35 -100q0 -27 -8 -67l-24 -116h-237l-17 -83q-3 -16 -3 -29q0 -20 7 -30q14 -18 41 -18q30 0 42.5 20.5t13.5 63.5h135q-16 -102 -61.5 -150t-140.5 -48
q-52 0 -91.5 18zM286 352l12 59q4 16 4 30q0 17 -7 27q-10 16 -36 16q-45 0 -58 -62l-15 -70h100z" />
    <glyph glyph-name="f" unicode="f" horiz-adv-x="316" 
d="M188 717q43 39 120 39q48 0 89 -13l-26 -119q-22 17 -50 17q-21 0 -33 -11.5t-18 -38.5l-5 -24h92l-23 -114h-93l-95 -453h-144l96 454h-56l23 112h57l6 30q17 82 60 121z" />
    <glyph glyph-name="g" unicode="g" horiz-adv-x="463" 
d="M14.5 -133.5q-48.5 45.5 -46.5 122.5h139l-2 -14q0 -14 7 -24q13 -19 42 -19q25 0 38.5 13t20.5 43l23 105h-3q-15 -26 -41.5 -43t-64.5 -17q-31 0 -57.5 11.5t-42.5 33.5q-21 29 -21 71q0 23 8 60l52 239q32 143 148 143q82 0 113 -73h2l14 63h139l-125 -594
q-18 -86 -65.5 -126t-135.5 -40q-93 0 -141.5 45.5zM256 199l44 202q3 14 3 24q0 15 -7 27q-12 20 -38 20q-43 0 -55 -55l-43 -203q-3 -13 -3 -24q0 -19 9 -30q13 -15 37 -15q41 0 53 54z" />
    <glyph glyph-name="h" unicode="h" horiz-adv-x="466" 
d="M138 747h145l-49 -224h3q19 32 48.5 51t68.5 19q54 0 83 -37q24 -30 24 -79q0 -24 -6 -54l-91 -423h-144l85 394q5 24 5 38q0 19 -10.5 29t-27.5 10q-47 0 -62 -67l-87 -404h-144z" />
    <glyph glyph-name="i" unicode="i" horiz-adv-x="231" 
d="M105 581h144l-123 -581h-144zM138 642q-22 19 -22 49q0 32 24 54.5t60 22.5q33 0 54 -19t21 -50q0 -33 -23 -54.5t-59 -21.5q-33 0 -55 19z" />
    <glyph glyph-name="j" unicode="j" horiz-adv-x="230" 
d="M-95 -164l25 116q10 -5 21 -5t17.5 6.5t9.5 21.5l128 606h144l-129 -611q-16 -73 -55.5 -105t-113.5 -32q-26 0 -47 3zM139 642q-22 19 -22 49q0 32 24 54.5t60 22.5q33 0 54 -19t21 -50q0 -33 -23 -54.5t-59 -21.5q-33 0 -55 19z" />
    <glyph glyph-name="k" unicode="k" horiz-adv-x="452" 
d="M138 747h144l-86 -399h5l160 233h149l-174 -245l49 -336h-143l-28 248l-57 -76l-37 -172h-141z" />
    <glyph glyph-name="l" unicode="l" horiz-adv-x="242" 
d="M40 24.5q-35 27.5 -35 75.5q0 20 7 57l125 590h143l-126 -596q-2 -10 -2 -15q0 -24 29 -24q8 0 14 2l-25 -114q-15 -3 -33 -3q-62 0 -97 27.5z" />
    <glyph glyph-name="m" unicode="m" horiz-adv-x="693" 
d="M103 581h139l-13 -64h3q39 77 118 77q34 0 60 -19.5t36 -55.5h3q18 33 51.5 54t74.5 21q63 0 93 -44q20 -32 20 -74q0 -27 -7 -56l-89 -420h-144l87 407q3 15 3 25q0 15 -6 24q-9 14 -31 14q-20 0 -34 -14t-21 -43l-88 -413h-144l87 406q3 15 3 26q0 15 -6 24
q-9 14 -30 14q-20 0 -35 -15.5t-22 -47.5l-87 -407h-144z" />
    <glyph glyph-name="n" unicode="n" horiz-adv-x="466" 
d="M103 581h139l-13 -62h4q40 74 120 74q55 0 84 -37q24 -30 24 -79q0 -24 -6 -54l-90 -423h-144l84 394q5 24 5 38q0 19 -10.5 29t-27.5 10q-47 0 -62 -67l-86 -404h-144z" />
    <glyph glyph-name="o" unicode="o" horiz-adv-x="454" 
d="M41 49q-33 39 -33 103q0 27 8 67l41 197q18 83 71.5 130.5t136.5 47.5q49 0 87 -16t61 -45q33 -44 33 -106q0 -27 -8 -67l-41 -195q-18 -86 -70 -132t-137 -46q-101 0 -149 62zM232 112.5q13 13.5 19 42.5l52 249q4 22 4 28q0 14 -7 28q-12 22 -41 22q-22 0 -36.5 -14.5
t-19.5 -41.5l-53 -254q-3 -13 -3 -24q0 -15 7 -27q14 -22 42 -22q23 0 36 13.5z" />
    <glyph glyph-name="p" unicode="p" horiz-adv-x="464" 
d="M181 8.5q-29 17.5 -44 46.5h-2l-47 -221h-144l159 747h139l-13 -60h2q18 30 50.5 49.5t69.5 19.5q62 0 93 -46q22 -29 22 -77q0 -24 -6 -53l-60 -280q-31 -143 -148 -143q-42 0 -71 17.5zM240.5 117q14.5 13 19.5 38l51 238q4 16 4 31q0 19 -8 32q-12 18 -37 18
q-45 0 -58 -59l-51 -239q-3 -15 -3 -26q0 -18 8 -29q12 -17 39 -17q21 0 35.5 13z" />
    <glyph glyph-name="q" unicode="q" horiz-adv-x="463" 
d="M60.5 3.5q-27.5 12.5 -42.5 35.5q-21 31 -21 72q0 24 8 62l58 269q16 75 55 112t96 37q45 0 74.5 -21t40.5 -54h2l14 65h139l-159 -747h-142l47 224h-2q-17 -31 -44 -49t-63 -18q-33 0 -60.5 12.5zM229.5 118.5q14.5 13.5 19.5 37.5l52 239q5 23 5 32q0 22 -12.5 34.5
t-33.5 12.5t-36 -13t-20 -38l-54 -248q-3 -13 -3 -24q0 -17 9 -29q13 -17 38 -17q21 0 35.5 13.5z" />
    <glyph glyph-name="r" unicode="r" horiz-adv-x="326" 
d="M103 581h139l-18 -82h3q24 42 64 68.5t83 26.5l-34 -164q-15 6 -36 6q-45 0 -72 -27.5t-41 -91.5l-68 -317h-144z" />
    <glyph glyph-name="s" unicode="s" horiz-adv-x="404" 
d="M2 76q-21 42 -16 109h134q-3 -13 -3 -27q0 -27 13 -43t38 -16q47 0 47 50q0 20 -9.5 37t-36.5 42l-36 33q-40 36 -57 72.5t-17 81.5q0 80 49 129.5t138 49.5q122 0 158 -91q10 -24 10 -67q0 -22 -1 -33h-132q4 15 4 30q0 23 -10.5 36.5t-31.5 13.5q-22 0 -34 -14t-12 -37
q0 -21 9.5 -39.5t34.5 -40.5l37 -33q42 -37 59.5 -72t17.5 -81q0 -82 -47 -130.5t-140 -48.5q-121 0 -166 89z" />
    <glyph glyph-name="t" unicode="t" horiz-adv-x="312" 
d="M54 45q-23 30 -23 72q0 28 9 67l60 270h-57l23 112h59l23 106l144 22l-27 -127h88l-23 -114h-88l-57 -269q-2 -11 -4 -20t-2 -16q0 -11 4 -18q9 -19 40 -19q19 0 34 5l-25 -116q-18 -3 -49 -3q-91 0 -129 48z" />
    <glyph glyph-name="u" unicode="u" 
d="M64.5 1q-26.5 12 -41.5 34q-19 27 -19 66q0 22 6 49l91 431h144l-86 -413q-3 -15 -3 -24q0 -12 5 -22q4 -8 14 -12.5t22 -4.5q22 0 34.5 15t19.5 47l87 414h144l-123 -581h-137l12 59h-3q-21 -37 -45 -53.5t-62 -16.5q-33 0 -59.5 12z" />
    <glyph glyph-name="v" unicode="v" horiz-adv-x="407" 
d="M67 581h142l-35 -414h4l141 414h145l-239 -581h-172z" />
    <glyph glyph-name="w" unicode="w" horiz-adv-x="662" 
d="M70 581h140l-40 -395h4l142 395h153l-24 -393h4l128 393h139l-224 -581h-159l20 371h-3l-146 -371h-158z" />
    <glyph glyph-name="x" unicode="x" horiz-adv-x="401" 
d="M114 312l-42 269h138l20 -170l84 170h142l-168 -301l46 -280h-140l-21 175l-87 -175h-143z" />
    <glyph glyph-name="y" unicode="y" horiz-adv-x="409" 
d="M-46 -166l27 122q22 -11 47 -11q26 0 40 10.5t26 39.5l23 59h-49l-1 527h141l-23 -383h5l129 383h145l-243 -604q-33 -82 -77.5 -115.5t-124.5 -33.5q-35 0 -65 6z" />
    <glyph glyph-name="z" unicode="z" horiz-adv-x="361" 
d="M-15 116l232 351h-156l24 114h312l-24 -116l-232 -351h165l-24 -114h-320z" />
    <glyph glyph-name="braceleft" unicode="{" horiz-adv-x="334" 
d="M48 -68q-13 29 -13 63q0 32 12 75l24 79q10 34 10 57q0 17 -6 30q-14 28 -62 33l22 103q51 1 74.5 21t29.5 74l15 142q7 66 29.5 105t65 57t112.5 18h65l-23 -106h-39q-39 0 -55 -17t-21 -61l-13 -133q-7 -73 -36.5 -109t-85.5 -47v-5q25 -12 42 -36q21 -31 21 -68
q0 -27 -12 -68l-28 -92q-6 -21 -6 -35q0 -13 5 -26q12 -26 53 -26h24l-23 -106h-10q-135 0 -171 78z" />
    <glyph glyph-name="bar" unicode="|" horiz-adv-x="225" 
d="M157 789h125l-201 -935h-125z" />
    <glyph glyph-name="braceright" unicode="}" horiz-adv-x="334" 
d="M-56 -40h39q39 0 55 17t21 61l13 133q7 73 36.5 109t85.5 47v5q-25 12 -42 36q-21 31 -21 68q0 28 12 68l28 92q7 20 7 35q0 16 -6 26q-12 26 -53 26h-24l23 106h10q135 0 171 -78q13 -29 13 -63q0 -31 -12 -75l-24 -79q-10 -34 -10 -57q0 -16 6 -30q14 -28 62 -33
l-22 -103q-51 -1 -74.5 -21t-29.5 -74l-15 -142q-7 -66 -29.5 -105t-65 -57t-112.5 -18h-65z" />
    <glyph glyph-name="asciitilde" unicode="~" 
d="M268 274.5q-23 6.5 -50 17.5q-14 5 -27 9.5t-22 4.5q-12 0 -18.5 -7t-10.5 -25h-99q15 73 43 109.5t83 36.5q25 0 48 -6.5t50 -17.5q14 -5 27.5 -9.5t21.5 -4.5q12 0 18.5 7t10.5 25h99q-15 -73 -43 -109.5t-83 -36.5q-25 0 -48 6.5z" />
    <glyph glyph-name="uni00A0" unicode="&#xa0;" horiz-adv-x="136" 
 />
    <glyph glyph-name="exclamdown" unicode="&#xa1;" horiz-adv-x="251" 
d="M83 360h125l-104 -526h-153zM109.5 443.5q-24.5 24.5 -24.5 60.5q0 38 25 63.5t63 25.5q36 0 61 -24.5t25 -60.5q0 -38 -25.5 -63.5t-63.5 -25.5q-36 0 -60.5 24.5z" />
    <glyph glyph-name="cent" unicode="&#xa2;" 
d="M123 -1q-55 19 -83 67q-22 38 -22 82q0 30 9 72l43 204q15 73 59.5 116.5t118.5 51.5l19 86h118l-22 -98q42 -16 66 -48.5t24 -81.5q0 -32 -10 -79h-132q12 38 12 66q0 47 -48 47q-26 0 -40.5 -16.5t-21.5 -50.5l-51 -239q-3 -16 -3 -27q0 -15 7 -29q13 -21 43 -21
q31 0 45 23t16 73h137q-11 -91 -50.5 -143.5t-117.5 -63.5l-20 -90h-118z" />
    <glyph glyph-name="sterling" unicode="&#xa3;" 
d="M56.5 162.5q21.5 20.5 31.5 51.5t12 83l1 30h-59l22 106h41l4 127q4 99 58.5 149.5t143.5 50.5q110 0 154 -81q20 -37 20 -93q0 -23 -3 -46h-135q5 22 5 42q0 60 -46 60q-50 0 -54 -76l-6 -133h164l-21 -106h-147l-1 -24q-4 -75 -25.5 -116t-68.5 -63h255l-25 -124h-408
l26 124q40 18 61.5 38.5z" />
    <glyph glyph-name="currency" unicode="&#xa4;" 
d="M16 205l85 78q-12 29 -12 59q0 62 34 108l-52 66l79 65l54 -73q22 7 49 7q41 0 75 -21l74 78l69 -70l-81 -83q10 -27 10 -55q0 -61 -32 -107l53 -66l-79 -65l-57 72q-24 -7 -50 -7q-38 0 -71 19l-79 -75zM284.5 307q16.5 19 16.5 53q0 26 -14 42.5t-37 16.5
q-29 0 -45.5 -19.5t-16.5 -53.5q0 -26 14 -42t37 -16q29 0 45.5 19z" />
    <glyph glyph-name="yen" unicode="&#xa5;" 
d="M116 92h-120l21 96h120l12 51h-121l21 96h120l-69 412h145l25 -279h4l132 279h150l-234 -412h111l-22 -96h-118l-12 -51h122l-21 -96h-122l-20 -92h-144z" />
    <glyph glyph-name="brokenbar" unicode="&#xa6;" horiz-adv-x="225" 
d="M52 303h125l-96 -449h-125zM157 789h125l-86 -397h-125z" />
    <glyph glyph-name="section" unicode="&#xa7;" 
d="M11 -14q-21 42 -16 109h134q-3 -13 -3 -27q0 -27 13 -43t38 -16q26 0 38.5 14t12.5 37q0 19 -10.5 36t-39.5 42l-65 56q-44 38 -62.5 69t-18.5 68q0 54 32.5 93.5t89.5 57.5q-37 46 -37 104q0 48 22.5 88t65 63t99.5 23q122 0 158 -91q10 -24 10 -67q0 -22 -1 -33h-132
q4 15 4 30q0 23 -10.5 36.5t-31.5 13.5q-22 0 -34 -13t-12 -33q0 -17 10 -31.5t34 -34.5l68 -58q45 -39 63.5 -69.5t18.5 -73.5q0 -107 -112 -159q28 -41 28 -101q0 -78 -48.5 -128.5t-139.5 -50.5q-121 0 -166 89zM303.5 278q11.5 14 11.5 31q0 16 -9.5 30t-36.5 38l-42 36
q-59 -16 -59 -55q0 -15 8.5 -27.5t31.5 -32.5l57 -49q27 15 38.5 29z" />
    <glyph glyph-name="dieresis" unicode="&#xa8;" horiz-adv-x="600" 
d="M151.5 652q-20.5 18 -20.5 45q0 30 22 51t56 21q30 0 49.5 -18t19.5 -46q0 -30 -21.5 -50.5t-54.5 -20.5q-30 0 -50.5 18zM340.5 652q-20.5 18 -20.5 45q0 30 22 51t56 21q30 0 49.5 -18t19.5 -46q0 -30 -21.5 -50.5t-54.5 -20.5q-30 0 -50.5 18z" />
    <glyph glyph-name="copyright" unicode="&#xa9;" horiz-adv-x="782" 
d="M211 34q-80 46 -126 126t-46 178q0 119 50.5 215.5t140 151.5t199.5 55q99 0 178.5 -45.5t125 -126t45.5 -181.5q0 -118 -50.5 -214t-139.5 -150.5t-199 -54.5q-98 0 -178 46zM536 119q65 42 101.5 116.5t36.5 167.5q0 77 -31.5 138t-87 95.5t-126.5 34.5
q-82 0 -147.5 -42.5t-102 -117.5t-36.5 -169q0 -76 30.5 -136t86.5 -94.5t129 -34.5q82 0 147 42zM306 161.5q-32 15.5 -50 43.5q-19 29 -19 67q0 26 7 58l30 140q14 64 54.5 99t108.5 35q59 0 95 -29t36 -86q0 -24 -7 -56h-109q9 27 9 46q0 16 -7.5 25t-21.5 9
q-17 0 -26 -11.5t-15 -36.5l-35 -159q-5 -23 -5 -33t4 -17q9 -17 30 -17q23 0 31.5 19.5t8.5 57.5h113q-9 -83 -46 -126.5t-112 -43.5q-42 0 -74 15.5z" />
    <glyph glyph-name="guillemotleft" unicode="&#xab;" horiz-adv-x="498" 
d="M25 296l138 201h134l-135 -206l50 -206h-133zM235 296l138 201h134l-135 -206l50 -206h-133z" />
    <glyph glyph-name="logicalnot" unicode="&#xac;" 
d="M290 308h-243l22 107h373l-43 -205h-129z" />
    <glyph glyph-name="registered" unicode="&#xae;" horiz-adv-x="554" 
d="M192.5 280q-55.5 31 -86.5 85.5t-31 124.5q0 76 33.5 138t92 97t129.5 35q68 0 122.5 -31t86 -86t31.5 -124q0 -77 -33.5 -138.5t-91.5 -96.5t-128 -35q-69 0 -124.5 31zM311 486h-12l-23 -109h-74l60 272h77q44 0 66.5 -20t22.5 -57q0 -57 -48 -76l12 -119h-78zM410 337
q42 27 66 74.5t24 105.5q0 52 -22 93.5t-60.5 65t-87.5 23.5q-52 0 -94.5 -27t-66.5 -74t-24 -105q0 -53 21.5 -94.5t61 -65t89.5 -23.5q51 0 93 27zM324 537q28 0 28 31q0 19 -20 19h-11l-11 -50h14z" />
    <glyph glyph-name="macron" unicode="&#xaf;" horiz-adv-x="600" 
d="M162 743h235l-22 -98h-235z" />
    <glyph glyph-name="degree" unicode="&#xb0;" horiz-adv-x="390" 
d="M147 490q-42 42 -42 107q0 45 21 82.5t57.5 59t81.5 21.5q69 0 111 -42.5t42 -108.5q0 -45 -20.5 -81.5t-56.5 -58t-81 -21.5q-71 0 -113 42zM307 552q18 21 18 55q0 32 -16.5 51t-43.5 19q-30 0 -48.5 -22t-18.5 -56q0 -30 17 -49t45 -19q29 0 47 21z" />
    <glyph glyph-name="plusminus" unicode="&#xb1;" 
d="M182 356h-125l21 102h126l27 129h123l-27 -129h128l-21 -102h-129l-22 -107h-123zM23 201h377l-23 -106h-376z" />
    <glyph glyph-name="uni00B2" unicode="&#xb2;" horiz-adv-x="344" 
d="M236 598q28 26 39 43.5t11 35.5q0 16 -9 26t-26 10q-45 0 -45 -66h-101q0 76 40.5 118.5t117.5 42.5q62 0 97.5 -31.5t35.5 -86.5q0 -42 -19.5 -77t-63.5 -74q-50 -44 -114 -92h152l-20 -97h-293l20 94q106 88 178 154z" />
    <glyph glyph-name="uni00B3" unicode="&#xb3;" horiz-adv-x="344" 
d="M92.5 374q-37.5 35 -37.5 97q0 15 1 23h102q-1 -5 -1 -13q0 -46 41 -46q36 0 44 35l2 9l2 18q0 41 -52 41h-26l15 81h38q29 0 41.5 8.5t16.5 28.5l2 10q1 5 1 13q0 32 -34 32q-38 0 -42 -46h-103q4 67 44 104.5t110 37.5q63 0 101 -30.5t38 -81.5q0 -13 -3 -27l-2 -10
q-8 -39 -29.5 -58t-64.5 -22v-3q29 -5 45 -27.5t16 -54.5q0 -13 -3 -28l-3 -14q-11 -54 -50.5 -83t-101.5 -29q-70 0 -107.5 35z" />
    <glyph glyph-name="acute" unicode="&#xb4;" horiz-adv-x="600" 
d="M220 771h139l-110 -141h-110z" />
    <glyph glyph-name="uni00B5" unicode="&#xb5;" 
d="M10 150l91 431h144l-86 -413q-3 -15 -3 -24q0 -12 5 -22q4 -8 14 -12.5t22 -4.5q22 0 34.5 15t19.5 47l87 414h144l-123 -581h-137l12 59h-3q-17 -36 -33.5 -50.5t-41.5 -14.5q-22 0 -38 11h-2l-37 -171h-137z" />
    <glyph glyph-name="paragraph" unicode="&#xb6;" horiz-adv-x="494" 
d="M118 445q-29 39 -29 94q0 94 58.5 151t162.5 57h236l-184 -867h-102l166 782h-69l-167 -782h-102l107 503q-48 23 -77 62z" />
    <glyph glyph-name="periodcentered" unicode="&#xb7;" horiz-adv-x="227" 
d="M64 292q-25 25 -25 62q0 39 26 65t65 26q37 0 62 -25t25 -62q0 -39 -26 -65t-65 -26q-37 0 -62 25z" />
    <glyph glyph-name="cedilla" unicode="&#xb8;" horiz-adv-x="600" 
d="M-33 -166l14 72q20 -6 40 -6q16 0 22 4t6 13q0 19 -35 29l21 79h74l-14 -51q28 -12 45 -30t17 -40q0 -36 -30 -56t-89 -20q-43 0 -71 6z" />
    <glyph glyph-name="uni00B9" unicode="&#xb9;" horiz-adv-x="336" 
d="M70 442h91l51 237q-48 -28 -107 -39l20 97q78 21 133 63h94l-77 -358h86l-19 -92h-291z" />
    <glyph glyph-name="guillemotright" unicode="&#xbb;" horiz-adv-x="498" 
d="M126 291l-50 206h133l54 -211l-138 -201h-134zM336 291l-50 206h133l54 -211l-138 -201h-134z" />
    <glyph glyph-name="onequarter" unicode="&#xbc;" horiz-adv-x="905" 
d="M59 389h91l51 237q-48 -28 -107 -39l20 97q78 21 133 63h94l-77 -358h86l-19 -92h-291zM662 747h117l-457 -747h-117zM558 177l127 272h116l-139 -272h61l29 125h107l-28 -125h36l-19 -94h-37l-18 -83h-109l18 83h-163z" />
    <glyph glyph-name="onehalf" unicode="&#xbd;" horiz-adv-x="932" 
d="M59 389h91l51 237q-48 -28 -107 -39l20 97q78 21 133 63h94l-77 -358h86l-19 -92h-291zM662 747h117l-457 -747h-117zM750 248q28 26 39 43.5t11 35.5q0 16 -9 26t-26 10q-45 0 -45 -66h-101q0 76 40.5 118.5t117.5 42.5q62 0 97.5 -31.5t35.5 -86.5q0 -42 -19.5 -77
t-63.5 -74q-50 -44 -114 -92h152l-20 -97h-293l20 94q106 88 178 154z" />
    <glyph glyph-name="threequarters" unicode="&#xbe;" horiz-adv-x="888" 
d="M81.5 322q-37.5 35 -37.5 97q0 15 1 23h102q-1 -5 -1 -13q0 -46 41 -46q36 0 44 35l2 9l2 18q0 41 -52 41h-26l15 81h38q29 0 41.5 8.5t16.5 28.5l2 10q1 5 1 13q0 32 -34 32q-38 0 -42 -46h-103q4 67 44 104.5t110 37.5q63 0 101 -30.5t38 -81.5q0 -13 -3 -27l-2 -10
q-8 -39 -29.5 -58t-64.5 -22v-3q29 -5 45 -27.5t16 -54.5q0 -13 -3 -28l-3 -14q-11 -54 -50.5 -83t-101.5 -29q-70 0 -107.5 35zM645 747h117l-457 -747h-117zM541 177l127 272h116l-139 -272h61l29 125h107l-28 -125h36l-19 -94h-37l-18 -83h-109l18 83h-163z" />
    <glyph glyph-name="questiondown" unicode="&#xbf;" horiz-adv-x="440" 
d="M10 -131.5q-50 48.5 -50 128.5q0 62 26.5 106t94.5 96q38 29 57 49t28.5 45t14.5 66h129q-5 -60 -17.5 -98t-40.5 -72t-83 -79q-35 -29 -50 -53.5t-15 -54.5q0 -31 13.5 -48t40.5 -17q64 0 64 83q0 14 -2 36h140q2 -37 -3 -69q-12 -78 -64 -122.5t-144 -44.5
q-89 0 -139 48.5zM199.5 450.5q-23.5 23.5 -23.5 57.5q0 36 24 60t61 24q34 0 57.5 -23.5t23.5 -57.5q0 -36 -24.5 -60t-60.5 -24q-34 0 -57.5 23.5z" />
    <glyph glyph-name="Agrave" unicode="&#xc0;" horiz-adv-x="505" 
d="M256 747h186l-8 -747h-148l6 160h-136l-62 -160h-147zM301 280l16 296h-4l-114 -296h102zM231 931h135l44 -136h-107z" />
    <glyph glyph-name="Aacute" unicode="&#xc1;" horiz-adv-x="505" 
d="M256 747h186l-8 -747h-148l6 160h-136l-62 -160h-147zM301 280l16 296h-4l-114 -296h102zM374 931h145l-118 -136h-116z" />
    <glyph glyph-name="Acircumflex" unicode="&#xc2;" horiz-adv-x="505" 
d="M256 747h186l-8 -747h-148l6 160h-136l-62 -160h-147zM301 280l16 296h-4l-114 -296h102zM320 931h125l65 -136h-108l-32 50h-3l-56 -50h-114z" />
    <glyph glyph-name="Atilde" unicode="&#xc3;" horiz-adv-x="505" 
d="M256 747h186l-8 -747h-148l6 160h-136l-62 -160h-147zM301 280l16 296h-4l-114 -296h102zM395.5 803.5q-14.5 4.5 -32.5 12.5q-24 12 -38 12q-11 0 -16.5 -5.5t-8.5 -19.5h-85q14 65 35.5 98.5t63.5 33.5q18 0 32.5 -4.5t34.5 -13.5q24 -11 35 -11t16.5 5.5t8.5 19.5h85
q-14 -65 -35.5 -98.5t-63.5 -33.5q-17 0 -31.5 4.5z" />
    <glyph glyph-name="Adieresis" unicode="&#xc4;" horiz-adv-x="505" 
d="M256 747h186l-8 -747h-148l6 160h-136l-62 -160h-147zM301 280l16 296h-4l-114 -296h102zM213 810.5q-21 17.5 -21 45.5q0 31 22.5 52.5t57.5 21.5q32 0 51.5 -17.5t19.5 -45.5q0 -32 -21.5 -53t-56.5 -21q-31 0 -52 17.5zM414 810.5q-21 17.5 -21 45.5q0 31 22.5 52.5
t57.5 21.5q32 0 51.5 -17.5t19.5 -45.5q0 -32 -21.5 -53t-56.5 -21q-31 0 -52 17.5z" />
    <glyph glyph-name="Aring" unicode="&#xc5;" horiz-adv-x="505" 
d="M259 753q-13 23 -13 48q0 44 31 73.5t79 29.5q49 0 79.5 -29.5t30.5 -73.5q0 -37 -24 -64l-8 -737h-148l6 160h-136l-62 -160h-147zM378.5 779q8.5 9 8.5 22q0 16 -8.5 25t-22.5 9t-22.5 -9t-8.5 -25q0 -13 9 -22t22 -9q14 0 22.5 9zM301 280l16 296h-4l-114 -296h102z
" />
    <glyph glyph-name="AE" unicode="&#xc6;" horiz-adv-x="724" 
d="M341 747h455l-26 -122h-205l-37 -174h154l-23 -119h-157l-44 -210h207l-25 -122h-358l34 157h-140l-81 -157h-155zM342 278l74 347h-6l-177 -347h109z" />
    <glyph glyph-name="Ccedilla" unicode="&#xc7;" horiz-adv-x="480" 
d="M95 -166l14 72q20 -6 40 -6q16 0 22 4t6 13q0 19 -35 29l13 47q-88 19 -123 89q-18 36 -18 80q0 34 11 87l66 310q43 201 233 201q119 0 165 -79q22 -38 22 -96q0 -42 -12 -93h-145q14 47 14 79q0 65 -54 65q-28 0 -45 -17t-25 -54l-71 -330q-10 -44 -10 -62
q0 -30 17 -46t46 -16q39 0 54 31.5t19 103.5h147q-11 -92 -36 -148t-69.5 -82.5t-113.5 -28.5l-4 -13q28 -12 45 -30t17 -40q0 -36 -30 -56t-89 -20q-42 0 -71 6z" />
    <glyph glyph-name="Egrave" unicode="&#xc8;" horiz-adv-x="425" 
d="M143 747h354l-26 -122h-205l-37 -174h154l-23 -119h-157l-44 -210h207l-25 -122h-358zM197 931h135l44 -136h-107z" />
    <glyph glyph-name="Eacute" unicode="&#xc9;" horiz-adv-x="425" 
d="M143 747h354l-26 -122h-205l-37 -174h154l-23 -119h-157l-44 -210h207l-25 -122h-358zM340 931h145l-118 -136h-116z" />
    <glyph glyph-name="Ecircumflex" unicode="&#xca;" horiz-adv-x="425" 
d="M143 747h354l-26 -122h-205l-37 -174h154l-23 -119h-157l-44 -210h207l-25 -122h-358zM286 931h125l65 -136h-108l-32 50h-3l-56 -50h-114z" />
    <glyph glyph-name="Edieresis" unicode="&#xcb;" horiz-adv-x="425" 
d="M143 747h354l-26 -122h-205l-37 -174h154l-23 -119h-157l-44 -210h207l-25 -122h-358zM179 810.5q-21 17.5 -21 45.5q0 31 22.5 52.5t57.5 21.5q32 0 51.5 -17.5t19.5 -45.5q0 -32 -21.5 -53t-56.5 -21q-31 0 -52 17.5zM380 810.5q-21 17.5 -21 45.5q0 31 22.5 52.5
t57.5 21.5q32 0 51.5 -17.5t19.5 -45.5q0 -32 -21.5 -53t-56.5 -21q-31 0 -52 17.5z" />
    <glyph glyph-name="Igrave" unicode="&#xcc;" horiz-adv-x="243" 
d="M144 747h149l-159 -747h-149zM104 931h135l44 -136h-107z" />
    <glyph glyph-name="Iacute" unicode="&#xcd;" horiz-adv-x="243" 
d="M144 747h149l-159 -747h-149zM247 931h145l-118 -136h-116z" />
    <glyph glyph-name="Icircumflex" unicode="&#xce;" horiz-adv-x="243" 
d="M144 747h149l-159 -747h-149zM193 931h125l65 -136h-108l-32 50h-3l-56 -50h-114z" />
    <glyph glyph-name="Idieresis" unicode="&#xcf;" horiz-adv-x="243" 
d="M144 747h149l-159 -747h-149zM86 810.5q-21 17.5 -21 45.5q0 31 22.5 52.5t57.5 21.5q32 0 51.5 -17.5t19.5 -45.5q0 -32 -21.5 -53t-56.5 -21q-31 0 -52 17.5zM287 810.5q-21 17.5 -21 45.5q0 31 22.5 52.5t57.5 21.5q32 0 51.5 -17.5t19.5 -45.5q0 -32 -21.5 -53
t-56.5 -21q-31 0 -52 17.5z" />
    <glyph glyph-name="Eth" unicode="&#xd0;" horiz-adv-x="520" 
d="M68 342h-54l23 109h55l64 296h157q63 0 105 -13.5t72 -43.5q45 -46 45 -128q0 -39 -11 -91l-54 -249q-26 -120 -94 -171t-198 -51h-184zM188 120q62 0 90.5 21.5t40.5 77.5l61 280q6 29 6 50q0 31 -14 51q-18 25 -69 25h-24l-38 -174h80l-23 -109h-80l-48 -222h18z" />
    <glyph glyph-name="Ntilde" unicode="&#xd1;" horiz-adv-x="522" 
d="M145 747h167l42 -447h4l84 447h132l-161 -747h-140l-51 489h-4l-101 -489h-134zM418.5 803.5q-14.5 4.5 -32.5 12.5q-24 12 -38 12q-11 0 -16.5 -5.5t-8.5 -19.5h-85q14 65 35.5 98.5t63.5 33.5q18 0 32.5 -4.5t34.5 -13.5q24 -11 35 -11t16.5 5.5t8.5 19.5h85
q-14 -65 -35.5 -98.5t-63.5 -33.5q-17 0 -31.5 4.5z" />
    <glyph glyph-name="Ograve" unicode="&#xd2;" horiz-adv-x="510" 
d="M110.5 10.5q-47.5 23.5 -73.5 68.5q-21 36 -21 88q0 39 12 94l64 297q43 202 235 202q112 0 166 -72q34 -48 34 -116q0 -45 -13 -103l-63 -289q-21 -94 -77.5 -143.5t-150.5 -49.5q-65 0 -112.5 23.5zM274.5 127.5q17.5 17.5 26.5 59.5l74 347q5 22 5 36q0 31 -15 49
t-44 18q-60 0 -77 -78l-75 -343q-5 -22 -5 -37q0 -33 16.5 -51t47.5 -18q29 0 46.5 17.5zM226 931h135l44 -136h-107z" />
    <glyph glyph-name="Oacute" unicode="&#xd3;" horiz-adv-x="510" 
d="M110.5 10.5q-47.5 23.5 -73.5 68.5q-21 36 -21 88q0 39 12 94l64 297q43 202 235 202q112 0 166 -72q34 -48 34 -116q0 -45 -13 -103l-63 -289q-21 -94 -77.5 -143.5t-150.5 -49.5q-65 0 -112.5 23.5zM274.5 127.5q17.5 17.5 26.5 59.5l74 347q5 22 5 36q0 31 -15 49
t-44 18q-60 0 -77 -78l-75 -343q-5 -22 -5 -37q0 -33 16.5 -51t47.5 -18q29 0 46.5 17.5zM369 931h145l-118 -136h-116z" />
    <glyph glyph-name="Ocircumflex" unicode="&#xd4;" horiz-adv-x="510" 
d="M110.5 10.5q-47.5 23.5 -73.5 68.5q-21 36 -21 88q0 39 12 94l64 297q43 202 235 202q112 0 166 -72q34 -48 34 -116q0 -45 -13 -103l-63 -289q-21 -94 -77.5 -143.5t-150.5 -49.5q-65 0 -112.5 23.5zM274.5 127.5q17.5 17.5 26.5 59.5l74 347q5 22 5 36q0 31 -15 49
t-44 18q-60 0 -77 -78l-75 -343q-5 -22 -5 -37q0 -33 16.5 -51t47.5 -18q29 0 46.5 17.5zM315 931h125l65 -136h-108l-32 50h-3l-56 -50h-114z" />
    <glyph glyph-name="Otilde" unicode="&#xd5;" horiz-adv-x="510" 
d="M110.5 10.5q-47.5 23.5 -73.5 68.5q-21 36 -21 88q0 39 12 94l64 297q43 202 235 202q112 0 166 -72q34 -48 34 -116q0 -45 -13 -103l-63 -289q-21 -94 -77.5 -143.5t-150.5 -49.5q-65 0 -112.5 23.5zM274.5 127.5q17.5 17.5 26.5 59.5l74 347q5 22 5 36q0 31 -15 49
t-44 18q-60 0 -77 -78l-75 -343q-5 -22 -5 -37q0 -33 16.5 -51t47.5 -18q29 0 46.5 17.5zM390.5 803.5q-14.5 4.5 -32.5 12.5q-24 12 -38 12q-11 0 -16.5 -5.5t-8.5 -19.5h-85q14 65 35.5 98.5t63.5 33.5q18 0 32.5 -4.5t34.5 -13.5q24 -11 35 -11t16.5 5.5t8.5 19.5h85
q-14 -65 -35.5 -98.5t-63.5 -33.5q-17 0 -31.5 4.5z" />
    <glyph glyph-name="Odieresis" unicode="&#xd6;" horiz-adv-x="510" 
d="M110.5 10.5q-47.5 23.5 -73.5 68.5q-21 36 -21 88q0 39 12 94l64 297q43 202 235 202q112 0 166 -72q34 -48 34 -116q0 -45 -13 -103l-63 -289q-21 -94 -77.5 -143.5t-150.5 -49.5q-65 0 -112.5 23.5zM274.5 127.5q17.5 17.5 26.5 59.5l74 347q5 22 5 36q0 31 -15 49
t-44 18q-60 0 -77 -78l-75 -343q-5 -22 -5 -37q0 -33 16.5 -51t47.5 -18q29 0 46.5 17.5zM208 810.5q-21 17.5 -21 45.5q0 31 22.5 52.5t57.5 21.5q32 0 51.5 -17.5t19.5 -45.5q0 -32 -21.5 -53t-56.5 -21q-31 0 -52 17.5zM409 810.5q-21 17.5 -21 45.5q0 31 22.5 52.5
t57.5 21.5q32 0 51.5 -17.5t19.5 -45.5q0 -32 -21.5 -53t-56.5 -21q-31 0 -52 17.5z" />
    <glyph glyph-name="multiply" unicode="&#xd7;" 
d="M231 265l-129 -114l-71 82l131 116l-92 113l91 73l93 -115l127 115l70 -83l-128 -117l89 -109l-91 -72z" />
    <glyph glyph-name="Oslash" unicode="&#xd8;" horiz-adv-x="510" 
d="M28 104q-12 30 -12 68q0 37 12 89l64 297q21 99 79.5 150.5t154.5 51.5q81 0 133 -40l38 56h110l-92 -135q11 -33 11 -72q0 -41 -12 -100l-63 -289q-21 -94 -77.5 -143.5t-150.5 -49.5q-85 0 -137 40l-38 -55h-110zM278.5 122q17.5 18 28.5 64l64 266l-213 -309
q16 -39 69 -39q34 0 51.5 18zM388 606q-16 37 -66 37q-65 0 -85 -83l-63 -266z" />
    <glyph glyph-name="Ugrave" unicode="&#xd9;" horiz-adv-x="505" 
d="M121 5.5q-42 18.5 -67 52.5q-32 42 -32 106q0 33 11 85l109 498h150l-118 -540q-6 -22 -6 -39q0 -15 6 -26q15 -28 50 -28q27 0 42.5 17t23.5 51l123 565h147l-125 -577q-39 -183 -217 -183q-55 0 -97 18.5zM231 931h135l44 -136h-107z" />
    <glyph glyph-name="Uacute" unicode="&#xda;" horiz-adv-x="505" 
d="M121 5.5q-42 18.5 -67 52.5q-32 42 -32 106q0 33 11 85l109 498h150l-118 -540q-6 -22 -6 -39q0 -15 6 -26q15 -28 50 -28q27 0 42.5 17t23.5 51l123 565h147l-125 -577q-39 -183 -217 -183q-55 0 -97 18.5zM374 931h145l-118 -136h-116z" />
    <glyph glyph-name="Ucircumflex" unicode="&#xdb;" horiz-adv-x="505" 
d="M121 5.5q-42 18.5 -67 52.5q-32 42 -32 106q0 33 11 85l109 498h150l-118 -540q-6 -22 -6 -39q0 -15 6 -26q15 -28 50 -28q27 0 42.5 17t23.5 51l123 565h147l-125 -577q-39 -183 -217 -183q-55 0 -97 18.5zM320 931h125l65 -136h-108l-32 50h-3l-56 -50h-114z" />
    <glyph glyph-name="Udieresis" unicode="&#xdc;" horiz-adv-x="505" 
d="M121 5.5q-42 18.5 -67 52.5q-32 42 -32 106q0 33 11 85l109 498h150l-118 -540q-6 -22 -6 -39q0 -15 6 -26q15 -28 50 -28q27 0 42.5 17t23.5 51l123 565h147l-125 -577q-39 -183 -217 -183q-55 0 -97 18.5zM213 810.5q-21 17.5 -21 45.5q0 31 22.5 52.5t57.5 21.5
q32 0 51.5 -17.5t19.5 -45.5q0 -32 -21.5 -53t-56.5 -21q-31 0 -52 17.5zM414 810.5q-21 17.5 -21 45.5q0 31 22.5 52.5t57.5 21.5q32 0 51.5 -17.5t19.5 -45.5q0 -32 -21.5 -53t-56.5 -21q-31 0 -52 17.5z" />
    <glyph glyph-name="Yacute" unicode="&#xdd;" horiz-adv-x="476" 
d="M164 295l-64 452h148l26 -284h4l139 284h153l-261 -472l-59 -275h-149zM362 931h145l-118 -136h-116z" />
    <glyph glyph-name="Thorn" unicode="&#xde;" horiz-adv-x="484" 
d="M142 747h149l-32 -148h14q37 0 65.5 -4.5t53.5 -15.5q50 -21 72 -60.5t22 -104.5q0 -117 -67.5 -182t-194.5 -64l-56 1l-36 -169h-149zM225 287q59 0 87 30t28 90q0 38 -17.5 55t-57.5 17h-31l-41 -192h32z" />
    <glyph glyph-name="germandbls" unicode="&#xdf;" horiz-adv-x="537" 
d="M214.5 29.5q-39.5 40.5 -39.5 105.5q0 16 2 40h122q-4 -16 -4 -34q0 -43 33 -43q17 0 24.5 12t7.5 38q0 20 -9 39.5t-32 48.5l-33 42q-23 29 -32.5 51.5t-9.5 48.5q0 40 18.5 70.5t62.5 65.5q27 21 36.5 37.5t9.5 38.5q0 23 -13 37t-40 14q-32 0 -50.5 -20.5t-28.5 -67.5
l-116 -553h-144l117 560q41 195 228 195q85 0 137 -41t52 -115q0 -47 -20 -79t-76 -71q-19 -13 -27 -24.5t-8 -25.5q0 -10 5 -20t18 -25l31 -37q35 -42 48.5 -74.5t13.5 -73.5q0 -79 -44.5 -129.5t-124.5 -50.5q-75 0 -114.5 40.5z" />
    <glyph glyph-name="agrave" unicode="&#xe0;" horiz-adv-x="436" 
d="M18.5 28.5q-32.5 37.5 -32.5 95.5q0 90 65 149.5t218 99.5l6 30q4 19 4 34t-4 23q-9 22 -36 22q-19 0 -31 -12t-16 -32q-3 -18 -2 -35h-131q2 27 5 45q12 67 61.5 106.5t126.5 39.5q54 0 93.5 -18t59.5 -53q17 -29 17 -74q0 -31 -9 -75l-78 -374h-137l12 58h-3
q-21 -35 -44.5 -51t-57.5 -16q-54 0 -86.5 37.5zM141 115q11 -13 31 -13q40 0 52 58l23 110q-62 -23 -89.5 -52.5t-27.5 -67.5q0 -22 11 -35zM146 773h132l36 -142h-104z" />
    <glyph glyph-name="aacute" unicode="&#xe1;" horiz-adv-x="436" 
d="M18.5 28.5q-32.5 37.5 -32.5 95.5q0 90 65 149.5t218 99.5l6 30q4 19 4 34t-4 23q-9 22 -36 22q-19 0 -31 -12t-16 -32q-3 -18 -2 -35h-131q2 27 5 45q12 67 61.5 106.5t126.5 39.5q54 0 93.5 -18t59.5 -53q17 -29 17 -74q0 -31 -9 -75l-78 -374h-137l12 58h-3
q-21 -35 -44.5 -51t-57.5 -16q-54 0 -86.5 37.5zM141 115q11 -13 31 -13q40 0 52 58l23 110q-62 -23 -89.5 -52.5t-27.5 -67.5q0 -22 11 -35zM293 771h139l-110 -141h-110z" />
    <glyph glyph-name="acircumflex" unicode="&#xe2;" horiz-adv-x="436" 
d="M18.5 28.5q-32.5 37.5 -32.5 95.5q0 90 65 149.5t218 99.5l6 30q4 19 4 34t-4 23q-9 22 -36 22q-19 0 -31 -12t-16 -32q-3 -18 -2 -35h-131q2 27 5 45q12 67 61.5 106.5t126.5 39.5q54 0 93.5 -18t59.5 -53q17 -29 17 -74q0 -31 -9 -75l-78 -374h-137l12 58h-3
q-21 -35 -44.5 -51t-57.5 -16q-54 0 -86.5 37.5zM141 115q11 -13 31 -13q40 0 52 58l23 110q-62 -23 -89.5 -52.5t-27.5 -67.5q0 -22 11 -35zM226 772h131l49 -145h-102l-24 56h-4l-50 -56h-108z" />
    <glyph glyph-name="atilde" unicode="&#xe3;" horiz-adv-x="436" 
d="M18.5 28.5q-32.5 37.5 -32.5 95.5q0 90 65 149.5t218 99.5l6 30q4 19 4 34t-4 23q-9 22 -36 22q-19 0 -31 -12t-16 -32q-3 -18 -2 -35h-131q2 27 5 45q12 67 61.5 106.5t126.5 39.5q54 0 93.5 -18t59.5 -53q17 -29 17 -74q0 -31 -9 -75l-78 -374h-137l12 58h-3
q-21 -35 -44.5 -51t-57.5 -16q-54 0 -86.5 37.5zM141 115q11 -13 31 -13q40 0 52 58l23 110q-62 -23 -89.5 -52.5t-27.5 -67.5q0 -22 11 -35zM298 639.5q-13 4.5 -32 13.5q-9 5 -19 8.5t-17 3.5q-10 0 -15.5 -5.5t-8.5 -20.5h-81q14 66 34 99t61 33q17 0 30.5 -4.5
t32.5 -13.5q22 -12 34 -12q10 0 15.5 5.5t8.5 20.5h81q-16 -68 -35 -100t-60 -32q-16 0 -29 4.5z" />
    <glyph glyph-name="adieresis" unicode="&#xe4;" horiz-adv-x="436" 
d="M18.5 28.5q-32.5 37.5 -32.5 95.5q0 90 65 149.5t218 99.5l6 30q4 19 4 34t-4 23q-9 22 -36 22q-19 0 -31 -12t-16 -32q-3 -18 -2 -35h-131q2 27 5 45q12 67 61.5 106.5t126.5 39.5q54 0 93.5 -18t59.5 -53q17 -29 17 -74q0 -31 -9 -75l-78 -374h-137l12 58h-3
q-21 -35 -44.5 -51t-57.5 -16q-54 0 -86.5 37.5zM141 115q11 -13 31 -13q40 0 52 58l23 110q-62 -23 -89.5 -52.5t-27.5 -67.5q0 -22 11 -35zM128.5 652q-20.5 18 -20.5 45q0 30 22 51t56 21q30 0 49.5 -18t19.5 -46q0 -30 -21.5 -50.5t-54.5 -20.5q-30 0 -50.5 18z
M317.5 652q-20.5 18 -20.5 45q0 30 22 51t56 21q30 0 49.5 -18t19.5 -46q0 -30 -21.5 -50.5t-54.5 -20.5q-30 0 -50.5 18z" />
    <glyph glyph-name="aring" unicode="&#xe5;" horiz-adv-x="436" 
d="M18.5 28.5q-32.5 37.5 -32.5 95.5q0 90 65 149.5t218 99.5l6 30q4 19 4 34t-4 23q-9 22 -36 22q-19 0 -31 -12t-16 -32q-3 -18 -2 -35h-131q2 27 5 45q12 67 61.5 106.5t126.5 39.5q54 0 93.5 -18t59.5 -53q17 -29 17 -74q0 -31 -9 -75l-78 -374h-137l12 58h-3
q-21 -35 -44.5 -51t-57.5 -16q-54 0 -86.5 37.5zM141 115q11 -13 31 -13q40 0 52 58l23 110q-62 -23 -89.5 -52.5t-27.5 -67.5q0 -22 11 -35zM222 639q-29 27 -29 66q0 41 28.5 68t73.5 27t73.5 -27t28.5 -68q0 -40 -28.5 -66.5t-73.5 -26.5q-44 0 -73 27zM315 683.5
q8 8.5 8 21.5q0 14 -8 23t-20 9t-20 -9t-8 -23q0 -13 8 -21.5t20 -8.5t20 8.5z" />
    <glyph glyph-name="ae" unicode="&#xe6;" horiz-adv-x="659" 
d="M317 4q-39 17 -58 46l-5 8h-2q-22 -33 -55.5 -50t-72.5 -17q-64 0 -101 39.5t-37 93.5q0 90 65 149t217 97l7 33q4 19 4 34t-4 23q-9 22 -35 22q-20 0 -32 -12t-16 -32q-4 -18 -2 -33h-131q1 19 6 43q12 67 61 106.5t125 39.5q40 0 70.5 -13t48.5 -35q45 48 123 48
q84 0 128 -49q35 -38 35 -100q0 -28 -8 -68l-24 -115h-236l-18 -84q-3 -16 -3 -29q0 -20 7 -30q14 -18 43 -18q30 0 42.5 20.5t13.5 63.5h135q-16 -101 -61.5 -149.5t-140.5 -48.5q-50 0 -89 17zM141 115q11 -13 31 -13q40 0 52 58l23 108q-117 -39 -117 -118q0 -22 11 -35z
M506 353l12 58q4 16 4 30q0 17 -7 27q-10 16 -36 16q-45 0 -58 -62l-14 -69h99z" />
    <glyph glyph-name="ccedilla" unicode="&#xe7;" horiz-adv-x="421" 
d="M64 -166l14 72q20 -6 40 -6q16 0 22 4t6 13q0 19 -35 29l13 48q-64 17 -97 68q-21 33 -21 82q0 33 9 76l43 204q17 81 68 125.5t137 44.5q72 0 118 -36.5t46 -107.5q0 -32 -10 -79h-132q12 38 12 66q0 47 -40 47q-23 0 -36 -16.5t-20 -50.5l-51 -239q-4 -17 -4 -31
q0 -15 6 -26q11 -20 39 -20q27 0 39 23t14 73h137q-11 -100 -54 -153t-131 -57l-4 -13q28 -12 45 -30t17 -40q0 -36 -30 -56t-89 -20q-42 0 -71 6z" />
    <glyph glyph-name="egrave" unicode="&#xe8;" horiz-adv-x="438" 
d="M92.5 5q-39.5 18 -60.5 49q-26 37 -26 91q0 31 9 73l41 197q17 83 71.5 131t140.5 48q43 0 77 -13t56 -37q35 -38 35 -100q0 -27 -8 -67l-24 -116h-237l-17 -83q-3 -16 -3 -29q0 -20 7 -30q14 -18 41 -18q30 0 42.5 20.5t13.5 63.5h135q-16 -102 -61.5 -150t-140.5 -48
q-52 0 -91.5 18zM286 352l12 59q4 16 4 30q0 17 -7 27q-10 16 -36 16q-45 0 -58 -62l-15 -70h100zM167 773h132l36 -142h-104z" />
    <glyph glyph-name="eacute" unicode="&#xe9;" horiz-adv-x="438" 
d="M92.5 5q-39.5 18 -60.5 49q-26 37 -26 91q0 31 9 73l41 197q17 83 71.5 131t140.5 48q43 0 77 -13t56 -37q35 -38 35 -100q0 -27 -8 -67l-24 -116h-237l-17 -83q-3 -16 -3 -29q0 -20 7 -30q14 -18 41 -18q30 0 42.5 20.5t13.5 63.5h135q-16 -102 -61.5 -150t-140.5 -48
q-52 0 -91.5 18zM286 352l12 59q4 16 4 30q0 17 -7 27q-10 16 -36 16q-45 0 -58 -62l-15 -70h100zM309 771h139l-110 -141h-110z" />
    <glyph glyph-name="ecircumflex" unicode="&#xea;" horiz-adv-x="438" 
d="M92.5 5q-39.5 18 -60.5 49q-26 37 -26 91q0 31 9 73l41 197q17 83 71.5 131t140.5 48q43 0 77 -13t56 -37q35 -38 35 -100q0 -27 -8 -67l-24 -116h-237l-17 -83q-3 -16 -3 -29q0 -20 7 -30q14 -18 41 -18q30 0 42.5 20.5t13.5 63.5h135q-16 -102 -61.5 -150t-140.5 -48
q-52 0 -91.5 18zM286 352l12 59q4 16 4 30q0 17 -7 27q-10 16 -36 16q-45 0 -58 -62l-15 -70h100zM247 772h131l49 -145h-102l-24 56h-4l-50 -56h-108z" />
    <glyph glyph-name="edieresis" unicode="&#xeb;" horiz-adv-x="438" 
d="M92.5 5q-39.5 18 -60.5 49q-26 37 -26 91q0 31 9 73l41 197q17 83 71.5 131t140.5 48q43 0 77 -13t56 -37q35 -38 35 -100q0 -27 -8 -67l-24 -116h-237l-17 -83q-3 -16 -3 -29q0 -20 7 -30q14 -18 41 -18q30 0 42.5 20.5t13.5 63.5h135q-16 -102 -61.5 -150t-140.5 -48
q-52 0 -91.5 18zM286 352l12 59q4 16 4 30q0 17 -7 27q-10 16 -36 16q-45 0 -58 -62l-15 -70h100zM149.5 652q-20.5 18 -20.5 45q0 30 22 51t56 21q30 0 49.5 -18t19.5 -46q0 -30 -21.5 -50.5t-54.5 -20.5q-30 0 -50.5 18zM338.5 652q-20.5 18 -20.5 45q0 30 22 51t56 21
q30 0 49.5 -18t19.5 -46q0 -30 -21.5 -50.5t-54.5 -20.5q-30 0 -50.5 18z" />
    <glyph glyph-name="igrave" unicode="&#xec;" horiz-adv-x="231" 
d="M105 581h144l-123 -581h-144zM87 771h132l16 -140h-104z" />
    <glyph glyph-name="iacute" unicode="&#xed;" horiz-adv-x="231" 
d="M105 581h144l-123 -581h-144zM189 771h139l-90 -141h-110z" />
    <glyph glyph-name="icircumflex" unicode="&#xee;" horiz-adv-x="231" 
d="M105 581h144l-123 -581h-144zM150 773h133l39 -145h-100l-17 57h-4l-43 -57h-106z" />
    <glyph glyph-name="idieresis" unicode="&#xef;" horiz-adv-x="231" 
d="M105 581h144l-123 -581h-144zM66 647q-20 18 -20 46q0 29 20.5 50t52.5 21q30 0 49 -18t19 -47q0 -30 -20 -50t-52 -20q-29 0 -49 18zM237 647q-20 18 -20 46q0 29 20.5 50t52.5 21q30 0 49 -18t19 -47q0 -30 -20 -50t-52 -20q-29 0 -49 18z" />
    <glyph glyph-name="eth" unicode="&#xf0;" horiz-adv-x="458" 
d="M40 49q-33 39 -33 103q0 27 8 67l46 213q16 75 55 112t98 37q40 0 67 -19t41 -50h3q0 50 -19 102l-128 -20l-15 76l108 17q-16 30 -37 60h145q16 -23 24 -38l76 12l16 -78l-59 -9q17 -57 17 -119q0 -75 -25 -197l-32 -153q-18 -86 -70 -132t-137 -46q-101 0 -149 62z
M231 112.5q13 13.5 19 42.5l49 230q5 23 5 32q0 22 -12.5 34.5t-33.5 12.5q-44 0 -56 -51l-53 -241q-3 -13 -3 -24q0 -15 7 -27q14 -22 42 -22q23 0 36 13.5z" />
    <glyph glyph-name="ntilde" unicode="&#xf1;" horiz-adv-x="466" 
d="M103 581h139l-13 -62h4q40 74 120 74q55 0 84 -37q24 -30 24 -79q0 -24 -6 -54l-90 -423h-144l84 394q5 24 5 38q0 19 -10.5 29t-27.5 10q-47 0 -62 -67l-86 -404h-144zM333 639.5q-13 4.5 -32 13.5q-9 5 -19 8.5t-17 3.5q-10 0 -15.5 -5.5t-8.5 -20.5h-81q14 66 34 99
t61 33q17 0 30.5 -4.5t32.5 -13.5q22 -12 34 -12q10 0 15.5 5.5t8.5 20.5h81q-16 -68 -35 -100t-60 -32q-16 0 -29 4.5z" />
    <glyph glyph-name="ograve" unicode="&#xf2;" horiz-adv-x="454" 
d="M41 49q-33 39 -33 103q0 27 8 67l41 197q18 83 71.5 130.5t136.5 47.5q49 0 87 -16t61 -45q33 -44 33 -106q0 -27 -8 -67l-41 -195q-18 -86 -70 -132t-137 -46q-101 0 -149 62zM232 112.5q13 13.5 19 42.5l52 249q4 22 4 28q0 14 -7 28q-12 22 -41 22q-22 0 -36.5 -14.5
t-19.5 -41.5l-53 -254q-3 -13 -3 -24q0 -15 7 -27q14 -22 42 -22q23 0 36 13.5zM167 773h132l36 -142h-104z" />
    <glyph glyph-name="oacute" unicode="&#xf3;" horiz-adv-x="454" 
d="M41 49q-33 39 -33 103q0 27 8 67l41 197q18 83 71.5 130.5t136.5 47.5q49 0 87 -16t61 -45q33 -44 33 -106q0 -27 -8 -67l-41 -195q-18 -86 -70 -132t-137 -46q-101 0 -149 62zM232 112.5q13 13.5 19 42.5l52 249q4 22 4 28q0 14 -7 28q-12 22 -41 22q-22 0 -36.5 -14.5
t-19.5 -41.5l-53 -254q-3 -13 -3 -24q0 -15 7 -27q14 -22 42 -22q23 0 36 13.5zM309 771h139l-110 -141h-110z" />
    <glyph glyph-name="ocircumflex" unicode="&#xf4;" horiz-adv-x="454" 
d="M41 49q-33 39 -33 103q0 27 8 67l41 197q18 83 71.5 130.5t136.5 47.5q49 0 87 -16t61 -45q33 -44 33 -106q0 -27 -8 -67l-41 -195q-18 -86 -70 -132t-137 -46q-101 0 -149 62zM232 112.5q13 13.5 19 42.5l52 249q4 22 4 28q0 14 -7 28q-12 22 -41 22q-22 0 -36.5 -14.5
t-19.5 -41.5l-53 -254q-3 -13 -3 -24q0 -15 7 -27q14 -22 42 -22q23 0 36 13.5zM247 772h131l49 -145h-102l-24 56h-4l-50 -56h-108z" />
    <glyph glyph-name="otilde" unicode="&#xf5;" horiz-adv-x="454" 
d="M41 49q-33 39 -33 103q0 27 8 67l41 197q18 83 71.5 130.5t136.5 47.5q49 0 87 -16t61 -45q33 -44 33 -106q0 -27 -8 -67l-41 -195q-18 -86 -70 -132t-137 -46q-101 0 -149 62zM232 112.5q13 13.5 19 42.5l52 249q4 22 4 28q0 14 -7 28q-12 22 -41 22q-22 0 -36.5 -14.5
t-19.5 -41.5l-53 -254q-3 -13 -3 -24q0 -15 7 -27q14 -22 42 -22q23 0 36 13.5zM319 639.5q-13 4.5 -32 13.5q-9 5 -19 8.5t-17 3.5q-10 0 -15.5 -5.5t-8.5 -20.5h-81q14 66 34 99t61 33q17 0 30.5 -4.5t32.5 -13.5q22 -12 34 -12q10 0 15.5 5.5t8.5 20.5h81
q-16 -68 -35 -100t-60 -32q-16 0 -29 4.5z" />
    <glyph glyph-name="odieresis" unicode="&#xf6;" horiz-adv-x="454" 
d="M41 49q-33 39 -33 103q0 27 8 67l41 197q18 83 71.5 130.5t136.5 47.5q49 0 87 -16t61 -45q33 -44 33 -106q0 -27 -8 -67l-41 -195q-18 -86 -70 -132t-137 -46q-101 0 -149 62zM232 112.5q13 13.5 19 42.5l52 249q4 22 4 28q0 14 -7 28q-12 22 -41 22q-22 0 -36.5 -14.5
t-19.5 -41.5l-53 -254q-3 -13 -3 -24q0 -15 7 -27q14 -22 42 -22q23 0 36 13.5zM149.5 652q-20.5 18 -20.5 45q0 30 22 51t56 21q30 0 49.5 -18t19.5 -46q0 -30 -21.5 -50.5t-54.5 -20.5q-30 0 -50.5 18zM338.5 652q-20.5 18 -20.5 45q0 30 22 51t56 21q30 0 49.5 -18
t19.5 -46q0 -30 -21.5 -50.5t-54.5 -20.5q-30 0 -50.5 18z" />
    <glyph glyph-name="divide" unicode="&#xf7;" 
d="M65 401h378l-23 -110h-378zM155.5 112.5q-22.5 22.5 -22.5 55.5q0 35 23.5 58t57.5 23q33 0 55.5 -22.5t22.5 -55.5q0 -34 -23 -57.5t-58 -23.5q-33 0 -55.5 22.5zM218.5 463.5q-22.5 22.5 -22.5 55.5q0 35 23.5 58t57.5 23q33 0 55.5 -22.5t22.5 -55.5q0 -34 -23 -57.5
t-58 -23.5q-33 0 -55.5 22.5z" />
    <glyph glyph-name="oslash" unicode="&#xf8;" horiz-adv-x="456" 
d="M86 14l-28 -42h-103l73 106q-18 35 -18 80q0 30 7 61l41 197q18 83 71.5 130.5t136.5 47.5q61 0 105 -26l27 41h103l-73 -107q18 -38 18 -81q0 -30 -7 -61l-41 -195q-18 -86 -70 -132t-137 -46q-63 0 -105 27zM238 108.5q15 14.5 23 46.5l43 187l-157 -227
q8 -11 19.5 -16t28.5 -5q28 0 43 14.5zM309 465q-15 22 -49 22q-25 0 -41.5 -16t-23.5 -45l-45 -192z" />
    <glyph glyph-name="ugrave" unicode="&#xf9;" 
d="M64.5 1q-26.5 12 -41.5 34q-19 27 -19 66q0 22 6 49l91 431h144l-86 -413q-3 -15 -3 -24q0 -12 5 -22q4 -8 14 -12.5t22 -4.5q22 0 34.5 15t19.5 47l87 414h144l-123 -581h-137l12 59h-3q-21 -37 -45 -53.5t-62 -16.5q-33 0 -59.5 12zM182 773h132l36 -142h-104z" />
    <glyph glyph-name="uacute" unicode="&#xfa;" 
d="M64.5 1q-26.5 12 -41.5 34q-19 27 -19 66q0 22 6 49l91 431h144l-86 -413q-3 -15 -3 -24q0 -12 5 -22q4 -8 14 -12.5t22 -4.5q22 0 34.5 15t19.5 47l87 414h144l-123 -581h-137l12 59h-3q-21 -37 -45 -53.5t-62 -16.5q-33 0 -59.5 12zM324 771h139l-110 -141h-110z" />
    <glyph glyph-name="ucircumflex" unicode="&#xfb;" 
d="M64.5 1q-26.5 12 -41.5 34q-19 27 -19 66q0 22 6 49l91 431h144l-86 -413q-3 -15 -3 -24q0 -12 5 -22q4 -8 14 -12.5t22 -4.5q22 0 34.5 15t19.5 47l87 414h144l-123 -581h-137l12 59h-3q-21 -37 -45 -53.5t-62 -16.5q-33 0 -59.5 12zM262 772h131l49 -145h-102l-24 56
h-4l-50 -56h-108z" />
    <glyph glyph-name="udieresis" unicode="&#xfc;" 
d="M64.5 1q-26.5 12 -41.5 34q-19 27 -19 66q0 22 6 49l91 431h144l-86 -413q-3 -15 -3 -24q0 -12 5 -22q4 -8 14 -12.5t22 -4.5q22 0 34.5 15t19.5 47l87 414h144l-123 -581h-137l12 59h-3q-21 -37 -45 -53.5t-62 -16.5q-33 0 -59.5 12zM164.5 652q-20.5 18 -20.5 45
q0 30 22 51t56 21q30 0 49.5 -18t19.5 -46q0 -30 -21.5 -50.5t-54.5 -20.5q-30 0 -50.5 18zM353.5 652q-20.5 18 -20.5 45q0 30 22 51t56 21q30 0 49.5 -18t19.5 -46q0 -30 -21.5 -50.5t-54.5 -20.5q-30 0 -50.5 18z" />
    <glyph glyph-name="yacute" unicode="&#xfd;" horiz-adv-x="409" 
d="M-46 -166l27 122q22 -11 47 -11q26 0 40 10.5t26 39.5l23 59h-49l-1 527h141l-23 -383h5l129 383h145l-243 -604q-33 -82 -77.5 -115.5t-124.5 -33.5q-35 0 -65 6zM297 771h139l-110 -141h-110z" />
    <glyph glyph-name="thorn" unicode="&#xfe;" horiz-adv-x="465" 
d="M180.5 8q-29.5 17 -43.5 46h-2l-47 -220h-144l196 913h144l-47 -223h2q17 29 48 47.5t68 18.5q60 0 91 -45q21 -30 21 -77q0 -29 -7 -60l-60 -278q-15 -70 -52.5 -104.5t-94.5 -34.5q-43 0 -72.5 17zM241.5 117q14.5 13 19.5 38l51 238q4 16 4 31q0 19 -8 32
q-12 18 -37 18q-45 0 -58 -59l-51 -239q-3 -15 -3 -26q0 -18 8 -29q12 -17 39 -17q21 0 35.5 13z" />
    <glyph glyph-name="ydieresis" unicode="&#xff;" horiz-adv-x="409" 
d="M-46 -166l27 122q22 -11 47 -11q26 0 40 10.5t26 39.5l23 59h-49l-1 527h141l-23 -383h5l129 383h145l-243 -604q-33 -82 -77.5 -115.5t-124.5 -33.5q-35 0 -65 6zM137.5 652q-20.5 18 -20.5 45q0 30 22 51t56 21q30 0 49.5 -18t19.5 -46q0 -30 -21.5 -50.5t-54.5 -20.5
q-30 0 -50.5 18zM326.5 652q-20.5 18 -20.5 45q0 30 22 51t56 21q30 0 49.5 -18t19.5 -46q0 -30 -21.5 -50.5t-54.5 -20.5q-30 0 -50.5 18z" />
    <glyph glyph-name="Amacron" unicode="&#x100;" horiz-adv-x="505" 
d="M256 747h186l-8 -747h-148l6 160h-136l-62 -160h-147zM301 280l16 296h-4l-114 -296h102zM248 916h261l-22 -102h-261z" />
    <glyph glyph-name="amacron" unicode="&#x101;" horiz-adv-x="436" 
d="M18.5 28.5q-32.5 37.5 -32.5 95.5q0 90 65 149.5t218 99.5l6 30q4 19 4 34t-4 23q-9 22 -36 22q-19 0 -31 -12t-16 -32q-3 -18 -2 -35h-131q2 27 5 45q12 67 61.5 106.5t126.5 39.5q54 0 93.5 -18t59.5 -53q17 -29 17 -74q0 -31 -9 -75l-78 -374h-137l12 58h-3
q-21 -35 -44.5 -51t-57.5 -16q-54 0 -86.5 37.5zM141 115q11 -13 31 -13q40 0 52 58l23 110q-62 -23 -89.5 -52.5t-27.5 -67.5q0 -22 11 -35zM173 743h235l-22 -98h-235z" />
    <glyph glyph-name="Abreve" unicode="&#x102;" horiz-adv-x="505" 
d="M256 747h186l-8 -747h-148l6 160h-136l-62 -160h-147zM301 280l16 296h-4l-114 -296h102zM264.5 818.5q-38.5 29.5 -38.5 80.5q0 18 4 34h111q-4 -13 -4 -27q0 -31 33 -31q20 0 29.5 13.5t11.5 44.5h112q-12 -76 -48 -110t-108 -34q-64 0 -102.5 29.5z" />
    <glyph glyph-name="abreve" unicode="&#x103;" horiz-adv-x="436" 
d="M18.5 28.5q-32.5 37.5 -32.5 95.5q0 90 65 149.5t218 99.5l6 30q4 19 4 34t-4 23q-9 22 -36 22q-19 0 -31 -12t-16 -32q-3 -18 -2 -35h-131q2 27 5 45q12 67 61.5 106.5t126.5 39.5q54 0 93.5 -18t59.5 -53q17 -29 17 -74q0 -31 -9 -75l-78 -374h-137l12 58h-3
q-21 -35 -44.5 -51t-57.5 -16q-54 0 -86.5 37.5zM141 115q11 -13 31 -13q40 0 52 58l23 110q-62 -23 -89.5 -52.5t-27.5 -67.5q0 -22 11 -35zM185 656q-37 31 -37 86q0 16 3 32h108q-3 -15 -3 -27q0 -36 31 -36q18 0 26.5 15t9.5 48h109q-11 -78 -45 -113.5t-103 -35.5
q-62 0 -99 31z" />
    <glyph glyph-name="Aogonek" unicode="&#x104;" horiz-adv-x="505" 
d="M256 747h186l-8 -747h-148l6 160h-136l-62 -160h-147zM301 280l16 296h-4l-114 -296h102zM257 -99q0 30 22.5 52.5t72.5 44.5v2h82q-34 -20 -46.5 -33t-12.5 -26q0 -20 28 -20l13 1l-18 -90l-21 -1q-120 0 -120 70z" />
    <glyph glyph-name="aogonek" unicode="&#x105;" horiz-adv-x="436" 
d="M18.5 28.5q-32.5 37.5 -32.5 95.5q0 90 65 149.5t218 99.5l6 30q4 19 4 34t-4 23q-9 22 -36 22q-19 0 -31 -12t-16 -32q-3 -18 -2 -35h-131q2 27 5 45q12 67 61.5 106.5t126.5 39.5q54 0 93.5 -18t59.5 -53q17 -29 17 -74q0 -31 -9 -75l-78 -374q-32 -21 -44.5 -35
t-12.5 -27q0 -21 26 -21l13 1l-18 -86l-21 -1q-113 0 -113 71q0 30 22 52t70 44v2h-59l12 58h-3q-21 -35 -44.5 -51t-57.5 -16q-54 0 -86.5 37.5zM141 115q11 -13 31 -13q40 0 52 58l23 110q-62 -23 -89.5 -52.5t-27.5 -67.5q0 -22 11 -35z" />
    <glyph glyph-name="Cacute" unicode="&#x106;" horiz-adv-x="480" 
d="M102 11.5q-47 24.5 -70 70.5q-18 36 -18 80q0 34 11 87l66 310q43 201 233 201q119 0 165 -79q22 -38 22 -96q0 -42 -12 -93h-145q14 47 14 79q0 65 -54 65q-28 0 -45 -17t-25 -54l-71 -330q-10 -44 -10 -62q0 -30 17 -46t46 -16q39 0 54 31.5t19 103.5h147
q-11 -95 -37 -151t-72.5 -82t-119.5 -26q-68 0 -115 24.5zM362 931h145l-118 -136h-116z" />
    <glyph glyph-name="cacute" unicode="&#x107;" horiz-adv-x="421" 
d="M90 6.5q-40 19.5 -63 55.5q-21 33 -21 82q0 33 9 76l43 204q17 81 68 125.5t137 44.5q72 0 118 -36.5t46 -107.5q0 -32 -10 -79h-132q12 38 12 66q0 47 -40 47q-23 0 -36 -16.5t-20 -50.5l-51 -239q-4 -17 -4 -31q0 -15 6 -26q11 -20 39 -20q27 0 39 23t14 73h137
q-12 -104 -57 -157t-141 -53q-53 0 -93 19.5zM306 771h139l-110 -141h-110z" />
    <glyph glyph-name="Cdotaccent" unicode="&#x10a;" horiz-adv-x="480" 
d="M102 11.5q-47 24.5 -70 70.5q-18 36 -18 80q0 34 11 87l66 310q43 201 233 201q119 0 165 -79q22 -38 22 -96q0 -42 -12 -93h-145q14 47 14 79q0 65 -54 65q-28 0 -45 -17t-25 -54l-71 -330q-10 -44 -10 -62q0 -30 17 -46t46 -16q39 0 54 31.5t19 103.5h147
q-11 -95 -37 -151t-72.5 -82t-119.5 -26q-68 0 -115 24.5zM293 810.5q-21 17.5 -21 45.5q0 31 22.5 52.5t57.5 21.5q32 0 51.5 -17.5t19.5 -45.5q0 -32 -21.5 -53t-56.5 -21q-31 0 -52 17.5z" />
    <glyph glyph-name="cdotaccent" unicode="&#x10b;" horiz-adv-x="421" 
d="M90 6.5q-40 19.5 -63 55.5q-21 33 -21 82q0 33 9 76l43 204q17 81 68 125.5t137 44.5q72 0 118 -36.5t46 -107.5q0 -32 -10 -79h-132q12 38 12 66q0 47 -40 47q-23 0 -36 -16.5t-20 -50.5l-51 -239q-4 -17 -4 -31q0 -15 6 -26q11 -20 39 -20q27 0 39 23t14 73h137
q-12 -104 -57 -157t-141 -53q-53 0 -93 19.5zM237 642q-22 19 -22 49q0 32 24 54.5t60 22.5q33 0 54 -19t21 -50q0 -33 -23 -54.5t-59 -21.5q-33 0 -55 19z" />
    <glyph glyph-name="Ccaron" unicode="&#x10c;" horiz-adv-x="480" 
d="M102 11.5q-47 24.5 -70 70.5q-18 36 -18 80q0 34 11 87l66 310q43 201 233 201q119 0 165 -79q22 -38 22 -96q0 -42 -12 -93h-145q14 47 14 79q0 65 -54 65q-28 0 -45 -17t-25 -54l-71 -330q-10 -44 -10 -62q0 -30 17 -46t46 -16q39 0 54 31.5t19 103.5h147
q-11 -95 -37 -151t-72.5 -82t-119.5 -26q-68 0 -115 24.5zM217 931h108l32 -50h3l56 50h114l-123 -136h-125z" />
    <glyph glyph-name="ccaron" unicode="&#x10d;" horiz-adv-x="421" 
d="M90 6.5q-40 19.5 -63 55.5q-21 33 -21 82q0 33 9 76l43 204q17 81 68 125.5t137 44.5q72 0 118 -36.5t46 -107.5q0 -32 -10 -79h-132q12 38 12 66q0 47 -40 47q-23 0 -36 -16.5t-20 -50.5l-51 -239q-4 -17 -4 -31q0 -15 6 -26q11 -20 39 -20q27 0 39 23t14 73h137
q-12 -104 -57 -157t-141 -53q-53 0 -93 19.5zM164 772h102l24 -56h4l50 56h108l-108 -145h-131z" />
    <glyph glyph-name="Dcaron" unicode="&#x10e;" horiz-adv-x="509" 
d="M145 747h157q63 0 105 -13.5t72 -43.5q45 -46 45 -128q0 -39 -11 -91l-54 -249q-26 -120 -94 -171t-198 -51h-184zM177 120q62 0 90.5 21.5t40.5 77.5l61 280q6 29 6 50q0 31 -14 51q-18 25 -69 25h-24l-109 -505h18zM210 931h108l32 -50h3l56 50h114l-123 -136h-125z
" />
    <glyph glyph-name="dcaron" unicode="&#x10f;" horiz-adv-x="463" 
d="M63 4q-26 13 -43 38q-21 30 -21 76q0 24 6 54l57 270q15 74 54.5 111.5t98.5 37.5q40 0 67 -19t41 -50h3l48 225h144l-158 -747h-136l12 57h-3q-22 -33 -48.5 -49.5t-62.5 -16.5q-33 0 -59 13zM228.5 118.5q14.5 13.5 19.5 37.5l52 239q5 23 5 32q0 22 -12.5 34.5
t-33.5 12.5t-36 -13t-20 -38l-54 -248q-3 -13 -3 -24q0 -17 9 -29q13 -17 38 -17q21 0 35.5 13.5zM564 747h130l-63 -164h-103z" />
    <glyph glyph-name="Dcroat" unicode="&#x110;" horiz-adv-x="520" 
d="M68 342h-54l23 109h55l64 296h157q63 0 105 -13.5t72 -43.5q45 -46 45 -128q0 -39 -11 -91l-54 -249q-26 -120 -94 -171t-198 -51h-184zM188 120q62 0 90.5 21.5t40.5 77.5l61 280q6 29 6 50q0 31 -14 51q-18 25 -69 25h-24l-38 -174h80l-23 -109h-80l-48 -222h18z" />
    <glyph glyph-name="dcroat" unicode="&#x111;" horiz-adv-x="463" 
d="M63 4q-26 13 -43 38q-21 30 -21 76q0 24 6 54l57 270q15 74 54.5 111.5t98.5 37.5q40 0 67 -19t41 -50h3l20 96h-109l17 83h110l10 46h144l-10 -47h54l-18 -86h-54l-130 -614h-136l12 57h-3q-22 -33 -48.5 -49.5t-62.5 -16.5q-33 0 -59 13zM228.5 118.5
q14.5 13.5 19.5 37.5l52 239q5 23 5 32q0 22 -12.5 34.5t-33.5 12.5t-36 -13t-20 -38l-54 -248q-3 -13 -3 -24q0 -17 9 -29q13 -17 38 -17q21 0 35.5 13.5z" />
    <glyph glyph-name="Emacron" unicode="&#x112;" horiz-adv-x="425" 
d="M143 747h354l-26 -122h-205l-37 -174h154l-23 -119h-157l-44 -210h207l-25 -122h-358zM214 916h261l-22 -102h-261z" />
    <glyph glyph-name="emacron" unicode="&#x113;" horiz-adv-x="438" 
d="M92.5 5q-39.5 18 -60.5 49q-26 37 -26 91q0 31 9 73l41 197q17 83 71.5 131t140.5 48q43 0 77 -13t56 -37q35 -38 35 -100q0 -27 -8 -67l-24 -116h-237l-17 -83q-3 -16 -3 -29q0 -20 7 -30q14 -18 41 -18q30 0 42.5 20.5t13.5 63.5h135q-16 -102 -61.5 -150t-140.5 -48
q-52 0 -91.5 18zM286 352l12 59q4 16 4 30q0 17 -7 27q-10 16 -36 16q-45 0 -58 -62l-15 -70h100zM194 743h235l-22 -98h-235z" />
    <glyph glyph-name="Edotaccent" unicode="&#x116;" horiz-adv-x="425" 
d="M143 747h354l-26 -122h-205l-37 -174h154l-23 -119h-157l-44 -210h207l-25 -122h-358zM271 810.5q-21 17.5 -21 45.5q0 31 22.5 52.5t57.5 21.5q32 0 51.5 -17.5t19.5 -45.5q0 -32 -21.5 -53t-56.5 -21q-31 0 -52 17.5z" />
    <glyph glyph-name="edotaccent" unicode="&#x117;" horiz-adv-x="438" 
d="M92.5 5q-39.5 18 -60.5 49q-26 37 -26 91q0 31 9 73l41 197q17 83 71.5 131t140.5 48q43 0 77 -13t56 -37q35 -38 35 -100q0 -27 -8 -67l-24 -116h-237l-17 -83q-3 -16 -3 -29q0 -20 7 -30q14 -18 41 -18q30 0 42.5 20.5t13.5 63.5h135q-16 -102 -61.5 -150t-140.5 -48
q-52 0 -91.5 18zM286 352l12 59q4 16 4 30q0 17 -7 27q-10 16 -36 16q-45 0 -58 -62l-15 -70h100zM240 642q-22 19 -22 49q0 32 24 54.5t60 22.5q33 0 54 -19t21 -50q0 -33 -23 -54.5t-59 -21.5q-33 0 -55 19z" />
    <glyph glyph-name="Eogonek" unicode="&#x118;" horiz-adv-x="425" 
d="M143 747h354l-26 -122h-205l-37 -174h154l-23 -119h-157l-44 -210h207l-25 -122q-34 -20 -46.5 -33t-12.5 -26q0 -20 28 -20l13 1l-18 -88l-21 -1q-120 0 -120 68q0 30 22.5 52.5t72.5 44.5v2h-276z" />
    <glyph glyph-name="eogonek" unicode="&#x119;" horiz-adv-x="436" 
d="M100 -99q0 25 19.5 46t60.5 40q-52 1 -89.5 18.5t-58.5 48.5q-26 37 -26 91q0 31 9 73l41 197q17 83 71.5 131t140.5 48q43 0 77 -13t56 -37q35 -38 35 -100q0 -27 -8 -67l-24 -116h-237l-17 -83q-3 -16 -3 -29q0 -20 7 -30q14 -18 41 -18q30 0 42.5 20.5t13.5 63.5h135
q-11 -70 -34 -113.5t-65 -64.5q-44 -26 -59 -41t-15 -28q0 -21 26 -21l13 1l-18 -86l-21 -1q-113 0 -113 70zM286 352l12 59q4 16 4 30q0 17 -7 27q-10 16 -36 16q-45 0 -58 -62l-15 -70h100z" />
    <glyph glyph-name="Ecaron" unicode="&#x11a;" horiz-adv-x="425" 
d="M143 747h354l-26 -122h-205l-37 -174h154l-23 -119h-157l-44 -210h207l-25 -122h-358zM195 931h108l32 -50h3l56 50h114l-123 -136h-125z" />
    <glyph glyph-name="ecaron" unicode="&#x11b;" horiz-adv-x="438" 
d="M92.5 5q-39.5 18 -60.5 49q-26 37 -26 91q0 31 9 73l41 197q17 83 71.5 131t140.5 48q43 0 77 -13t56 -37q35 -38 35 -100q0 -27 -8 -67l-24 -116h-237l-17 -83q-3 -16 -3 -29q0 -20 7 -30q14 -18 41 -18q30 0 42.5 20.5t13.5 63.5h135q-16 -102 -61.5 -150t-140.5 -48
q-52 0 -91.5 18zM286 352l12 59q4 16 4 30q0 17 -7 27q-10 16 -36 16q-45 0 -58 -62l-15 -70h100zM167 772h102l24 -56h4l50 56h108l-108 -145h-131z" />
    <glyph glyph-name="Gbreve" unicode="&#x11e;" horiz-adv-x="501" 
d="M119 10q-50 23 -76 66q-26 42 -26 98q0 38 10 84l65 300q22 101 81.5 151.5t153.5 50.5q105 0 156 -62q35 -42 35 -115q0 -34 -6 -60h-144q9 29 9 52q0 29 -15 45t-43 16q-31 0 -50 -19.5t-27 -60.5l-71 -334q-6 -25 -6 -43q0 -17 7 -31q20 -39 71 -39q28 0 47 11l37 175
h-80l22 118h225l-76 -353q-68 -73 -180 -73q-69 0 -119 23zM253.5 818.5q-38.5 29.5 -38.5 80.5q0 18 4 34h111q-4 -13 -4 -27q0 -31 33 -31q20 0 29.5 13.5t11.5 44.5h112q-12 -76 -48 -110t-108 -34q-64 0 -102.5 29.5z" />
    <glyph glyph-name="gbreve" unicode="&#x11f;" horiz-adv-x="463" 
d="M14.5 -133.5q-48.5 45.5 -46.5 122.5h139l-2 -14q0 -14 7 -24q13 -19 42 -19q25 0 38.5 13t20.5 43l23 105h-3q-15 -26 -41.5 -43t-64.5 -17q-31 0 -57.5 11.5t-42.5 33.5q-21 29 -21 71q0 23 8 60l52 239q32 143 148 143q82 0 113 -73h2l14 63h139l-125 -594
q-18 -86 -65.5 -126t-135.5 -40q-93 0 -141.5 45.5zM256 199l44 202q3 14 3 24q0 15 -7 27q-12 20 -38 20q-43 0 -55 -55l-43 -203q-3 -13 -3 -24q0 -19 9 -30q13 -15 37 -15q41 0 53 54zM222 656q-37 31 -37 86q0 16 3 32h108q-3 -15 -3 -27q0 -36 31 -36q18 0 26.5 15
t9.5 48h109q-11 -78 -45 -113.5t-103 -35.5q-62 0 -99 31z" />
    <glyph glyph-name="Gdotaccent" unicode="&#x120;" horiz-adv-x="501" 
d="M119 10q-50 23 -76 66q-26 42 -26 98q0 38 10 84l65 300q22 101 81.5 151.5t153.5 50.5q105 0 156 -62q35 -42 35 -115q0 -34 -6 -60h-144q9 29 9 52q0 29 -15 45t-43 16q-31 0 -50 -19.5t-27 -60.5l-71 -334q-6 -25 -6 -43q0 -17 7 -31q20 -39 71 -39q28 0 47 11l37 175
h-80l22 118h225l-76 -353q-68 -73 -180 -73q-69 0 -119 23zM294 810.5q-21 17.5 -21 45.5q0 31 22.5 52.5t57.5 21.5q32 0 51.5 -17.5t19.5 -45.5q0 -32 -21.5 -53t-56.5 -21q-31 0 -52 17.5z" />
    <glyph glyph-name="gdotaccent" unicode="&#x121;" horiz-adv-x="463" 
d="M14.5 -133.5q-48.5 45.5 -46.5 122.5h139l-2 -14q0 -14 7 -24q13 -19 42 -19q25 0 38.5 13t20.5 43l23 105h-3q-15 -26 -41.5 -43t-64.5 -17q-31 0 -57.5 11.5t-42.5 33.5q-21 29 -21 71q0 23 8 60l52 239q32 143 148 143q82 0 113 -73h2l14 63h139l-125 -594
q-18 -86 -65.5 -126t-135.5 -40q-93 0 -141.5 45.5zM256 199l44 202q3 14 3 24q0 15 -7 27q-12 20 -38 20q-43 0 -55 -55l-43 -203q-3 -13 -3 -24q0 -19 9 -30q13 -15 37 -15q41 0 53 54zM260 642q-22 19 -22 49q0 32 24 54.5t60 22.5q33 0 54 -19t21 -50q0 -33 -23 -54.5
t-59 -21.5q-33 0 -55 19z" />
    <glyph glyph-name="uni0122" unicode="&#x122;" horiz-adv-x="501" 
d="M119 10q-50 23 -76 66q-26 42 -26 98q0 38 10 84l65 300q22 101 81.5 151.5t153.5 50.5q105 0 156 -62q35 -42 35 -115q0 -34 -6 -60h-144q9 29 9 52q0 29 -15 45t-43 16q-31 0 -50 -19.5t-27 -60.5l-71 -334q-6 -25 -6 -43q0 -17 7 -31q20 -39 71 -39q28 0 47 11l37 175
h-80l22 118h225l-76 -353q-68 -73 -180 -73q-69 0 -119 23zM128 -40h131l-72 -141h-103z" />
    <glyph glyph-name="uni0123" unicode="&#x123;" horiz-adv-x="463" 
d="M14.5 -133.5q-48.5 45.5 -46.5 122.5h139l-2 -14q0 -14 7 -24q13 -19 42 -19q25 0 38.5 13t20.5 43l23 105h-3q-15 -26 -41.5 -43t-64.5 -17q-31 0 -57.5 11.5t-42.5 33.5q-21 29 -21 71q0 23 8 60l52 239q32 143 148 143q82 0 113 -73h2l14 63h139l-125 -594
q-18 -86 -65.5 -126t-135.5 -40q-93 0 -141.5 45.5zM256 199l44 202q3 14 3 24q0 15 -7 27q-12 20 -38 20q-43 0 -55 -55l-43 -203q-3 -13 -3 -24q0 -19 9 -30q13 -15 37 -15q41 0 53 54zM325 773h103l-44 -141h-131z" />
    <glyph glyph-name="Hbar" unicode="&#x126;" horiz-adv-x="536" 
d="M110 548h-53l22 105h54l20 94h149l-20 -94h127l20 94h149l-20 -94h53l-22 -105h-54l-119 -548h-149l71 326h-127l-71 -326h-149zM365 451l21 97h-127l-21 -97h127z" />
    <glyph glyph-name="hbar" unicode="&#x127;" horiz-adv-x="468" 
d="M75 700h55l10 47h145l-10 -46h107l-18 -83h-107l-21 -95h3q19 32 48.5 51t68.5 19q54 0 83 -37q24 -30 24 -79q0 -24 -6 -54l-91 -423h-144l85 394q5 24 5 38q0 19 -10.5 29t-27.5 10q-47 0 -62 -67l-87 -404h-144l131 614h-55z" />
    <glyph glyph-name="Imacron" unicode="&#x12a;" horiz-adv-x="243" 
d="M144 747h149l-159 -747h-149zM121 916h261l-22 -102h-261z" />
    <glyph glyph-name="imacron" unicode="&#x12b;" horiz-adv-x="231" 
d="M105 581h144l-123 -581h-144zM95 749h235l-22 -101h-235z" />
    <glyph glyph-name="Ibreve" unicode="&#x12c;" horiz-adv-x="243" 
d="M144 747h149l-159 -747h-149zM137.5 818.5q-38.5 29.5 -38.5 80.5q0 18 4 34h111q-4 -13 -4 -27q0 -31 33 -31q20 0 29.5 13.5t11.5 44.5h112q-12 -76 -48 -110t-108 -34q-64 0 -102.5 29.5z" />
    <glyph glyph-name="ibreve" unicode="&#x12d;" horiz-adv-x="231" 
d="M105 581h144l-123 -581h-144zM99.5 655.5q-35.5 30.5 -35.5 83.5q0 19 4 35h108q-4 -24 -4 -31q0 -32 25 -32q16 0 23.5 15t9.5 48h109q-12 -79 -45.5 -114t-99.5 -35q-59 0 -94.5 30.5z" />
    <glyph glyph-name="Iogonek" unicode="&#x12e;" horiz-adv-x="243" 
d="M144 747h149l-159 -747h-149zM-43 -99q0 30 22.5 52.5t72.5 44.5v2h82q-34 -20 -46.5 -33t-12.5 -26q0 -20 28 -20l13 1l-18 -90l-21 -1q-120 0 -120 70z" />
    <glyph glyph-name="iogonek" unicode="&#x12f;" horiz-adv-x="231" 
d="M-43 -98q0 30 22 52t70 44v2h78q-32 -21 -44.5 -35t-12.5 -27q0 -21 26 -21l13 1l-18 -86l-21 -1q-113 0 -113 71zM105 581h144l-123 -581h-144zM138 642q-22 19 -22 49q0 32 24 54.5t60 22.5q33 0 54 -19t21 -50q0 -33 -23 -54.5t-59 -21.5q-33 0 -55 19z" />
    <glyph glyph-name="Idotaccent" unicode="&#x130;" horiz-adv-x="243" 
d="M144 747h149l-159 -747h-149zM178 810.5q-21 17.5 -21 45.5q0 31 22.5 52.5t57.5 21.5q32 0 51.5 -17.5t19.5 -45.5q0 -32 -21.5 -53t-56.5 -21q-31 0 -52 17.5z" />
    <glyph glyph-name="dotlessi" unicode="&#x131;" horiz-adv-x="231" 
d="M105 581h144l-123 -581h-144z" />
    <glyph glyph-name="uni0136" unicode="&#x136;" horiz-adv-x="497" 
d="M142 747h149l-68 -318h4l206 318h155l-222 -336l60 -411h-150l-41 314l-56 -82l-49 -232h-147zM123 -40h131l-72 -141h-103z" />
    <glyph glyph-name="uni0137" unicode="&#x137;" horiz-adv-x="452" 
d="M138 747h144l-86 -399h5l160 233h149l-174 -245l49 -336h-143l-28 248l-57 -76l-37 -172h-141zM94 -40h131l-72 -141h-103z" />
    <glyph glyph-name="Lacute" unicode="&#x139;" horiz-adv-x="408" 
d="M143 747h149l-132 -621h197l-26 -126h-348zM258 931h145l-118 -136h-116z" />
    <glyph glyph-name="lacute" unicode="&#x13a;" horiz-adv-x="242" 
d="M40 24.5q-35 27.5 -35 75.5q0 20 7 57l125 590h143l-126 -596q-2 -10 -2 -15q0 -24 29 -24q8 0 14 2l-25 -114q-15 -3 -33 -3q-62 0 -97 27.5zM249 931h145l-118 -136h-116z" />
    <glyph glyph-name="uni013B" unicode="&#x13b;" horiz-adv-x="408" 
d="M143 747h149l-132 -621h197l-26 -126h-348zM85 -40h131l-72 -141h-103z" />
    <glyph glyph-name="uni013C" unicode="&#x13c;" horiz-adv-x="242" 
d="M40 24.5q-35 27.5 -35 75.5q0 20 7 57l125 590h143l-126 -596q-2 -10 -2 -15q0 -24 29 -24q8 0 14 2l-25 -114q-15 -3 -33 -3q-62 0 -97 27.5zM4 -40h131l-72 -141h-103z" />
    <glyph glyph-name="Lcaron" unicode="&#x13d;" horiz-adv-x="408" 
d="M143 747h149l-132 -621h197l-26 -126h-348zM364 747h130l-63 -164h-103z" />
    <glyph glyph-name="lcaron" unicode="&#x13e;" horiz-adv-x="242" 
d="M40 24.5q-35 27.5 -35 75.5q0 20 7 57l125 590h143l-126 -596q-2 -10 -2 -15q0 -24 29 -24q8 0 14 2l-25 -114q-15 -3 -33 -3q-62 0 -97 27.5zM321 747h130l-63 -164h-103z" />
    <glyph glyph-name="Lslash" unicode="&#x141;" horiz-adv-x="417" 
d="M65 339l-56 -26l27 123l55 24l61 287h149l-48 -224l138 64l-27 -123l-137 -63l-58 -275h197l-26 -126h-348z" />
    <glyph glyph-name="lslash" unicode="&#x142;" horiz-adv-x="273" 
d="M41 468l53 24l54 255h143l-41 -192l68 32l-25 -119l-68 -32l-60 -285q-2 -10 -2 -15q0 -24 29 -24q8 0 14 2l-25 -114q-15 -3 -33 -3q-62 0 -97 27.5t-35 75.5q0 20 7 57l46 217l-53 -26z" />
    <glyph glyph-name="Nacute" unicode="&#x143;" horiz-adv-x="522" 
d="M145 747h167l42 -447h4l84 447h132l-161 -747h-140l-51 489h-4l-101 -489h-134zM397 931h145l-118 -136h-116z" />
    <glyph glyph-name="nacute" unicode="&#x144;" horiz-adv-x="466" 
d="M103 581h139l-13 -62h4q40 74 120 74q55 0 84 -37q24 -30 24 -79q0 -24 -6 -54l-90 -423h-144l84 394q5 24 5 38q0 19 -10.5 29t-27.5 10q-47 0 -62 -67l-86 -404h-144zM323 771h139l-110 -141h-110z" />
    <glyph glyph-name="uni0145" unicode="&#x145;" horiz-adv-x="522" 
d="M145 747h167l42 -447h4l84 447h132l-161 -747h-140l-51 489h-4l-101 -489h-134zM139 -40h131l-72 -141h-103z" />
    <glyph glyph-name="uni0146" unicode="&#x146;" horiz-adv-x="466" 
d="M103 581h139l-13 -62h4q40 74 120 74q55 0 84 -37q24 -30 24 -79q0 -24 -6 -54l-90 -423h-144l84 394q5 24 5 38q0 19 -10.5 29t-27.5 10q-47 0 -62 -67l-86 -404h-144zM102 -40h131l-72 -141h-103z" />
    <glyph glyph-name="Ncaron" unicode="&#x147;" horiz-adv-x="522" 
d="M145 747h167l42 -447h4l84 447h132l-161 -747h-140l-51 489h-4l-101 -489h-134zM252 931h108l32 -50h3l56 50h114l-123 -136h-125z" />
    <glyph glyph-name="ncaron" unicode="&#x148;" horiz-adv-x="466" 
d="M103 581h139l-13 -62h4q40 74 120 74q55 0 84 -37q24 -30 24 -79q0 -24 -6 -54l-90 -423h-144l84 394q5 24 5 38q0 19 -10.5 29t-27.5 10q-47 0 -62 -67l-86 -404h-144zM181 772h102l24 -56h4l50 56h108l-108 -145h-131z" />
    <glyph glyph-name="Omacron" unicode="&#x14c;" horiz-adv-x="510" 
d="M110.5 10.5q-47.5 23.5 -73.5 68.5q-21 36 -21 88q0 39 12 94l64 297q43 202 235 202q112 0 166 -72q34 -48 34 -116q0 -45 -13 -103l-63 -289q-21 -94 -77.5 -143.5t-150.5 -49.5q-65 0 -112.5 23.5zM274.5 127.5q17.5 17.5 26.5 59.5l74 347q5 22 5 36q0 31 -15 49
t-44 18q-60 0 -77 -78l-75 -343q-5 -22 -5 -37q0 -33 16.5 -51t47.5 -18q29 0 46.5 17.5zM243 916h261l-22 -102h-261z" />
    <glyph glyph-name="omacron" unicode="&#x14d;" horiz-adv-x="454" 
d="M41 49q-33 39 -33 103q0 27 8 67l41 197q18 83 71.5 130.5t136.5 47.5q49 0 87 -16t61 -45q33 -44 33 -106q0 -27 -8 -67l-41 -195q-18 -86 -70 -132t-137 -46q-101 0 -149 62zM232 112.5q13 13.5 19 42.5l52 249q4 22 4 28q0 14 -7 28q-12 22 -41 22q-22 0 -36.5 -14.5
t-19.5 -41.5l-53 -254q-3 -13 -3 -24q0 -15 7 -27q14 -22 42 -22q23 0 36 13.5zM194 743h235l-22 -98h-235z" />
    <glyph glyph-name="Ohungarumlaut" unicode="&#x150;" horiz-adv-x="510" 
d="M110.5 10.5q-47.5 23.5 -73.5 68.5q-21 36 -21 88q0 39 12 94l64 297q43 202 235 202q112 0 166 -72q34 -48 34 -116q0 -45 -13 -103l-63 -289q-21 -94 -77.5 -143.5t-150.5 -49.5q-65 0 -112.5 23.5zM274.5 127.5q17.5 17.5 26.5 59.5l74 347q5 22 5 36q0 31 -15 49
t-44 18q-60 0 -77 -78l-75 -343q-5 -22 -5 -37q0 -33 16.5 -51t47.5 -18q29 0 46.5 17.5zM280 931h136l-103 -136h-105zM446 931h136l-106 -136h-107z" />
    <glyph glyph-name="ohungarumlaut" unicode="&#x151;" horiz-adv-x="454" 
d="M41 49q-33 39 -33 103q0 27 8 67l41 197q18 83 71.5 130.5t136.5 47.5q49 0 87 -16t61 -45q33 -44 33 -106q0 -27 -8 -67l-41 -195q-18 -86 -70 -132t-137 -46q-101 0 -149 62zM232 112.5q13 13.5 19 42.5l52 249q4 22 4 28q0 14 -7 28q-12 22 -41 22q-22 0 -36.5 -14.5
t-19.5 -41.5l-53 -254q-3 -13 -3 -24q0 -15 7 -27q14 -22 42 -22q23 0 36 13.5zM215 771h133l-97 -141h-102zM384 771h133l-100 -141h-104z" />
    <glyph glyph-name="OE" unicode="&#x152;" horiz-adv-x="704" 
d="M262 0q-89 1 -142 27t-81 77q-18 33 -18 82q0 45 13 104l52 245q24 113 89 162.5t195 49.5h406l-26 -122h-205l-37 -174h154l-23 -119h-157l-44 -210h207l-25 -122h-350h-8zM192 142.5q23 -20.5 76 -20.5h20l108 503h-36q-60 0 -86 -21.5t-39 -79.5l-60 -279
q-6 -25 -6 -43q0 -39 23 -59.5z" />
    <glyph glyph-name="oe" unicode="&#x153;" horiz-adv-x="687" 
d="M100 3q-36 16 -59 46q-33 39 -33 103q0 27 8 67l41 197q18 84 71.5 131t137.5 47q40 0 71 -12.5t50 -37.5h2q24 24 57.5 37t70.5 13q43 0 77 -13t56 -37q35 -38 35 -100q0 -27 -8 -67l-24 -115h-236l-18 -84q-3 -16 -3 -29q0 -20 7 -30q14 -18 42 -18q30 0 42.5 20.5
t13.5 63.5h135q-16 -101 -61.5 -149.5t-140.5 -48.5q-77 0 -121 47h-2q-23 -23 -56.5 -35t-72.5 -12q-46 0 -82 16zM232 112.5q13 13.5 19 42.5l54 260q2 14 2 18q0 13 -7 27q-12 22 -41 22q-22 0 -36.5 -14.5t-19.5 -41.5l-53 -254q-3 -13 -3 -24q0 -15 7 -27
q14 -22 42 -22q23 0 36 13.5zM535 353l12 58q4 16 4 30q0 17 -7 27q-10 16 -36 16q-45 0 -58 -62l-14 -69h99z" />
    <glyph glyph-name="Racute" unicode="&#x154;" horiz-adv-x="487" 
d="M142 747h164q69 0 115 -18q96 -38 96 -164q0 -77 -35.5 -133.5t-101.5 -84.5l24 -347h-148l-10 325h-45l-69 -325h-149zM256 441q57 0 86 29t29 84q0 38 -17 55.5t-56 17.5h-33l-39 -186h30zM395 931h145l-118 -136h-116z" />
    <glyph glyph-name="racute" unicode="&#x155;" horiz-adv-x="326" 
d="M103 581h139l-18 -82h3q24 42 64 68.5t83 26.5l-34 -164q-15 6 -36 6q-45 0 -72 -27.5t-41 -91.5l-68 -317h-144zM277 771h139l-110 -141h-110z" />
    <glyph glyph-name="uni0156" unicode="&#x156;" horiz-adv-x="487" 
d="M142 747h164q69 0 115 -18q96 -38 96 -164q0 -77 -35.5 -133.5t-101.5 -84.5l24 -347h-148l-10 325h-45l-69 -325h-149zM256 441q57 0 86 29t29 84q0 38 -17 55.5t-56 17.5h-33l-39 -186h30zM138 -40h131l-72 -141h-103z" />
    <glyph glyph-name="uni0157" unicode="&#x157;" horiz-adv-x="326" 
d="M103 581h139l-18 -82h3q24 42 64 68.5t83 26.5l-34 -164q-15 6 -36 6q-45 0 -72 -27.5t-41 -91.5l-68 -317h-144zM-23 -40h131l-72 -141h-103z" />
    <glyph glyph-name="Rcaron" unicode="&#x158;" horiz-adv-x="487" 
d="M142 747h164q69 0 115 -18q96 -38 96 -164q0 -77 -35.5 -133.5t-101.5 -84.5l24 -347h-148l-10 325h-45l-69 -325h-149zM256 441q57 0 86 29t29 84q0 38 -17 55.5t-56 17.5h-33l-39 -186h30zM250 931h108l32 -50h3l56 50h114l-123 -136h-125z" />
    <glyph glyph-name="rcaron" unicode="&#x159;" horiz-adv-x="326" 
d="M103 581h139l-18 -82h3q24 42 64 68.5t83 26.5l-34 -164q-15 6 -36 6q-45 0 -72 -27.5t-41 -91.5l-68 -317h-144zM135 772h102l24 -56h4l50 56h108l-108 -145h-131z" />
    <glyph glyph-name="Sacute" unicode="&#x15a;" horiz-adv-x="465" 
d="M8 117q-11 30 -11 78q0 32 4 60h144q-7 -28 -7 -59q0 -85 70 -85q32 0 48 20t16 55q0 27 -10.5 49.5t-40.5 58.5l-47 56q-42 50 -62.5 96t-20.5 96q0 96 54.5 157t159.5 61q56 0 94.5 -16.5t63.5 -49.5q35 -48 35 -118q0 -16 -4 -52h-142q6 23 6 45q0 34 -15 51t-42 17
q-32 0 -48.5 -20t-16.5 -56q0 -25 10.5 -47.5t37.5 -54.5l51 -61q47 -56 66 -97.5t19 -92.5q0 -100 -53.5 -160t-158.5 -60q-154 0 -200 129zM350 931h145l-118 -136h-116z" />
    <glyph glyph-name="sacute" unicode="&#x15b;" horiz-adv-x="404" 
d="M2 76q-21 42 -16 109h134q-3 -13 -3 -27q0 -27 13 -43t38 -16q47 0 47 50q0 20 -9.5 37t-36.5 42l-36 33q-40 36 -57 72.5t-17 81.5q0 80 49 129.5t138 49.5q122 0 158 -91q10 -24 10 -67q0 -22 -1 -33h-132q4 15 4 30q0 23 -10.5 36.5t-31.5 13.5q-22 0 -34 -14t-12 -37
q0 -21 9.5 -39.5t34.5 -40.5l37 -33q42 -37 59.5 -72t17.5 -81q0 -82 -47 -130.5t-140 -48.5q-121 0 -166 89zM288 771h139l-110 -141h-110z" />
    <glyph glyph-name="Scedilla" unicode="&#x15e;" horiz-adv-x="465" 
d="M78 -166l14 72q20 -6 40 -6q16 0 22 4t6 13q0 19 -35 29l13 50q-96 24 -130 121q-11 30 -11 78q0 32 4 60h144q-7 -28 -7 -59q0 -85 70 -85q32 0 48 20t16 55q0 27 -10.5 49.5t-40.5 58.5l-47 56q-42 50 -62.5 96t-20.5 96q0 96 54.5 157t159.5 61q56 0 94.5 -16.5
t63.5 -49.5q35 -48 35 -118q0 -16 -4 -52h-142q6 23 6 45q0 34 -15 51t-42 17q-32 0 -48.5 -20t-16.5 -56q0 -25 10.5 -47.5t37.5 -54.5l51 -61q47 -56 66 -97.5t19 -92.5q0 -99 -52.5 -159t-157.5 -61l-4 -14q28 -12 45 -30t17 -40q0 -36 -30 -56t-89 -20q-42 0 -71 6z" />
    <glyph glyph-name="scedilla" unicode="&#x15f;" horiz-adv-x="404" 
d="M45 -166l14 72q20 -6 40 -6q16 0 22 4t6 13q0 19 -35 29l13 48q-71 19 -103 82q-21 42 -16 109h134q-3 -13 -3 -27q0 -27 13 -43t38 -16q47 0 47 50q0 20 -9.5 37t-36.5 42l-36 33q-40 36 -57 72.5t-17 81.5q0 80 49 129.5t138 49.5q122 0 158 -91q10 -24 10 -67
q0 -22 -1 -33h-132q4 15 4 30q0 23 -10.5 36.5t-31.5 13.5q-22 0 -34 -14t-12 -37q0 -21 9.5 -39.5t34.5 -40.5l37 -33q42 -37 59.5 -72t17.5 -81q0 -80 -44.5 -128t-133.5 -51l-4 -13q28 -12 45 -30t17 -40q0 -36 -30 -56t-89 -20q-42 0 -71 6z" />
    <glyph glyph-name="Scaron" unicode="&#x160;" horiz-adv-x="465" 
d="M8 117q-11 30 -11 78q0 32 4 60h144q-7 -28 -7 -59q0 -85 70 -85q32 0 48 20t16 55q0 27 -10.5 49.5t-40.5 58.5l-47 56q-42 50 -62.5 96t-20.5 96q0 96 54.5 157t159.5 61q56 0 94.5 -16.5t63.5 -49.5q35 -48 35 -118q0 -16 -4 -52h-142q6 23 6 45q0 34 -15 51t-42 17
q-32 0 -48.5 -20t-16.5 -56q0 -25 10.5 -47.5t37.5 -54.5l51 -61q47 -56 66 -97.5t19 -92.5q0 -100 -53.5 -160t-158.5 -60q-154 0 -200 129zM196 931h108l32 -50h3l56 50h114l-123 -136h-125z" />
    <glyph glyph-name="scaron" unicode="&#x161;" horiz-adv-x="404" 
d="M2 76q-21 42 -16 109h134q-3 -13 -3 -27q0 -27 13 -43t38 -16q47 0 47 50q0 20 -9.5 37t-36.5 42l-36 33q-40 36 -57 72.5t-17 81.5q0 80 49 129.5t138 49.5q122 0 158 -91q10 -24 10 -67q0 -22 -1 -33h-132q4 15 4 30q0 23 -10.5 36.5t-31.5 13.5q-22 0 -34 -14t-12 -37
q0 -21 9.5 -39.5t34.5 -40.5l37 -33q42 -37 59.5 -72t17.5 -81q0 -82 -47 -130.5t-140 -48.5q-121 0 -166 89zM146 772h102l24 -56h4l50 56h108l-108 -145h-131z" />
    <glyph glyph-name="uni0162" unicode="&#x162;" horiz-adv-x="449" 
d="M220 622h-136l26 125h423l-26 -125h-138l-135 -622h-37l-7 -26q28 -12 45 -30t17 -40q0 -36 -30 -56t-89 -20q-42 0 -71 6l14 72q20 -6 40 -6q16 0 22 4t6 13q0 19 -35 29l14 54h-38z" />
    <glyph glyph-name="uni0163" unicode="&#x163;" horiz-adv-x="312" 
d="M163 -2l-7 -24q28 -12 45 -30t17 -40q0 -36 -30 -56t-89 -20q-42 0 -71 6l14 72q20 -6 40 -6q16 0 22 4t6 13q0 19 -35 29l18 68q-23 11 -39 31q-23 30 -23 72q0 28 9 67l60 270h-57l23 112h59l23 106l144 22l-27 -127h88l-23 -114h-88l-57 -269q-2 -11 -4 -20t-2 -16
q0 -11 4 -18q9 -19 40 -19q19 0 34 5l-25 -116q-18 -3 -49 -3q-13 0 -20 1z" />
    <glyph glyph-name="Tcaron" unicode="&#x164;" horiz-adv-x="449" 
d="M220 622h-136l26 125h423l-26 -125h-138l-135 -622h-149zM203 931h108l32 -50h3l56 50h114l-123 -136h-125z" />
    <glyph glyph-name="tcaron" unicode="&#x165;" horiz-adv-x="309" 
d="M54 45q-23 30 -23 72q0 28 9 67l60 270h-57l23 112h59l23 106l144 22l-27 -127h88l-23 -114h-88l-57 -269q-2 -11 -4 -20t-2 -16q0 -11 4 -18q9 -19 40 -19q19 0 34 5l-25 -116q-18 -3 -49 -3q-91 0 -129 48zM349 747h131l-60 -144h-104z" />
    <glyph glyph-name="Tbar" unicode="&#x166;" horiz-adv-x="447" 
d="M154 317h-83l23 109h83l43 196h-136l26 125h423l-26 -125h-138l-43 -196h81l-23 -109h-81l-69 -317h-149z" />
    <glyph glyph-name="tbar" unicode="&#x167;" horiz-adv-x="313" 
d="M55 45q-23 30 -23 72q0 28 9 67l19 86h-57l22 104h58l18 80h-57l23 112h59l23 106l144 22l-27 -127h88l-23 -114h-88l-17 -79h84l-21 -104h-85l-18 -86q-2 -11 -4 -20t-2 -16q0 -11 4 -18q9 -19 40 -19q19 0 34 5l-25 -116q-18 -3 -49 -3q-91 0 -129 48z" />
    <glyph glyph-name="Umacron" unicode="&#x16a;" horiz-adv-x="505" 
d="M121 5.5q-42 18.5 -67 52.5q-32 42 -32 106q0 33 11 85l109 498h150l-118 -540q-6 -22 -6 -39q0 -15 6 -26q15 -28 50 -28q27 0 42.5 17t23.5 51l123 565h147l-125 -577q-39 -183 -217 -183q-55 0 -97 18.5zM248 916h261l-22 -102h-261z" />
    <glyph glyph-name="umacron" unicode="&#x16b;" 
d="M64.5 1q-26.5 12 -41.5 34q-19 27 -19 66q0 22 6 49l91 431h144l-86 -413q-3 -15 -3 -24q0 -12 5 -22q4 -8 14 -12.5t22 -4.5q22 0 34.5 15t19.5 47l87 414h144l-123 -581h-137l12 59h-3q-21 -37 -45 -53.5t-62 -16.5q-33 0 -59.5 12zM209 743h235l-22 -98h-235z" />
    <glyph glyph-name="Uring" unicode="&#x16e;" horiz-adv-x="505" 
d="M121 5.5q-42 18.5 -67 52.5q-32 42 -32 106q0 33 11 85l109 498h150l-118 -540q-6 -22 -6 -39q0 -15 6 -26q15 -28 50 -28q27 0 42.5 17t23.5 51l123 565h147l-125 -577q-39 -183 -217 -183q-55 0 -97 18.5zM276.5 783q-31.5 29 -31.5 71q0 44 31 73.5t79 29.5
q49 0 79.5 -29.5t30.5 -73.5q0 -42 -30.5 -71t-79.5 -29q-47 0 -78.5 29zM377.5 832q8.5 9 8.5 22q0 16 -8.5 25t-22.5 9t-22.5 -9t-8.5 -25q0 -13 9 -22t22 -9q14 0 22.5 9z" />
    <glyph glyph-name="uring" unicode="&#x16f;" 
d="M64.5 1q-26.5 12 -41.5 34q-19 27 -19 66q0 22 6 49l91 431h144l-86 -413q-3 -15 -3 -24q0 -12 5 -22q4 -8 14 -12.5t22 -4.5q22 0 34.5 15t19.5 47l87 414h144l-123 -581h-137l12 59h-3q-21 -37 -45 -53.5t-62 -16.5q-33 0 -59.5 12zM233 644q-29 27 -29 66
q0 41 28.5 68t73.5 27t73.5 -27t28.5 -68q0 -40 -28.5 -66.5t-73.5 -26.5q-44 0 -73 27zM326 688.5q8 8.5 8 21.5q0 14 -8 23t-20 9t-20 -9t-8 -23q0 -13 8 -21.5t20 -8.5t20 8.5z" />
    <glyph glyph-name="Uhungarumlaut" unicode="&#x170;" horiz-adv-x="505" 
d="M121 5.5q-42 18.5 -67 52.5q-32 42 -32 106q0 33 11 85l109 498h150l-118 -540q-6 -22 -6 -39q0 -15 6 -26q15 -28 50 -28q27 0 42.5 17t23.5 51l123 565h147l-125 -577q-39 -183 -217 -183q-55 0 -97 18.5zM285 931h136l-103 -136h-105zM451 931h136l-106 -136h-107z
" />
    <glyph glyph-name="uhungarumlaut" unicode="&#x171;" 
d="M64.5 1q-26.5 12 -41.5 34q-19 27 -19 66q0 22 6 49l91 431h144l-86 -413q-3 -15 -3 -24q0 -12 5 -22q4 -8 14 -12.5t22 -4.5q22 0 34.5 15t19.5 47l87 414h144l-123 -581h-137l12 59h-3q-21 -37 -45 -53.5t-62 -16.5q-33 0 -59.5 12zM230 771h133l-97 -141h-102z
M399 771h133l-100 -141h-104z" />
    <glyph glyph-name="Uogonek" unicode="&#x172;" horiz-adv-x="505" 
d="M127 -99q0 27 18.5 47.5t56.5 37.5v1q-49 3 -87 21.5t-61 49.5q-32 42 -32 106q0 33 11 85l109 498h150l-118 -540q-6 -22 -6 -39q0 -15 6 -26q15 -28 50 -28q27 0 42.5 17t23.5 51l123 565h147l-125 -577q-25 -120 -111 -161q-48 -26 -63.5 -40t-15.5 -28q0 -20 28 -20
l13 1l-18 -90l-21 -1q-120 0 -120 70z" />
    <glyph glyph-name="uogonek" unicode="&#x173;" 
d="M64.5 1q-26.5 12 -41.5 34q-19 27 -19 66q0 22 6 49l91 431h144l-86 -413q-3 -15 -3 -24q0 -12 5 -22q4 -8 14 -12.5t22 -4.5q22 0 34.5 15t19.5 47l87 414h144l-123 -581q-32 -21 -44.5 -35t-12.5 -27q0 -21 26 -21l13 1l-18 -86l-21 -1q-113 0 -113 71q0 30 22 52
t70 44v2h-59l12 59h-3q-21 -37 -45 -53.5t-62 -16.5q-33 0 -59.5 12z" />
    <glyph glyph-name="Wcircumflex" unicode="&#x174;" horiz-adv-x="694" 
d="M107 747h148q-22 -206 -34 -304.5t-28 -196.5h4l181 501h137l-34 -502h4q21 80 58 201t83 264l12 37h143l-262 -747h-157l24 453h-4l-173 -453h-159zM421 931h125l65 -136h-108l-32 50h-3l-56 -50h-114z" />
    <glyph glyph-name="wcircumflex" unicode="&#x175;" horiz-adv-x="662" 
d="M70 581h140l-40 -395h4l142 395h153l-24 -393h4l128 393h139l-224 -581h-159l20 371h-3l-146 -371h-158zM368 772h131l49 -145h-102l-24 56h-4l-50 -56h-108z" />
    <glyph glyph-name="Ycircumflex" unicode="&#x176;" horiz-adv-x="476" 
d="M164 295l-64 452h148l26 -284h4l139 284h153l-261 -472l-59 -275h-149zM308 931h125l65 -136h-108l-32 50h-3l-56 -50h-114z" />
    <glyph glyph-name="ycircumflex" unicode="&#x177;" horiz-adv-x="409" 
d="M-46 -166l27 122q22 -11 47 -11q26 0 40 10.5t26 39.5l23 59h-49l-1 527h141l-23 -383h5l129 383h145l-243 -604q-33 -82 -77.5 -115.5t-124.5 -33.5q-35 0 -65 6zM235 772h131l49 -145h-102l-24 56h-4l-50 -56h-108z" />
    <glyph glyph-name="Ydieresis" unicode="&#x178;" horiz-adv-x="476" 
d="M164 295l-64 452h148l26 -284h4l139 284h153l-261 -472l-59 -275h-149zM201 810.5q-21 17.5 -21 45.5q0 31 22.5 52.5t57.5 21.5q32 0 51.5 -17.5t19.5 -45.5q0 -32 -21.5 -53t-56.5 -21q-31 0 -52 17.5zM402 810.5q-21 17.5 -21 45.5q0 31 22.5 52.5t57.5 21.5
q32 0 51.5 -17.5t19.5 -45.5q0 -32 -21.5 -53t-56.5 -21q-31 0 -52 17.5z" />
    <glyph glyph-name="Zacute" unicode="&#x179;" horiz-adv-x="432" 
d="M-7 121l316 504h-209l26 122h375l-25 -119l-316 -505h209l-25 -123h-375zM338 931h145l-118 -136h-116z" />
    <glyph glyph-name="zacute" unicode="&#x17a;" horiz-adv-x="361" 
d="M-15 116l232 351h-156l24 114h312l-24 -116l-232 -351h165l-24 -114h-320zM273 771h139l-110 -141h-110z" />
    <glyph glyph-name="Zdotaccent" unicode="&#x17b;" horiz-adv-x="432" 
d="M-7 121l316 504h-209l26 122h375l-25 -119l-316 -505h209l-25 -123h-375zM269 810.5q-21 17.5 -21 45.5q0 31 22.5 52.5t57.5 21.5q32 0 51.5 -17.5t19.5 -45.5q0 -32 -21.5 -53t-56.5 -21q-31 0 -52 17.5z" />
    <glyph glyph-name="zdotaccent" unicode="&#x17c;" horiz-adv-x="361" 
d="M-15 116l232 351h-156l24 114h312l-24 -116l-232 -351h165l-24 -114h-320zM204 642q-22 19 -22 49q0 32 24 54.5t60 22.5q33 0 54 -19t21 -50q0 -33 -23 -54.5t-59 -21.5q-33 0 -55 19z" />
    <glyph glyph-name="Zcaron" unicode="&#x17d;" horiz-adv-x="432" 
d="M-7 121l316 504h-209l26 122h375l-25 -119l-316 -505h209l-25 -123h-375zM193 931h108l32 -50h3l56 50h114l-123 -136h-125z" />
    <glyph glyph-name="zcaron" unicode="&#x17e;" horiz-adv-x="361" 
d="M-15 116l232 351h-156l24 114h312l-24 -116l-232 -351h165l-24 -114h-320zM131 772h102l24 -56h4l50 56h108l-108 -145h-131z" />
    <glyph glyph-name="florin" unicode="&#x192;" horiz-adv-x="320" 
d="M-90 -164l25 117q15 -5 29 -5q17 0 26 7.5t13 27.5l99 471h-60l23 112h61l6 30q17 82 60 121t120 39q46 0 89 -12l-26 -118q-22 15 -51 15q-20 0 -32 -11.5t-18 -38.5l-5 -24h91l-23 -114h-92l-100 -475q-16 -78 -59 -111.5t-123 -33.5q-29 0 -53 3z" />
    <glyph glyph-name="AEacute" unicode="&#x1fc;" horiz-adv-x="724" 
d="M341 747h455l-26 -122h-205l-37 -174h154l-23 -119h-157l-44 -210h207l-25 -122h-358l34 157h-140l-81 -157h-155zM342 278l74 347h-6l-177 -347h109zM573 931h145l-118 -136h-116z" />
    <glyph glyph-name="AEacute" unicode="&#x1fd;" horiz-adv-x="724" 
d="M341 747h455l-26 -122h-205l-37 -174h154l-23 -119h-157l-44 -210h207l-25 -122h-358l34 157h-140l-81 -157h-155zM342 278l74 347h-6l-177 -347h109zM573 931h145l-118 -136h-116z" />
    <glyph glyph-name="uni0218" unicode="&#x218;" horiz-adv-x="465" 
d="M8 117q-11 30 -11 78q0 32 4 60h144q-7 -28 -7 -59q0 -85 70 -85q32 0 48 20t16 55q0 27 -10.5 49.5t-40.5 58.5l-47 56q-42 50 -62.5 96t-20.5 96q0 96 54.5 157t159.5 61q56 0 94.5 -16.5t63.5 -49.5q35 -48 35 -118q0 -16 -4 -52h-142q6 23 6 45q0 34 -15 51t-42 17
q-32 0 -48.5 -20t-16.5 -56q0 -25 10.5 -47.5t37.5 -54.5l51 -61q47 -56 66 -97.5t19 -92.5q0 -100 -53.5 -160t-158.5 -60q-154 0 -200 129zM105 -40h131l-72 -141h-103z" />
    <glyph glyph-name="uni0219" unicode="&#x219;" horiz-adv-x="404" 
d="M2 76q-21 42 -16 109h134q-3 -13 -3 -27q0 -27 13 -43t38 -16q47 0 47 50q0 20 -9.5 37t-36.5 42l-36 33q-40 36 -57 72.5t-17 81.5q0 80 49 129.5t138 49.5q122 0 158 -91q10 -24 10 -67q0 -22 -1 -33h-132q4 15 4 30q0 23 -10.5 36.5t-31.5 13.5q-22 0 -34 -14t-12 -37
q0 -21 9.5 -39.5t34.5 -40.5l37 -33q42 -37 59.5 -72t17.5 -81q0 -82 -47 -130.5t-140 -48.5q-121 0 -166 89zM72 -40h131l-72 -141h-103z" />
    <glyph glyph-name="uni021A" unicode="&#x21a;" horiz-adv-x="449" 
d="M220 622h-136l26 125h423l-26 -125h-138l-135 -622h-149zM89 -40h131l-72 -141h-103z" />
    <glyph glyph-name="uni021B" unicode="&#x21b;" horiz-adv-x="312" 
d="M54 45q-23 30 -23 72q0 28 9 67l60 270h-57l23 112h59l23 106l144 22l-27 -127h88l-23 -114h-88l-57 -269q-2 -11 -4 -20t-2 -16q0 -11 4 -18q9 -19 40 -19q19 0 34 5l-25 -116q-18 -3 -49 -3q-91 0 -129 48zM55 -40h131l-72 -141h-103z" />
    <glyph glyph-name="uni0237" unicode="&#x237;" horiz-adv-x="230" 
d="M-95 -164l25 116q10 -5 21 -5t17.5 6.5t9.5 21.5l128 606h144l-129 -611q-16 -73 -55.5 -105t-113.5 -32q-26 0 -47 3z" />
    <glyph glyph-name="circumflex" unicode="&#x2c6;" horiz-adv-x="600" 
d="M264 772h131l49 -145h-102l-24 56h-4l-50 -56h-108z" />
    <glyph glyph-name="caron" unicode="&#x2c7;" horiz-adv-x="600" 
d="M181 772h102l24 -56h4l50 56h108l-108 -145h-131z" />
    <glyph glyph-name="breve" unicode="&#x2d8;" horiz-adv-x="600" 
d="M191 656q-37 31 -37 86q0 16 3 32h108q-3 -15 -3 -27q0 -36 31 -36q18 0 26.5 15t9.5 48h109q-11 -78 -45 -113.5t-103 -35.5q-62 0 -99 31z" />
    <glyph glyph-name="dotaccent" unicode="&#x2d9;" horiz-adv-x="600" 
d="M155 642q-22 19 -22 49q0 32 24 54.5t60 22.5q33 0 54 -19t21 -50q0 -33 -23 -54.5t-59 -21.5q-33 0 -55 19z" />
    <glyph glyph-name="ring" unicode="&#x2da;" horiz-adv-x="600" 
d="M160 644q-29 27 -29 66q0 41 28.5 68t73.5 27t73.5 -27t28.5 -68q0 -40 -28.5 -66.5t-73.5 -26.5q-44 0 -73 27zM253 688.5q8 8.5 8 21.5q0 14 -8 23t-20 9t-20 -9t-8 -23q0 -13 8 -21.5t20 -8.5t20 8.5z" />
    <glyph glyph-name="ogonek" unicode="&#x2db;" horiz-adv-x="600" 
d="M-35 -98q0 30 22 52t70 44v2h78q-32 -21 -44.5 -35t-12.5 -27q0 -21 26 -21l13 1l-18 -86l-21 -1q-113 0 -113 71z" />
    <glyph glyph-name="tilde" unicode="&#x2dc;" horiz-adv-x="600" 
d="M304 639.5q-13 4.5 -32 13.5q-9 5 -19 8.5t-17 3.5q-10 0 -15.5 -5.5t-8.5 -20.5h-81q14 66 34 99t61 33q17 0 30.5 -4.5t32.5 -13.5q22 -12 34 -12q10 0 15.5 5.5t8.5 20.5h81q-16 -68 -35 -100t-60 -32q-16 0 -29 4.5z" />
    <glyph glyph-name="hungarumlaut" unicode="&#x2dd;" horiz-adv-x="600" 
d="M245 771h133l-97 -141h-102zM414 771h133l-100 -141h-104z" />
    <glyph glyph-name="gravecomb" unicode="&#x300;" horiz-adv-x="0" 
d="M184 773h132l36 -142h-104z" />
    <glyph glyph-name="acutecomb" unicode="&#x301;" horiz-adv-x="0" 
d="M220 771h139l-110 -141h-110z" />
    <glyph glyph-name="uni0302" unicode="&#x302;" horiz-adv-x="0" 
d="M264 772h131l49 -145h-102l-24 56h-4l-50 -56h-108z" />
    <glyph glyph-name="tildecomb" unicode="&#x303;" horiz-adv-x="0" 
d="M304 639.5q-13 4.5 -32 13.5q-9 5 -19 8.5t-17 3.5q-10 0 -15.5 -5.5t-8.5 -20.5h-81q14 66 34 99t61 33q17 0 30.5 -4.5t32.5 -13.5q22 -12 34 -12q10 0 15.5 5.5t8.5 20.5h81q-16 -68 -35 -100t-60 -32q-16 0 -29 4.5z" />
    <glyph glyph-name="uni0304" unicode="&#x304;" horiz-adv-x="0" 
d="M162 743h235l-22 -98h-235z" />
    <glyph glyph-name="uni0306" unicode="&#x306;" horiz-adv-x="0" 
d="M191 656q-37 31 -37 86q0 16 3 32h108q-3 -15 -3 -27q0 -36 31 -36q18 0 26.5 15t9.5 48h109q-11 -78 -45 -113.5t-103 -35.5q-62 0 -99 31z" />
    <glyph glyph-name="uni0307" unicode="&#x307;" horiz-adv-x="0" 
d="M155 642q-22 19 -22 49q0 32 24 54.5t60 22.5q33 0 54 -19t21 -50q0 -33 -23 -54.5t-59 -21.5q-33 0 -55 19z" />
    <glyph glyph-name="uni0308" unicode="&#x308;" horiz-adv-x="0" 
d="M151.5 652q-20.5 18 -20.5 45q0 30 22 51t56 21q30 0 49.5 -18t19.5 -46q0 -30 -21.5 -50.5t-54.5 -20.5q-30 0 -50.5 18zM340.5 652q-20.5 18 -20.5 45q0 30 22 51t56 21q30 0 49.5 -18t19.5 -46q0 -30 -21.5 -50.5t-54.5 -20.5q-30 0 -50.5 18z" />
    <glyph glyph-name="uni030A" unicode="&#x30a;" horiz-adv-x="0" 
d="M160 644q-29 27 -29 66q0 41 28.5 68t73.5 27t73.5 -27t28.5 -68q0 -40 -28.5 -66.5t-73.5 -26.5q-44 0 -73 27zM253 688.5q8 8.5 8 21.5q0 14 -8 23t-20 9t-20 -9t-8 -23q0 -13 8 -21.5t20 -8.5t20 8.5z" />
    <glyph glyph-name="uni030B" unicode="&#x30b;" horiz-adv-x="0" 
d="M245 771h133l-97 -141h-102zM414 771h133l-100 -141h-104z" />
    <glyph glyph-name="uni030C" unicode="&#x30c;" horiz-adv-x="0" 
d="M181 772h102l24 -56h4l50 56h108l-108 -145h-131z" />
    <glyph glyph-name="uni0312" unicode="&#x312;" horiz-adv-x="0" 
d="M181 773h103l-44 -141h-131z" />
    <glyph glyph-name="uni0313" unicode="&#x313;" horiz-adv-x="0" 
d="M190 773h131l-72 -141h-103z" />
    <glyph glyph-name="uni0326" unicode="&#x326;" horiz-adv-x="0" 
d="M18 -40h131l-72 -141h-103z" />
    <glyph glyph-name="uni0327" unicode="&#x327;" horiz-adv-x="0" 
d="M-33 -166l14 72q20 -6 40 -6q16 0 22 4t6 13q0 19 -35 29l21 79h74l-14 -51q28 -12 45 -30t17 -40q0 -36 -30 -56t-89 -20q-43 0 -71 6z" />
    <glyph glyph-name="uni0328" unicode="&#x328;" horiz-adv-x="0" 
d="M-35 -98q0 30 22 52t70 44v2h78q-32 -21 -44.5 -35t-12.5 -27q0 -21 26 -21l13 1l-18 -86l-21 -1q-113 0 -113 71z" />
    <glyph glyph-name="Wgrave" unicode="&#x1e80;" horiz-adv-x="694" 
d="M107 747h148q-22 -206 -34 -304.5t-28 -196.5h4l181 501h137l-34 -502h4q21 80 58 201t83 264l12 37h143l-262 -747h-157l24 453h-4l-173 -453h-159zM332 931h135l44 -136h-107z" />
    <glyph glyph-name="wgrave" unicode="&#x1e81;" horiz-adv-x="662" 
d="M70 581h140l-40 -395h4l142 395h153l-24 -393h4l128 393h139l-224 -581h-159l20 371h-3l-146 -371h-158zM288 773h132l36 -142h-104z" />
    <glyph glyph-name="Wacute" unicode="&#x1e82;" horiz-adv-x="694" 
d="M107 747h148q-22 -206 -34 -304.5t-28 -196.5h4l181 501h137l-34 -502h4q21 80 58 201t83 264l12 37h143l-262 -747h-157l24 453h-4l-173 -453h-159zM475 931h145l-118 -136h-116z" />
    <glyph glyph-name="wacute" unicode="&#x1e83;" horiz-adv-x="662" 
d="M70 581h140l-40 -395h4l142 395h153l-24 -393h4l128 393h139l-224 -581h-159l20 371h-3l-146 -371h-158zM430 771h139l-110 -141h-110z" />
    <glyph glyph-name="Wdieresis" unicode="&#x1e84;" horiz-adv-x="694" 
d="M107 747h148q-22 -206 -34 -304.5t-28 -196.5h4l181 501h137l-34 -502h4q21 80 58 201t83 264l12 37h143l-262 -747h-157l24 453h-4l-173 -453h-159zM314 810.5q-21 17.5 -21 45.5q0 31 22.5 52.5t57.5 21.5q32 0 51.5 -17.5t19.5 -45.5q0 -32 -21.5 -53t-56.5 -21
q-31 0 -52 17.5zM515 810.5q-21 17.5 -21 45.5q0 31 22.5 52.5t57.5 21.5q32 0 51.5 -17.5t19.5 -45.5q0 -32 -21.5 -53t-56.5 -21q-31 0 -52 17.5z" />
    <glyph glyph-name="wdieresis" unicode="&#x1e85;" horiz-adv-x="662" 
d="M70 581h140l-40 -395h4l142 395h153l-24 -393h4l128 393h139l-224 -581h-159l20 371h-3l-146 -371h-158zM270.5 652q-20.5 18 -20.5 45q0 30 22 51t56 21q30 0 49.5 -18t19.5 -46q0 -30 -21.5 -50.5t-54.5 -20.5q-30 0 -50.5 18zM459.5 652q-20.5 18 -20.5 45q0 30 22 51
t56 21q30 0 49.5 -18t19.5 -46q0 -30 -21.5 -50.5t-54.5 -20.5q-30 0 -50.5 18z" />
    <glyph glyph-name="uni1E9E" unicode="&#x1e9e;" horiz-adv-x="574" 
d="M233.5 31.5q-40.5 42.5 -40.5 110.5q0 28 2 49h125q-5 -22 -5 -40q0 -45 33 -45q15 0 23 11t8 31q0 18 -5 34t-20 39l-35 55q-23 36 -32 63t-9 59q0 56 34 108.5t125 122.5h-170l-135 -629h-149l160 747h487l-27 -125q-79 -62 -117.5 -97.5t-50 -56.5t-11.5 -44
q0 -16 6 -31.5t23 -42.5l23 -35q28 -43 39 -74.5t11 -66.5q0 -82 -43.5 -133.5t-130.5 -51.5q-78 0 -118.5 42.5z" />
    <glyph glyph-name="Ygrave" unicode="&#x1ef2;" horiz-adv-x="476" 
d="M164 295l-64 452h148l26 -284h4l139 284h153l-261 -472l-59 -275h-149zM219 931h135l44 -136h-107z" />
    <glyph glyph-name="ygrave" unicode="&#x1ef3;" horiz-adv-x="409" 
d="M-46 -166l27 122q22 -11 47 -11q26 0 40 10.5t26 39.5l23 59h-49l-1 527h141l-23 -383h5l129 383h145l-243 -604q-33 -82 -77.5 -115.5t-124.5 -33.5q-35 0 -65 6zM155 773h132l36 -142h-104z" />
    <glyph glyph-name="uni2002" unicode="&#x2002;" horiz-adv-x="500" 
 />
    <glyph glyph-name="uni2003" unicode="&#x2003;" horiz-adv-x="1000" 
 />
    <glyph glyph-name="uni2007" unicode="&#x2007;" 
 />
    <glyph glyph-name="uni2008" unicode="&#x2008;" horiz-adv-x="226" 
 />
    <glyph glyph-name="uni2009" unicode="&#x2009;" horiz-adv-x="90" 
 />
    <glyph glyph-name="uni200A" unicode="&#x200a;" horiz-adv-x="63" 
 />
    <glyph glyph-name="endash" unicode="&#x2013;" horiz-adv-x="416" 
d="M39 373h371l-20 -108h-372z" />
    <glyph glyph-name="emdash" unicode="&#x2014;" horiz-adv-x="595" 
d="M38 371h551l-20 -105h-552z" />
    <glyph glyph-name="quoteleft" unicode="&#x2018;" horiz-adv-x="220" 
d="M95.5 480.5q-21.5 25.5 -21.5 70.5q0 83 55 141q56 58 160 58l-18 -86q-74 3 -85 -60q26 -6 41.5 -24.5t15.5 -44.5q0 -34 -23 -57t-62 -23q-41 0 -62.5 25.5z" />
    <glyph glyph-name="quoteright" unicode="&#x2019;" horiz-adv-x="221" 
d="M156 610q-26 6 -41.5 24.5t-15.5 44.5q0 34 23 57t62 23q41 0 62.5 -25.5t21.5 -70.5q0 -83 -55 -141q-56 -58 -160 -58l18 86q74 -3 85 60z" />
    <glyph glyph-name="quotesinglbase" unicode="&#x201a;" horiz-adv-x="221" 
d="M39 0q-26 6 -41.5 24.5t-15.5 44.5q0 34 23 57t62 23q41 0 62.5 -25.5t21.5 -70.5q0 -83 -55 -141q-56 -58 -160 -58l18 86q74 -3 85 60z" />
    <glyph glyph-name="quotedblleft" unicode="&#x201c;" horiz-adv-x="426" 
d="M95.5 480.5q-21.5 25.5 -21.5 70.5q0 83 55 141q56 58 160 58l-18 -86q-74 3 -85 -60q26 -6 41.5 -24.5t15.5 -44.5q0 -34 -23 -57t-62 -23q-41 0 -62.5 25.5zM301.5 480.5q-21.5 25.5 -21.5 70.5q0 83 55 141q56 58 160 58l-18 -86q-74 3 -85 -60q26 -6 41.5 -24.5
t15.5 -44.5q0 -34 -23 -57t-62 -23q-41 0 -62.5 25.5z" />
    <glyph glyph-name="quotedblright" unicode="&#x201d;" horiz-adv-x="426" 
d="M361 609q-26 6 -41.5 24.5t-15.5 44.5q0 34 23 57t62 23q41 0 62.5 -25.5t21.5 -70.5q0 -83 -55 -141q-56 -58 -160 -58l18 86q74 -3 85 60zM155 609q-26 6 -41.5 24.5t-15.5 44.5q0 34 23 57t62 23q41 0 62.5 -25.5t21.5 -70.5q0 -83 -55 -141q-56 -58 -160 -58l18 86
q74 -3 85 60z" />
    <glyph glyph-name="quotedblbase" unicode="&#x201e;" horiz-adv-x="427" 
d="M245 0q-26 6 -41.5 24.5t-15.5 44.5q0 34 23 57t62 23q41 0 62.5 -25.5t21.5 -70.5q0 -83 -55 -141q-56 -58 -160 -58l18 86q74 -3 85 60zM39 0q-26 6 -41.5 24.5t-15.5 44.5q0 34 23 57t62 23q41 0 62.5 -25.5t21.5 -70.5q0 -83 -55 -141q-56 -58 -160 -58l18 86
q74 -3 85 60z" />
    <glyph glyph-name="dagger" unicode="&#x2020;" horiz-adv-x="346" 
d="M164 541h-84l22 102h84l21 104h125l-23 -104h85l-22 -102h-86l-50 -241h-125z" />
    <glyph glyph-name="daggerdbl" unicode="&#x2021;" horiz-adv-x="347" 
d="M135 398h-84l20 96h85l16 76h-85l20 95h84l17 82h125l-18 -82h84l-20 -95h-86l-17 -76h87l-20 -96h-87l-19 -98h-125z" />
    <glyph glyph-name="bullet" unicode="&#x2022;" horiz-adv-x="410" 
d="M147.5 232.5q-31.5 19.5 -49.5 53t-18 73.5q0 43 18.5 78.5t51.5 55.5t74 20q38 0 69.5 -19.5t49.5 -53t18 -74.5q0 -43 -18.5 -78t-51.5 -55t-74 -20q-38 0 -69.5 19.5z" />
    <glyph glyph-name="ellipsis" unicode="&#x2026;" horiz-adv-x="646" 
d="M214 13q-25 25 -25 62q0 39 26 65t65 26q37 0 62 -25t25 -62q0 -39 -26 -65t-65 -26q-37 0 -62 25zM424 13q-25 25 -25 62q0 39 26 65t65 26q37 0 62 -25t25 -62q0 -39 -26 -65t-65 -26q-37 0 -62 25zM4 13q-25 25 -25 62q0 39 26 65t65 26q37 0 62 -25t25 -62
q0 -39 -26 -65t-65 -26q-37 0 -62 25z" />
    <glyph glyph-name="perthousand" unicode="&#x2030;" horiz-adv-x="1275" 
d="M115 324.5q-39 37.5 -39 101.5q0 20 5 47l28 131q32 151 168 151q71 0 108.5 -36t37.5 -101q0 -29 -7 -58l-27 -127q-16 -75 -56.5 -110.5t-108.5 -35.5q-70 0 -109 37.5zM258 396q11 12 16 38l33 156q3 15 3 26q0 42 -39 42q-36 0 -46 -50l-34 -162q-2 -7 -2 -21
q0 -41 39 -41q19 0 30 12zM643 747h117l-457 -747h-117zM567 26.5q-39 37.5 -39 101.5q0 20 5 47l28 131q32 151 168 151q71 0 108.5 -36t37.5 -101q0 -29 -7 -58l-27 -127q-16 -75 -56.5 -110.5t-108.5 -35.5q-70 0 -109 37.5zM710 98q11 12 16 38l33 156q3 15 3 26
q0 42 -39 42q-36 0 -46 -50l-34 -162q-2 -7 -2 -21q0 -41 39 -41q19 0 30 12zM926 25.5q-39 37.5 -39 101.5q0 20 5 47l28 131q32 151 168 151q71 0 108.5 -36t37.5 -101q0 -29 -7 -58l-27 -127q-16 -75 -56.5 -110.5t-108.5 -35.5q-70 0 -109 37.5zM1069 97q11 12 16 38
l33 156q3 15 3 26q0 42 -39 42q-36 0 -46 -50l-34 -162q-2 -7 -2 -21q0 -41 39 -41q19 0 30 12z" />
    <glyph glyph-name="guilsinglleft" unicode="&#x2039;" horiz-adv-x="288" 
d="M25 296l138 201h134l-135 -206l50 -206h-133z" />
    <glyph glyph-name="guilsinglright" unicode="&#x203a;" horiz-adv-x="288" 
d="M126 291l-50 206h133l54 -211l-138 -201h-134z" />
    <glyph glyph-name="fraction" unicode="&#x2044;" horiz-adv-x="227" 
d="M301 747h117l-457 -747h-117z" />
    <glyph glyph-name="uni2070" unicode="&#x2070;" horiz-adv-x="380" 
d="M115 376.5q-39 37.5 -39 101.5q0 20 5 47l28 131q32 151 168 151q71 0 108.5 -36t37.5 -101q0 -29 -7 -58l-27 -127q-16 -75 -56.5 -110.5t-108.5 -35.5q-70 0 -109 37.5zM258 448q11 12 16 38l33 156q3 15 3 26q0 42 -39 42q-36 0 -46 -50l-34 -162q-2 -7 -2 -21
q0 -41 39 -41q19 0 30 12z" />
    <glyph glyph-name="uni2074" unicode="&#x2074;" horiz-adv-x="347" 
d="M74 527l127 272h116l-139 -272h61l29 125h107l-28 -125h36l-19 -94h-37l-18 -83h-109l18 83h-163z" />
    <glyph glyph-name="uni2075" unicode="&#x2075;" horiz-adv-x="350" 
d="M98 378q-38 39 -33 107h107l-1 -11q0 -39 38 -39q16 0 26 10.5t16 35.5l7 32l2 18q0 18 -9.5 27t-25.5 9q-25 0 -36 -21h-99l62 253h251l-20 -98h-158l-21 -84h4q26 33 75 33q46 0 70.5 -24t24.5 -68q0 -18 -5 -43l-9 -43q-14 -69 -52.5 -101t-104.5 -32q-71 0 -109 39z
" />
    <glyph glyph-name="uni2076" unicode="&#x2076;" horiz-adv-x="372" 
d="M116.5 376q-39.5 37 -39.5 101q0 19 5 46l29 140q14 69 57.5 106.5t111.5 37.5q72 0 106.5 -35t29.5 -96h-104q2 18 -7.5 28t-29.5 10q-22 0 -34 -13t-18 -42l-13 -64h4q28 46 85 46q44 0 70 -27.5t26 -73.5q0 -10 -4 -34l-7 -33q-29 -134 -158 -134q-70 0 -109.5 37z
M270 471l7 34q1 4 1 13q0 18 -10 29t-28 11q-38 0 -47 -47l-4 -20q-2 -12 -2 -16q0 -20 10.5 -31.5t30.5 -11.5q34 0 42 39z" />
    <glyph glyph-name="uni2077" unicode="&#x2077;" horiz-adv-x="312" 
d="M252 699h-155l21 100h275l-18 -95l-189 -354h-124z" />
    <glyph glyph-name="uni2078" unicode="&#x2078;" horiz-adv-x="367" 
d="M106.5 373.5q-42.5 33.5 -42.5 87.5q0 13 3 26l2 10q7 34 32 56.5t63 29.5v4q-50 29 -50 82q0 13 3 26l2 9q10 48 51.5 76t100.5 28q66 0 106.5 -31.5t40.5 -82.5q0 -11 -3 -25l-3 -15q-12 -60 -87 -75v-4q26 -12 40.5 -35.5t14.5 -53.5q0 -13 -3 -27l-2 -9
q-24 -110 -157 -110q-69 0 -111.5 33.5zM263 472l3 14q2 12 2 16q0 19 -11 28.5t-27 9.5q-18 0 -29.5 -11t-15.5 -30l-2 -10q-2 -10 -2 -15q0 -19 10.5 -30t30.5 -11q32 0 41 39zM299 654l4 17q1 4 1 11q0 15 -9.5 24.5t-26.5 9.5q-32 0 -40 -36l-3 -14q-2 -10 -2 -13
q0 -16 9.5 -25t27.5 -9q31 0 39 35z" />
    <glyph glyph-name="uni2079" unicode="&#x2079;" horiz-adv-x="368" 
d="M106.5 375.5q-37.5 36.5 -35.5 99.5h105q-2 -20 7.5 -31.5t30.5 -11.5t31.5 11.5t17.5 42.5l15 69h-4q-22 -40 -72 -40q-48 0 -77 27t-29 72q0 10 4 32l6 29q12 61 53 96.5t107 35.5q63 0 104.5 -33t41.5 -101q0 -23 -6 -52l-31 -145q-29 -137 -161 -137
q-70 0 -107.5 36.5zM295 640l3 15q2 12 2 17q0 19 -10 29.5t-29 10.5q-34 0 -42 -38l-6 -28q-1 -5 -1 -13q0 -18 10 -28.5t28 -10.5q35 0 45 46z" />
    <glyph glyph-name="uni2080" unicode="&#x2080;" horiz-adv-x="380" 
d="M15 -93.5q-39 37.5 -39 101.5q0 20 5 47l28 131q32 151 168 151q71 0 108.5 -36t37.5 -101q0 -29 -7 -58l-27 -127q-16 -75 -56.5 -110.5t-108.5 -35.5q-70 0 -109 37.5zM158 -22q11 12 16 38l33 156q3 15 3 26q0 42 -39 42q-36 0 -46 -50l-34 -162q-2 -7 -2 -21
q0 -41 39 -41q19 0 30 12z" />
    <glyph glyph-name="uni2081" unicode="&#x2081;" horiz-adv-x="336" 
d="M-30 -28h91l51 237q-48 -28 -107 -39l20 97q78 21 133 63h94l-77 -358h86l-19 -92h-291z" />
    <glyph glyph-name="uni2082" unicode="&#x2082;" horiz-adv-x="344" 
d="M136 128q28 26 39 43.5t11 35.5q0 16 -9 26t-26 10q-45 0 -45 -66h-101q0 76 40.5 118.5t117.5 42.5q62 0 97.5 -31.5t35.5 -86.5q0 -42 -19.5 -77t-63.5 -74q-50 -44 -114 -92h152l-20 -97h-293l20 94q106 88 178 154z" />
    <glyph glyph-name="uni2083" unicode="&#x2083;" horiz-adv-x="344" 
d="M-7.5 -96q-37.5 35 -37.5 97q0 15 1 23h102q-1 -5 -1 -13q0 -46 41 -46q36 0 44 35l2 9l2 18q0 41 -52 41h-26l15 81h38q29 0 41.5 8.5t16.5 28.5l2 10q1 5 1 13q0 32 -34 32q-38 0 -42 -46h-103q4 67 44 104.5t110 37.5q63 0 101 -30.5t38 -81.5q0 -13 -3 -27l-2 -10
q-8 -39 -29.5 -58t-64.5 -22v-3q29 -5 45 -27.5t16 -54.5q0 -13 -3 -28l-3 -14q-11 -54 -50.5 -83t-101.5 -29q-70 0 -107.5 35z" />
    <glyph glyph-name="uni2084" unicode="&#x2084;" horiz-adv-x="347" 
d="M-26 57l127 272h116l-139 -272h61l29 125h107l-28 -125h36l-19 -94h-37l-18 -83h-109l18 83h-163z" />
    <glyph glyph-name="uni2085" unicode="&#x2085;" horiz-adv-x="350" 
d="M-2 -92q-38 39 -33 107h107l-1 -11q0 -39 38 -39q16 0 26 10.5t16 35.5l7 32l2 18q0 18 -9.5 27t-25.5 9q-25 0 -36 -21h-99l62 253h251l-20 -98h-158l-21 -84h4q26 33 75 33q46 0 70.5 -24t24.5 -68q0 -18 -5 -43l-9 -43q-14 -69 -52.5 -101t-104.5 -32q-71 0 -109 39z
" />
    <glyph glyph-name="uni2086" unicode="&#x2086;" horiz-adv-x="372" 
d="M16.5 -94q-39.5 37 -39.5 101q0 19 5 46l29 140q14 69 57.5 106.5t111.5 37.5q72 0 106.5 -35t29.5 -96h-104q2 18 -7.5 28t-29.5 10q-22 0 -34 -13t-18 -42l-13 -64h4q28 46 85 46q44 0 70 -27.5t26 -73.5q0 -10 -4 -34l-7 -33q-29 -134 -158 -134q-70 0 -109.5 37z
M170 1l7 34q1 4 1 13q0 18 -10 29t-28 11q-38 0 -47 -47l-4 -20q-2 -12 -2 -16q0 -20 10.5 -31.5t30.5 -11.5q34 0 42 39z" />
    <glyph glyph-name="uni2087" unicode="&#x2087;" horiz-adv-x="312" 
d="M152 229h-155l21 100h275l-18 -95l-189 -354h-124z" />
    <glyph glyph-name="uni2088" unicode="&#x2088;" horiz-adv-x="367" 
d="M6.5 -96.5q-42.5 33.5 -42.5 87.5q0 13 3 26l2 10q7 34 32 56.5t63 29.5v4q-50 29 -50 82q0 13 3 26l2 9q10 48 51.5 76t100.5 28q66 0 106.5 -31.5t40.5 -82.5q0 -11 -3 -25l-3 -15q-12 -60 -87 -75v-4q26 -12 40.5 -35.5t14.5 -53.5q0 -13 -3 -27l-2 -9
q-24 -110 -157 -110q-69 0 -111.5 33.5zM163 2l3 14q2 12 2 16q0 19 -11 28.5t-27 9.5q-18 0 -29.5 -11t-15.5 -30l-2 -10q-2 -10 -2 -15q0 -19 10.5 -30t30.5 -11q32 0 41 39zM199 184l4 17q1 4 1 11q0 15 -9.5 24.5t-26.5 9.5q-32 0 -40 -36l-3 -14q-2 -10 -2 -13
q0 -16 9.5 -25t27.5 -9q31 0 39 35z" />
    <glyph glyph-name="uni2089" unicode="&#x2089;" horiz-adv-x="368" 
d="M6.5 -94.5q-37.5 36.5 -35.5 99.5h105q-2 -20 7.5 -31.5t30.5 -11.5t31.5 11.5t17.5 42.5l15 69h-4q-22 -40 -72 -40q-48 0 -77 27t-29 72q0 10 4 32l6 29q12 61 53 96.5t107 35.5q63 0 104.5 -33t41.5 -101q0 -23 -6 -52l-31 -145q-29 -137 -161 -137q-70 0 -107.5 36.5
zM195 170l3 15q2 12 2 17q0 19 -10 29.5t-29 10.5q-34 0 -42 -38l-6 -28q-1 -5 -1 -13q0 -18 10 -28.5t28 -10.5q35 0 45 46z" />
    <glyph glyph-name="Euro" unicode="&#x20ac;" 
d="M123 11q-43 24 -64 69q-15 33 -15 78q0 30 8 68l9 45h-47l20 94h51l9 41h-52l20 94h48l18 79q21 93 71.5 137t135.5 44q79 0 121 -43t42 -114q0 -23 -3 -46h-131q4 20 4 34q0 52 -41 52q-21 0 -34 -13.5t-20 -45.5l-19 -84h193l-40 -94h-180l-9 -41h174l-40 -94h-147
l-16 -77q-3 -16 -3 -31q0 -13 3 -24q12 -33 49 -33q32 0 44 23t14 79h133q-9 -112 -52.5 -166.5t-145.5 -54.5q-65 0 -108 24z" />
    <glyph glyph-name="trademark" unicode="&#x2122;" horiz-adv-x="674" 
d="M184 664h-76l17 83h247l-17 -83h-73l-68 -303h-98zM410 747h107l16 -147h4l84 147h112l-86 -385h-95q29 132 66 256h-5l-85 -148h-44l-16 147h-5q-17 -116 -46 -255h-92z" />
    <glyph glyph-name="uni2126" unicode="&#x2126;" horiz-adv-x="510" 
d="M-7 128h98v2q-57 50 -57 131q0 35 9 77l47 220q21 99 79.5 150.5t153.5 51.5q54 0 97.5 -18t70.5 -54q32 -44 32 -117q0 -44 -14 -111l-41 -192q-11 -54 -33.5 -85.5t-65.5 -52.5v-2h77l-25 -128h-203l27 131q27 11 41 28t21 52l68 322q4 19 4 39q0 32 -15.5 49.5
t-46.5 17.5q-28 0 -48 -20t-29 -60l-65 -302q-6 -27 -6 -47q0 -22 8.5 -40.5t27.5 -37.5l-27 -132h-213z" />
    <glyph glyph-name="uni2154" unicode="&#x2154;" horiz-adv-x="920" 
d="M225 545q28 26 39 43.5t11 35.5q0 16 -9 26t-26 10q-45 0 -45 -66h-101q0 76 40.5 118.5t117.5 42.5q62 0 97.5 -31.5t35.5 -86.5q0 -42 -19.5 -77t-63.5 -74q-50 -44 -114 -92h152l-20 -97h-293l20 94q106 88 178 154zM655 747h117l-457 -747h-117zM594.5 24
q-37.5 35 -37.5 97q0 15 1 23h102q-1 -5 -1 -13q0 -46 41 -46q36 0 44 35l2 9l2 18q0 41 -52 41h-26l15 81h38q29 0 41.5 8.5t16.5 28.5l2 10q1 5 1 13q0 32 -34 32q-38 0 -42 -46h-103q4 67 44 104.5t110 37.5q63 0 101 -30.5t38 -81.5q0 -13 -3 -27l-2 -10
q-8 -39 -29.5 -58t-64.5 -22v-3q29 -5 45 -27.5t16 -54.5q0 -13 -3 -28l-3 -14q-11 -54 -50.5 -83t-101.5 -29q-70 0 -107.5 35z" />
    <glyph glyph-name="uni2155" unicode="&#x2155;" horiz-adv-x="938" 
d="M59 389h91l51 237q-48 -28 -107 -39l20 97q78 21 133 63h94l-77 -358h86l-19 -92h-291zM662 747h117l-457 -747h-117zM612 28q-38 39 -33 107h107l-1 -11q0 -39 38 -39q16 0 26 10.5t16 35.5l7 32l2 18q0 18 -9.5 27t-25.5 9q-25 0 -36 -21h-99l62 253h251l-20 -98h-158
l-21 -84h4q26 33 75 33q46 0 70.5 -24t24.5 -68q0 -18 -5 -43l-9 -43q-14 -69 -52.5 -101t-104.5 -32q-71 0 -109 39z" />
    <glyph glyph-name="arrowleft" unicode="&#x2190;" horiz-adv-x="497" 
d="M198 356h263v-106h-262l106 -152h-133l-144 211l148 206h139z" />
    <glyph glyph-name="arrowup" unicode="&#x2191;" horiz-adv-x="498" 
d="M204 449l-135 -104v129l202 151l195 -144v-135l-134 102v-448h-128v449z" />
    <glyph glyph-name="arrowright" unicode="&#x2192;" horiz-adv-x="496" 
d="M305 257h-263v106h262l-106 152h133l144 -211l-148 -206h-139z" />
    <glyph glyph-name="arrowdown" unicode="&#x2193;" horiz-adv-x="499" 
d="M289 173l135 103v-129l-202 -151l-195 144v135l134 -102v448h128v-448z" />
    <glyph glyph-name="arrowboth" unicode="&#x2194;" horiz-adv-x="740" 
d="M171 515h133l-106 -152h350l-106 152h133l144 -211l-148 -206h-139l117 159h-352l117 -159h-139l-148 206z" />
    <glyph glyph-name="arrowupdn" unicode="&#x2195;" horiz-adv-x="549" 
d="M295 761l195 -144v-133l-136 104v-430l137 105v-127l-202 -151l-195 144v133l136 -104v430l-137 -105v127z" />
    <glyph glyph-name="uni2196" unicode="&#x2196;" horiz-adv-x="581" 
d="M432 78l-249 245l-1 -199l-105 107l6 269l248 6l94 -94l-166 -2l255 -250z" />
    <glyph glyph-name="uni2197" unicode="&#x2197;" horiz-adv-x="498" 
d="M266 411l-166 2l94 94l248 -6l6 -269l-105 -107l-1 199l-249 -245l-82 82z" />
    <glyph glyph-name="uni2198" unicode="&#x2198;" horiz-adv-x="580" 
d="M156 539l249 -245l1 199l105 -107l-6 -269l-248 -6l-94 94l166 2l-255 250z" />
    <glyph glyph-name="uni2199" unicode="&#x2199;" horiz-adv-x="499" 
d="M240 207l166 -2l-94 -94l-248 6l-6 269l105 107l1 -199l249 245l82 -82z" />
    <glyph glyph-name="uni2206" unicode="&#x2206;" horiz-adv-x="492" 
d="M-8 119l254 628h192l-12 -629l-24 -118h-434zM288 121l27 478h-5l-179 -478h157z" />
    <glyph glyph-name="product" unicode="&#x220f;" 
d="M137 747h381l-158 -747h-143l132 624h-95l-133 -624h-142z" />
    <glyph glyph-name="summation" unicode="&#x2211;" 
d="M-6 130l223 253l-116 246l25 118h403l-27 -121h-241l123 -254l-222 -242h235l-28 -130h-403z" />
    <glyph glyph-name="minus" unicode="&#x2212;" 
d="M66 402h377l-24 -112h-377z" />
    <glyph glyph-name="uni2219" unicode="&#x2219;" 
d="M150 212q-33 35 -33 86q0 55 34 91.5t86 36.5q48 0 81 -35t33 -87q0 -55 -34 -91t-86 -36q-48 0 -81 35z" />
    <glyph glyph-name="radical" unicode="&#x221a;" 
d="M85 291h-72l22 106h160q6 -230 6 -346h5q92 314 209 696h130l-302 -913h-138z" />
    <glyph glyph-name="infinity" unicode="&#x221e;" horiz-adv-x="701" 
d="M83.5 206.5q-40.5 41.5 -40.5 102.5q0 54 22.5 99.5t66 72.5t101.5 27q100 0 142 -80q51 80 148 80q72 0 113 -42t41 -103q0 -54 -22.5 -99t-66 -72t-101.5 -27q-104 0 -142 81q-28 -42 -63.5 -61.5t-84.5 -19.5q-73 0 -113.5 41.5zM170 278q16 -16 44 -16q27 0 49 18.5
t42 61.5q-21 67 -74 67q-37 0 -57 -26.5t-20 -60.5q0 -28 16 -44zM489 263q37 0 57 26.5t20 60.5q0 29 -16 44.5t-44 15.5q-27 0 -49 -18.5t-42 -61.5q21 -67 74 -67z" />
    <glyph glyph-name="integral" unicode="&#x222b;" horiz-adv-x="390" 
d="M-75 -164l26 118q23 -20 54 -20q44 0 57 59l126 596q18 83 62.5 125t121.5 42q49 0 91 -15l-26 -118q-23 20 -54 20q-45 0 -57 -59l-126 -596q-18 -83 -62.5 -125t-121.5 -42q-49 0 -91 15z" />
    <glyph glyph-name="approxequal" unicode="&#x2248;" 
d="M290 385.5q-23 6.5 -52 17.5q-14 5 -27.5 9.5t-22.5 4.5q-12 0 -18.5 -7t-10.5 -25h-95q15 68 43 102.5t83 34.5q25 0 47.5 -6t51.5 -18q14 -5 28 -9.5t23 -4.5q12 0 18.5 7t10.5 25h96q-15 -69 -43 -103t-83 -34q-26 0 -49 6.5zM255.5 211q-22.5 6 -51.5 18
q-14 5 -28 9.5t-23 4.5q-12 0 -18.5 -7.5t-10.5 -24.5h-96q15 70 43 104t83 34q26 0 49 -6.5t52 -17.5q33 -14 49 -14q12 0 18.5 7.5t10.5 24.5h96q-15 -69 -43 -103.5t-83 -34.5q-25 0 -47.5 6z" />
    <glyph glyph-name="notequal" unicode="&#x2260;" 
d="M90 496h174l61 111h109l-60 -111h87l-22 -100h-120l-42 -78h145l-22 -99h-177l-61 -113h-111l62 113h-84l22 99h116l43 78h-142z" />
    <glyph glyph-name="lessequal" unicode="&#x2264;" 
d="M64 365l23 111l380 112l-27 -123l-237 -51l214 -74l-26 -115zM30 204h357l-24 -109h-356z" />
    <glyph glyph-name="greaterequal" unicode="&#x2265;" 
d="M32 203h357l-24 -109h-356zM440 448l-23 -111l-380 -112l27 123l237 51l-214 74l26 115z" />
    <glyph glyph-name="lozenge" unicode="&#x25ca;" 
d="M29 352l211 310h125l90 -329l-220 -333h-125zM193 117l139 224l-47 214l-135 -212z" />
    <glyph glyph-name="uniF8FF" unicode="&#xf8ff;" horiz-adv-x="925" 
d="M674 429l20 -2q12 0 7 11q-1 2 -26 -2q-36 -6 -37 -2q0 5 13.5 18t38.5 23q-37 -7 -64 -5l30 16q6 1 -1 8q-1 1 -12.5 -4t-20.5 -9q-2 0 -5 -1q-5 0 -9.5 4t-4.5 7t31 36l8 9l-48 -31q-6 1 -10 5.5t-5 8.5l4 11l7 21q8 19 7 19q-2 1 -14 -9t-16 -16q-3 -4 -8 -4
q-4 0 -9 2.5t-7 5.5q-2 4 -2 6l3 17l-1 2q-4 0 -24 -15q-9 -4 -17 -4t-11.5 5t-4 10.5l-0.5 5.5q-3 -6 -15 -13q-5 3 -7.5 12t-4 17.5t-2.5 9.5q-1 3 -5 3q-2 -6 -2 -12l3 -31q0 -7 -14 -7q-12 0 -14 2q-2 1 -17 16q1 -10 -8.5 -23.5t-21.5 -21t-19 -1.5q-33 30 -33 24
q0 -3 23 -29q3 -4 3 -8q0 -8 -8 -14q-4 2 -9 2q-2 0 -2 -2t1.5 -5t-0.5 -4q-3 -4 -7 -11t-8 -10q-3 -3 -9 -3q-5 0 -12.5 2t-11.5 3q1 -2 7 -9t11 -11q2 -1 -21 6q-19 7 -25 7q-2 0 -3 -1.5t-1 -3.5q21 -8 33 -14t13 -8q4 -13 -16 -20t-53 -5q24 -4 48 -19q17 -10 17 -19
q0 -10 -22 -14l18 -14l-29 -5l4 -5q10 -1 19.5 -2.5t13.5 -2.5q1 0 1 -2q0 -5 -10 -15q23 -8 24 -10q1 -1 -12 -8t-28 -15q-22 -9 -22 -11v-3q0 -3 1.5 -4.5l2.5 -2.5l36 21q23 13 23 11q4 0 4 -1q0 -2 -8 -14.5t-3 -12.5q4 0 12.5 4.5t14.5 9.5q4 -1 8 -4.5t4 -8.5t-4 -17
t-9 -22q22 22 29 26.5t10 -1.5q5 -7 5 -14q4 -3 4 -9t-1 -10.5t1 -4.5q6 3 13 8.5t10 8.5h1q3 0 13 -8q7 -5 9 -36q19 36 36 36q9 0 16.5 -10t11.5 -25q4 13 8 23.5t3 5.5q-1 -7 5.5 -28t8.5 -21t3 2t1 4l-2 28q0 29 12 29q16 0 41 -38l-6 45q0 3 2 5t5 0l25 -26
q-4 13 -6.5 26.5t0.5 12.5q4 -2 15 -20q16 -24 19 -24q4 -1 6 5q1 1 -4.5 8.5t-12.5 16.5q-16 22 -18 27q0 3 -1 5q0 8 9 12q21 -14 23 -13q1 0 1 2q0 4 -9 26q2 5 6 6.5t7 0.5t16.5 -15t19.5 -22q2 -2 6 -2q5 0 8 3q0 4 -9 13.5t-18 18.5q-17 18 -16 19h3l19 -2
q-14 14 -19.5 21t-5 13l0.5 6q0 6 8.5 8t22.5 3t12 3q-1 2 -19 8q-26 6 -16 12q13 8 8 8q-12 11 -12 16t9.5 7t17.5 3h4zM908 413q7 -9 -10 -22t-31 -17q-8 -2 -19 -13q7 -7 35 -27q8 -5 14.5 -15t4.5 -12q-7 -10 -21 -15q-6 -10 -33 -16t-56 -7q26 -20 50 -50.5t20 -48.5
l-12 -6q-14 -7 -33 -7q-23 0 -48 8.5t-45 19t-28 14.5l-10 3q18 -46 31 -87t10 -47h-3q-18 0 -28 6q-27 14 -45.5 31t-32 32.5t-15.5 16.5q-6 3 -7.5 2t0.5 -4q6 -2 12.5 -27t6.5 -52q0 -18 -2 -27q-5 -29 -15 -51t-13 -19q-5 4 -70 86q-2 -21 -6 -35t-9.5 -26t-8.5 -21
q-3 -8 -7.5 -12.5t-9 -6l-7.5 -2.5q-2 0 -5 -6t-5 -11q-1 -4 -5 4q-5 7 -17 51.5t-22 88.5q-3 -11 -30.5 -50t-33.5 -43l-15 -10q-1 1 -2 3t0 6q2 17 4 44.5t2 53.5q0 9 -0.5 15t-2.5 3q-14 -21 -37 -40q-11 -9 -24 -20.5t-13 -8.5q0 2 -5 4.5t-5 6.5l-3 37q-2 7 -2 21
q0 15 3.5 29t8 24.5t3.5 9.5l-27 -20q-13 -9 -43.5 -22.5t-50.5 -14.5q-2 0 9 23q4 9 7 17t2 9l-19 1q0 17 15 41.5t33.5 48t16.5 22.5q-7 -2 -67 5.5t-69 13.5q-7 4 -7 6q-2 0 2 4q3 5 34 19q-54 37 -55 42q1 3 9.5 5.5t18.5 5.5l18 6t12 5q6 3 26 12q47 17 81 16
q-14 2 -32 6q-32 8 -54 29t-33 41.5t-7 20.5q8 0 41 7q-2 2 -18 28t-17 30q0 1 42 1q-4 17 -7 24q-1 6 105 -12q-16 28 -36 66.5t-20 40.5t14 1t31.5 -5t30.5 -11q29 -14 39 -23q-1 5 -1 16q0 19 5 44t11 44t7 18l45 -39q3 5 8 33l4 33q1 1 10.5 -6.5t24.5 -22.5
q49 -26 66 -99q6 40 25.5 62.5t45.5 39.5q14 9 17 13l15 11q1 0 3 -3t3 -6q5 -13 6 -24q6 -12 6 -38q0 -5 -3 -41q28 30 51 44.5t37 18t18 2.5q1 -1 -6 -71l41 26q12 9 19.5 14t12.5 6h4q1 0 1 -8q0 -14 -3 -27q-10 -66 -63 -119q15 7 26.5 9t17.5 2l39 6.5t37 10.5
q11 7 21.5 10t12.5 1v-1q-1 -5 -3 -11.5t-5 -12.5q-11 -36 -27.5 -57.5t-26.5 -28t-25 -13.5l-36 -11l32 2q41 1 72.5 -9t41 -17t37.5 -28l10 -7q0 -3 -12 -13z" />
    <glyph glyph-name="J.case" horiz-adv-x="325" 
d="M-42 2l28 131q27 -19 58 -19q28 0 43 13.5t22 48.5l123 571h149l-127 -582q-21 -96 -70.5 -137t-133.5 -41q-47 0 -92 15z" />
    <glyph glyph-name="Q.case" horiz-adv-x="523" 
d="M104 11.5q-43 22.5 -67 64.5q-21 36 -21 89q0 41 12 96l64 297q43 202 235 202q112 0 166 -72q34 -48 34 -116q0 -45 -13 -103l-41 -188q-14 -65 -30.5 -100t-46.5 -61v-3l82 4l-26 -121h-179q-30 -11 -69 -11q-57 0 -100 22.5zM301 187l74 347q5 22 5 36q0 31 -15 49
t-44 18q-60 0 -77 -78l-75 -343q-6 -27 -6 -39q0 -32 17 -50.5t46 -18.5q58 0 75 79z" />
    <glyph glyph-name="germandbls.case" horiz-adv-x="574" 
d="M233.5 31.5q-40.5 42.5 -40.5 110.5q0 28 2 49h125q-5 -22 -5 -40q0 -45 33 -45q15 0 23 11t8 31q0 18 -5 34t-20 39l-35 55q-23 36 -32 63t-9 59q0 56 34 108.5t125 122.5h-170l-135 -629h-149l160 747h487l-27 -125q-79 -62 -117.5 -97.5t-50 -56.5t-11.5 -44
q0 -16 6 -31.5t23 -42.5l23 -35q28 -43 39 -74.5t11 -66.5q0 -82 -43.5 -133.5t-130.5 -51.5q-78 0 -118.5 42.5z" />
    <glyph glyph-name="i.loclTRK" horiz-adv-x="231" 
d="M105 581h144l-123 -581h-144zM138 642q-22 19 -22 49q0 32 24 54.5t60 22.5q33 0 54 -19t21 -50q0 -33 -23 -54.5t-59 -21.5q-33 0 -55 19z" />
    <glyph glyph-name="l.ss01" horiz-adv-x="226" 
d="M138 747h144l-159 -747h-144z" />
    <glyph glyph-name="lacute.ss01" horiz-adv-x="226" 
d="M138 747h144l-159 -747h-144zM238 931h145l-118 -136h-116z" />
    <glyph glyph-name="lcaron.ss01" horiz-adv-x="226" 
d="M138 747h144l-159 -747h-144zM322 747h130l-63 -164h-103z" />
    <glyph glyph-name="uni013C.ss01" horiz-adv-x="226" 
d="M138 747h144l-159 -747h-144zM-20 -40h131l-72 -141h-103z" />
    <glyph glyph-name="lslash.ss01" horiz-adv-x="273" 
d="M41 468l59 27l54 252h144l-40 -189l60 29l-25 -119l-60 -29l-94 -439h-144l80 377l-59 -29z" />
    <glyph glyph-name="zero.tf" 
d="M37 60q-32 43 -32 111q0 39 8 75l68 319q20 95 76 145t144 50q105 0 157 -69q36 -46 36 -116q0 -31 -8 -69l-69 -325q-21 -98 -72.5 -146t-145.5 -48q-105 0 -162 73zM245.5 126.5q14.5 16.5 22.5 55.5l79 368q4 22 4 30q0 20 -8 33q-13 25 -46 25q-26 0 -42 -19t-25 -60
l-76 -352q-5 -27 -5 -40q0 -17 6 -29q15 -28 50 -28q26 0 40.5 16.5z" />
    <glyph glyph-name="one.tf" 
d="M20 122h119l100 464q-26 -18 -62 -31t-74 -20l27 127q44 10 87.5 32t78.5 53h126l-136 -625h108l-25 -122h-375z" />
    <glyph glyph-name="two.tf" 
d="M257 420q50 60 67.5 96.5t17.5 72.5q0 24 -11.5 37.5t-32.5 13.5q-34 0 -46.5 -26.5t-10.5 -89.5h-138q0 35 6 72q11 78 62.5 121t138.5 43t133 -44t46 -120q0 -63 -32 -123.5t-106 -146.5q-114 -133 -174 -198h218l-26 -128h-383l29 136q138 156 242 284z" />
    <glyph glyph-name="three.tf" 
d="M53 35.5q-52 48.5 -52 135.5q0 19 5 59h141q-7 -30 -7 -52q0 -35 15.5 -52.5t44.5 -17.5q27 0 42 16t22 54l8 41q5 24 5 46q0 23 -8 39q-10 19 -32 27.5t-63 8.5l20 109h36q48 0 70 22t31 61l5 23q5 23 5 35q0 20 -9 33q-13 20 -42 20q-34 0 -49 -25.5t-15 -75.5h-138
q5 101 58 159.5t155 58.5q98 0 145 -48q41 -42 41 -103q0 -20 -7 -57l-9 -43q-11 -52 -43.5 -78.5t-89.5 -33.5v-3q86 -28 86 -121q0 -23 -6 -52l-13 -62q-18 -87 -68 -129.5t-138 -42.5q-94 0 -146 48.5z" />
    <glyph glyph-name="four.tf" 
d="M11 261l234 486h149l-246 -491h100l52 230h139l-51 -230h54l-26 -120h-54l-30 -136h-141l31 136h-236z" />
    <glyph glyph-name="five.tf" 
d="M56 33.5q-49 46.5 -49 130.5q0 23 4 53h141q-8 -26 -8 -49q0 -29 14.5 -44t40.5 -15q25 0 40 17.5t22 56.5l24 121q4 19 4 36q0 21 -8 33q-12 17 -37 17t-43 -16t-27 -43h-120l107 416h334l-28 -133h-215l-40 -162h3q41 53 108 53q33 0 58.5 -12t40.5 -34q21 -30 21 -77
q0 -30 -9 -72l-29 -137q-20 -97 -70 -141.5t-139 -44.5q-91 0 -140 46.5z" />
    <glyph glyph-name="six.tf" 
d="M106 6q-44 19 -70 58q-27 40 -27 97q0 35 9 78l75 338q20 88 74.5 135.5t144.5 47.5q84 0 128.5 -41t44.5 -125q0 -19 -2 -37h-140q5 17 5 35q0 52 -44 52q-27 0 -42 -18t-24 -58l-32 -138h3q18 29 46.5 46t64.5 17q32 0 55 -10t40 -31q31 -39 31 -93q0 -21 -7 -58
l-28 -130q-20 -91 -69.5 -137.5t-141.5 -46.5q-50 0 -94 19zM264 168l29 132q3 15 3 27q0 22 -9 34q-12 18 -40 18q-50 0 -66 -72l-25 -111q-5 -25 -5 -38q0 -19 7 -29q14 -25 47 -25q45 0 59 64z" />
    <glyph glyph-name="seven.tf" 
d="M348 616h-260l27 131h409l-28 -130l-304 -617h-158z" />
    <glyph glyph-name="eight.tf" 
d="M22 71q-20 34 -20 82q0 29 8 67l12 56q12 55 39.5 85t75.5 40v2q-53 41 -53 109q0 21 6 48l7 32q17 81 69 124.5t134 43.5q104 0 151 -60q36 -46 36 -106q0 -25 -6 -57l-7 -33q-10 -47 -34.5 -76.5t-67.5 -43.5v-2q29 -19 42.5 -44.5t13.5 -61.5q0 -29 -7 -60l-10 -48
q-18 -85 -71.5 -133t-137.5 -48q-133 0 -180 84zM242.5 119q13.5 15 21.5 49l20 94q3 15 3 26q0 21 -10 35q-13 20 -43 20q-24 0 -40 -15.5t-23 -46.5l-20 -91q-4 -22 -4 -28q0 -17 7 -31q13 -27 50 -27q25 0 38.5 15zM308.5 452q13.5 15 19.5 47l14 69q3 14 3 23
q0 17 -8 31q-12 22 -39 22q-46 0 -59 -62l-13 -62q-4 -16 -4 -31q0 -20 10 -33q14 -19 40 -19q23 0 36.5 15z" />
    <glyph glyph-name="nine.tf" 
d="M60.5 31.5q-49.5 44.5 -49.5 128.5q0 14 2 34h139q-3 -15 -3 -32q0 -26 13.5 -40.5t36.5 -14.5q25 0 38.5 15.5t22.5 56.5l33 148h-3q-36 -61 -99 -61q-65 0 -102 40q-31 34 -31 88q0 30 7 62l25 121q18 86 71.5 134.5t140.5 48.5q52 0 93 -17.5t64 -51.5q27 -39 27 -101
q0 -44 -11 -92l-71 -326q-20 -93 -68.5 -139t-138.5 -46q-87 0 -136.5 44.5zM295.5 395q14.5 16 21.5 51l22 105q5 25 5 39q0 20 -7 30q-12 23 -42 23q-46 0 -60 -66l-25 -119q-4 -22 -4 -29q0 -15 8 -28q15 -22 44 -22q23 0 37.5 16z" />
    <glyph glyph-name="zero.dnom" horiz-adv-x="380" 
d="M41 26.5q-39 37.5 -39 101.5q0 20 5 47l28 131q32 151 168 151q71 0 108.5 -36t37.5 -101q0 -29 -7 -58l-27 -127q-16 -75 -56.5 -110.5t-108.5 -35.5q-70 0 -109 37.5zM184 98q11 12 16 38l33 156q3 15 3 26q0 42 -39 42q-36 0 -46 -50l-34 -162q-2 -7 -2 -21
q0 -41 39 -41q19 0 30 12z" />
    <glyph glyph-name="one.dnom" horiz-adv-x="336" 
d="M-4 92h91l51 237q-48 -28 -107 -39l20 97q78 21 133 63h94l-77 -358h86l-19 -92h-291z" />
    <glyph glyph-name="two.dnom" horiz-adv-x="344" 
d="M162 248q28 26 39 43.5t11 35.5q0 16 -9 26t-26 10q-45 0 -45 -66h-101q0 76 40.5 118.5t117.5 42.5q62 0 97.5 -31.5t35.5 -86.5q0 -42 -19.5 -77t-63.5 -74q-50 -44 -114 -92h152l-20 -97h-293l20 94q106 88 178 154z" />
    <glyph glyph-name="three.dnom" horiz-adv-x="344" 
d="M18.5 24q-37.5 35 -37.5 97q0 15 1 23h102q-1 -5 -1 -13q0 -46 41 -46q36 0 44 35l2 9l2 18q0 41 -52 41h-26l15 81h38q29 0 41.5 8.5t16.5 28.5l2 10q1 5 1 13q0 32 -34 32q-38 0 -42 -46h-103q4 67 44 104.5t110 37.5q63 0 101 -30.5t38 -81.5q0 -13 -3 -27l-2 -10
q-8 -39 -29.5 -58t-64.5 -22v-3q29 -5 45 -27.5t16 -54.5q0 -13 -3 -28l-3 -14q-11 -54 -50.5 -83t-101.5 -29q-70 0 -107.5 35z" />
    <glyph glyph-name="four.dnom" horiz-adv-x="347" 
d="M0 177l127 272h116l-139 -272h61l29 125h107l-28 -125h36l-19 -94h-37l-18 -83h-109l18 83h-163z" />
    <glyph glyph-name="five.dnom" horiz-adv-x="350" 
d="M24 28q-38 39 -33 107h107l-1 -11q0 -39 38 -39q16 0 26 10.5t16 35.5l7 32l2 18q0 18 -9.5 27t-25.5 9q-25 0 -36 -21h-99l62 253h251l-20 -98h-158l-21 -84h4q26 33 75 33q46 0 70.5 -24t24.5 -68q0 -18 -5 -43l-9 -43q-14 -69 -52.5 -101t-104.5 -32q-71 0 -109 39z
" />
    <glyph glyph-name="six.dnom" horiz-adv-x="372" 
d="M42.5 26q-39.5 37 -39.5 101q0 19 5 46l29 140q14 69 57.5 106.5t111.5 37.5q72 0 106.5 -35t29.5 -96h-104q2 18 -7.5 28t-29.5 10q-22 0 -34 -13t-18 -42l-13 -64h4q28 46 85 46q44 0 70 -27.5t26 -73.5q0 -10 -4 -34l-7 -33q-29 -134 -158 -134q-70 0 -109.5 37z
M196 121l7 34q1 4 1 13q0 18 -10 29t-28 11q-38 0 -47 -47l-4 -20q-2 -12 -2 -16q0 -20 10.5 -31.5t30.5 -11.5q34 0 42 39z" />
    <glyph glyph-name="seven.dnom" horiz-adv-x="312" 
d="M178 349h-155l21 100h275l-18 -95l-189 -354h-124z" />
    <glyph glyph-name="eight.dnom" horiz-adv-x="367" 
d="M32.5 23.5q-42.5 33.5 -42.5 87.5q0 13 3 26l2 10q7 34 32 56.5t63 29.5v4q-50 29 -50 82q0 13 3 26l2 9q10 48 51.5 76t100.5 28q66 0 106.5 -31.5t40.5 -82.5q0 -11 -3 -25l-3 -15q-12 -60 -87 -75v-4q26 -12 40.5 -35.5t14.5 -53.5q0 -13 -3 -27l-2 -9
q-24 -110 -157 -110q-69 0 -111.5 33.5zM189 122l3 14q2 12 2 16q0 19 -11 28.5t-27 9.5q-18 0 -29.5 -11t-15.5 -30l-2 -10q-2 -10 -2 -15q0 -19 10.5 -30t30.5 -11q32 0 41 39zM225 304l4 17q1 4 1 11q0 15 -9.5 24.5t-26.5 9.5q-32 0 -40 -36l-3 -14q-2 -10 -2 -13
q0 -16 9.5 -25t27.5 -9q31 0 39 35z" />
    <glyph glyph-name="nine.dnom" horiz-adv-x="368" 
d="M32.5 25.5q-37.5 36.5 -35.5 99.5h105q-2 -20 7.5 -31.5t30.5 -11.5t31.5 11.5t17.5 42.5l15 69h-4q-22 -40 -72 -40q-48 0 -77 27t-29 72q0 10 4 32l6 29q12 61 53 96.5t107 35.5q63 0 104.5 -33t41.5 -101q0 -23 -6 -52l-31 -145q-29 -137 -161 -137q-70 0 -107.5 36.5
zM221 290l3 15q2 12 2 17q0 19 -10 29.5t-29 10.5q-34 0 -42 -38l-6 -28q-1 -5 -1 -13q0 -18 10 -28.5t28 -10.5q35 0 45 46z" />
    <glyph glyph-name="zero.numr" horiz-adv-x="380" 
d="M104 324.5q-39 37.5 -39 101.5q0 20 5 47l28 131q32 151 168 151q71 0 108.5 -36t37.5 -101q0 -29 -7 -58l-27 -127q-16 -75 -56.5 -110.5t-108.5 -35.5q-70 0 -109 37.5zM247 396q11 12 16 38l33 156q3 15 3 26q0 42 -39 42q-36 0 -46 -50l-34 -162q-2 -7 -2 -21
q0 -41 39 -41q19 0 30 12z" />
    <glyph glyph-name="one.numr" horiz-adv-x="336" 
d="M59 389h91l51 237q-48 -28 -107 -39l20 97q78 21 133 63h94l-77 -358h86l-19 -92h-291z" />
    <glyph glyph-name="two.numr" horiz-adv-x="344" 
d="M225 545q28 26 39 43.5t11 35.5q0 16 -9 26t-26 10q-45 0 -45 -66h-101q0 76 40.5 118.5t117.5 42.5q62 0 97.5 -31.5t35.5 -86.5q0 -42 -19.5 -77t-63.5 -74q-50 -44 -114 -92h152l-20 -97h-293l20 94q106 88 178 154z" />
    <glyph glyph-name="three.numr" horiz-adv-x="344" 
d="M81.5 322q-37.5 35 -37.5 97q0 15 1 23h102q-1 -5 -1 -13q0 -46 41 -46q36 0 44 35l2 9l2 18q0 41 -52 41h-26l15 81h38q29 0 41.5 8.5t16.5 28.5l2 10q1 5 1 13q0 32 -34 32q-38 0 -42 -46h-103q4 67 44 104.5t110 37.5q63 0 101 -30.5t38 -81.5q0 -13 -3 -27l-2 -10
q-8 -39 -29.5 -58t-64.5 -22v-3q29 -5 45 -27.5t16 -54.5q0 -13 -3 -28l-3 -14q-11 -54 -50.5 -83t-101.5 -29q-70 0 -107.5 35z" />
    <glyph glyph-name="four.numr" horiz-adv-x="347" 
d="M63 475l127 272h116l-139 -272h61l29 125h107l-28 -125h36l-19 -94h-37l-18 -83h-109l18 83h-163z" />
    <glyph glyph-name="five.numr" horiz-adv-x="350" 
d="M87 326q-38 39 -33 107h107l-1 -11q0 -39 38 -39q16 0 26 10.5t16 35.5l7 32l2 18q0 18 -9.5 27t-25.5 9q-25 0 -36 -21h-99l62 253h251l-20 -98h-158l-21 -84h4q26 33 75 33q46 0 70.5 -24t24.5 -68q0 -18 -5 -43l-9 -43q-14 -69 -52.5 -101t-104.5 -32q-71 0 -109 39z
" />
    <glyph glyph-name="six.numr" horiz-adv-x="372" 
d="M105.5 324q-39.5 37 -39.5 101q0 19 5 46l29 140q14 69 57.5 106.5t111.5 37.5q72 0 106.5 -35t29.5 -96h-104q2 18 -7.5 28t-29.5 10q-22 0 -34 -13t-18 -42l-13 -64h4q28 46 85 46q44 0 70 -27.5t26 -73.5q0 -10 -4 -34l-7 -33q-29 -134 -158 -134q-70 0 -109.5 37z
M259 419l7 34q1 4 1 13q0 18 -10 29t-28 11q-38 0 -47 -47l-4 -20q-2 -12 -2 -16q0 -20 10.5 -31.5t30.5 -11.5q34 0 42 39z" />
    <glyph glyph-name="seven.numr" horiz-adv-x="312" 
d="M241 647h-155l21 100h275l-18 -95l-189 -354h-124z" />
    <glyph glyph-name="eight.numr" horiz-adv-x="367" 
d="M95.5 321.5q-42.5 33.5 -42.5 87.5q0 13 3 26l2 10q7 34 32 56.5t63 29.5v4q-50 29 -50 82q0 13 3 26l2 9q10 48 51.5 76t100.5 28q66 0 106.5 -31.5t40.5 -82.5q0 -11 -3 -25l-3 -15q-12 -60 -87 -75v-4q26 -12 40.5 -35.5t14.5 -53.5q0 -13 -3 -27l-2 -9
q-24 -110 -157 -110q-69 0 -111.5 33.5zM252 420l3 14q2 12 2 16q0 19 -11 28.5t-27 9.5q-18 0 -29.5 -11t-15.5 -30l-2 -10q-2 -10 -2 -15q0 -19 10.5 -30t30.5 -11q32 0 41 39zM288 602l4 17q1 4 1 11q0 15 -9.5 24.5t-26.5 9.5q-32 0 -40 -36l-3 -14q-2 -10 -2 -13
q0 -16 9.5 -25t27.5 -9q31 0 39 35z" />
    <glyph glyph-name="nine.numr" horiz-adv-x="368" 
d="M95.5 323.5q-37.5 36.5 -35.5 99.5h105q-2 -20 7.5 -31.5t30.5 -11.5t31.5 11.5t17.5 42.5l15 69h-4q-22 -40 -72 -40q-48 0 -77 27t-29 72q0 10 4 32l6 29q12 61 53 96.5t107 35.5q63 0 104.5 -33t41.5 -101q0 -23 -6 -52l-31 -145q-29 -137 -161 -137
q-70 0 -107.5 36.5zM284 588l3 15q2 12 2 17q0 19 -10 29.5t-29 10.5q-34 0 -42 -38l-6 -28q-1 -5 -1 -13q0 -18 10 -28.5t28 -10.5q35 0 45 46z" />
    <glyph glyph-name="exclamdown.case" horiz-adv-x="251" 
d="M118 526h125l-104 -526h-153zM144.5 609.5q-24.5 24.5 -24.5 60.5q0 38 25 63.5t63 25.5q36 0 61 -24.5t25 -60.5q0 -38 -25.5 -63.5t-63.5 -25.5q-36 0 -60.5 24.5z" />
    <glyph glyph-name="questiondown.case" horiz-adv-x="439" 
d="M45 36.5q-50 48.5 -50 128.5q0 62 26.5 106t94.5 96q38 29 57 49t28.5 45t14.5 66h129q-5 -60 -17.5 -98t-40.5 -72t-83 -79q-35 -29 -50 -53.5t-15 -54.5q0 -31 13.5 -48t40.5 -17q64 0 64 83q0 14 -2 36h140q2 -37 -3 -69q-12 -78 -64 -122.5t-144 -44.5
q-89 0 -139 48.5zM234.5 618.5q-23.5 23.5 -23.5 57.5q0 36 24 60t61 24q34 0 57.5 -23.5t23.5 -57.5q0 -36 -24.5 -60t-60.5 -24q-34 0 -57.5 23.5z" />
    <glyph glyph-name="hyphen.case" horiz-adv-x="255" 
d="M47 413h212l-24 -118h-212z" />
    <glyph glyph-name="endash.case" horiz-adv-x="416" 
d="M47 413h371l-20 -108h-372z" />
    <glyph glyph-name="emdash.case" horiz-adv-x="596" 
d="M47 411h551l-20 -105h-552z" />
    <glyph glyph-name="parenleft.case" horiz-adv-x="306" 
d="M49.5 44q-15.5 79 -15.5 154q0 356 241 631h143q-130 -160 -188 -312t-58 -311q0 -157 45 -312h-124q-28 71 -43.5 150z" />
    <glyph glyph-name="parenright.case" horiz-adv-x="305" 
d="M106 206q58 152 58 311q0 158 -45 312h124q28 -71 43.5 -150t15.5 -154q0 -356 -241 -631h-143q130 160 188 312z" />
    <glyph glyph-name="braceleft.case" horiz-adv-x="335" 
d="M57 -28q-13 29 -13 63q0 32 12 75l24 79q10 34 10 57q0 17 -6 30q-14 28 -62 33l22 103q51 1 74.5 21t29.5 74l15 142q7 66 29.5 105t65 57t112.5 18h65l-23 -106h-39q-39 0 -55 -17t-21 -61l-13 -133q-7 -73 -36.5 -109t-85.5 -47v-5q25 -12 42 -36q21 -31 21 -68
q0 -27 -12 -68l-28 -92q-6 -21 -6 -35q0 -13 5 -26q12 -26 53 -26h24l-23 -106h-10q-135 0 -171 78z" />
    <glyph glyph-name="braceright.case" horiz-adv-x="335" 
d="M-47 0h39q39 0 55 17t21 61l13 133q7 73 36.5 109t85.5 47v5q-25 12 -42 36q-21 31 -21 68q0 28 12 68l28 92q7 20 7 35q0 16 -6 26q-12 26 -53 26h-24l23 106h10q135 0 171 -78q13 -29 13 -63q0 -31 -12 -75l-24 -79q-10 -34 -10 -57q0 -16 6 -30q14 -28 62 -33
l-22 -103q-51 -1 -74.5 -21t-29.5 -74l-15 -142q-7 -66 -29.5 -105t-65 -57t-112.5 -18h-65z" />
    <glyph glyph-name="bracketleft.case" horiz-adv-x="287" 
d="M163 829h220l-23 -106h-85l-154 -723h86l-23 -106h-221z" />
    <glyph glyph-name="bracketright.case" horiz-adv-x="287" 
d="M-43 0h85l154 723h-86l23 106h221l-200 -935h-220z" />
    <glyph glyph-name="guillemotleft.case" horiz-adv-x="498" 
d="M31 324l138 201h134l-135 -206l50 -206h-133zM241 324l138 201h134l-135 -206l50 -206h-133z" />
    <glyph glyph-name="guillemotright.case" horiz-adv-x="498" 
d="M132 319l-50 206h133l54 -211l-138 -201h-134zM342 319l-50 206h133l54 -211l-138 -201h-134z" />
    <glyph glyph-name="guilsinglleft.case" horiz-adv-x="288" 
d="M31 324l138 201h134l-135 -206l50 -206h-133z" />
    <glyph glyph-name="guilsinglright.case" horiz-adv-x="288" 
d="M132 319l-50 206h133l54 -211l-138 -201h-134z" />
    <glyph glyph-name="at.case" horiz-adv-x="874" 
d="M223 -76q-93 51 -139.5 141.5t-46.5 206.5q0 148 59.5 270.5t165 194t237.5 71.5q111 0 194.5 -45.5t129 -127.5t45.5 -188q0 -105 -35 -188.5t-97.5 -130.5t-140.5 -47q-45 0 -76 17.5t-43 49.5h-3q-41 -67 -115 -67q-32 0 -58 14t-41 38q-16 26 -16 61q0 24 10 66
l51 204q33 134 138 134q38 0 63 -17.5t37 -46.5h3l14 55h126l-91 -352q-4 -16 -4 -28q0 -7 3 -15q9 -17 33 -17q22 0 44 13.5t39 38.5q26 38 41 94t15 122q0 82 -32 143t-92 94t-142 33q-103 0 -184 -59t-126 -160t-45 -224q0 -89 33 -158.5t102 -109.5t172 -40q42 0 76 6
l-20 -95l-58 -2q-133 0 -226 51zM443.5 194.5q13.5 12.5 20.5 36.5l49 189q6 24 6 33q0 41 -41 41q-38 0 -51 -48l-51 -198q-4 -15 -4 -27q0 -16 7 -24q12 -15 33 -15q18 0 31.5 12.5z" />
    <glyph glyph-name="bar.case" horiz-adv-x="226" 
d="M166 829h125l-201 -935h-125z" />
    <glyph glyph-name="brokenbar.case" horiz-adv-x="226" 
d="M61 343h125l-96 -449h-125zM166 829h125l-86 -397h-125z" />
    <glyph glyph-name="uni030C.alt" horiz-adv-x="0" 
d="M144 747h130l-63 -164h-103z" />
    <glyph glyph-name="uni0308.case" horiz-adv-x="0" 
d="M170 810.5q-21 17.5 -21 45.5q0 31 22.5 52.5t57.5 21.5q32 0 51.5 -17.5t19.5 -45.5q0 -32 -21.5 -53t-56.5 -21q-31 0 -52 17.5zM371 810.5q-21 17.5 -21 45.5q0 31 22.5 52.5t57.5 21.5q32 0 51.5 -17.5t19.5 -45.5q0 -32 -21.5 -53t-56.5 -21q-31 0 -52 17.5z" />
    <glyph glyph-name="uni0307.case" horiz-adv-x="0" 
d="M223 810.5q-21 17.5 -21 45.5q0 31 22.5 52.5t57.5 21.5q32 0 51.5 -17.5t19.5 -45.5q0 -32 -21.5 -53t-56.5 -21q-31 0 -52 17.5z" />
    <glyph glyph-name="gravecomb.case" horiz-adv-x="0" 
d="M159 931h135l44 -136h-107z" />
    <glyph glyph-name="acutecomb.case" horiz-adv-x="0" 
d="M258 931h145l-118 -136h-116z" />
    <glyph glyph-name="uni030B.case" horiz-adv-x="0" 
d="M252 931h136l-103 -136h-105zM418 931h136l-106 -136h-107z" />
    <glyph glyph-name="uni0302.case" horiz-adv-x="0" 
d="M287 931h125l65 -136h-108l-32 50h-3l-56 -50h-114z" />
    <glyph glyph-name="uni030C.case" horiz-adv-x="0" 
d="M184 931h108l32 -50h3l56 50h114l-123 -136h-125z" />
    <glyph glyph-name="uni0306.case" horiz-adv-x="0" 
d="M196.5 818.5q-38.5 29.5 -38.5 80.5q0 18 4 34h111q-4 -13 -4 -27q0 -31 33 -31q20 0 29.5 13.5t11.5 44.5h112q-12 -76 -48 -110t-108 -34q-64 0 -102.5 29.5z" />
    <glyph glyph-name="uni030A.case" horiz-adv-x="0" 
d="M204.5 783q-31.5 29 -31.5 71q0 44 31 73.5t79 29.5q49 0 79.5 -29.5t30.5 -73.5q0 -42 -30.5 -71t-79.5 -29q-47 0 -78.5 29zM305.5 832q8.5 9 8.5 22q0 16 -8.5 25t-22.5 9t-22.5 -9t-8.5 -25q0 -13 9 -22t22 -9q14 0 22.5 9z" />
    <glyph glyph-name="tildecomb.case" horiz-adv-x="0" 
d="M364.5 803.5q-14.5 4.5 -32.5 12.5q-24 12 -38 12q-11 0 -16.5 -5.5t-8.5 -19.5h-85q14 65 35.5 98.5t63.5 33.5q18 0 32.5 -4.5t34.5 -13.5q24 -11 35 -11t16.5 5.5t8.5 19.5h85q-14 -65 -35.5 -98.5t-63.5 -33.5q-17 0 -31.5 4.5z" />
    <glyph glyph-name="uni0304.case" horiz-adv-x="0" 
d="M217 916h261l-22 -102h-261z" />
    <glyph glyph-name="uni0328.case" horiz-adv-x="0" 
d="M-42 -99q0 30 22.5 52.5t72.5 44.5v2h82q-34 -20 -46.5 -33t-12.5 -26q0 -20 28 -20l13 1l-18 -90l-21 -1q-120 0 -120 70z" />
    <glyph glyph-name="uni0308.narrow" horiz-adv-x="0" 
d="M152 647q-20 18 -20 46q0 29 20.5 50t52.5 21q30 0 49 -18t19 -47q0 -30 -20 -50t-52 -20q-29 0 -49 18zM323 647q-20 18 -20 46q0 29 20.5 50t52.5 21q30 0 49 -18t19 -47q0 -30 -20 -50t-52 -20q-29 0 -49 18z" />
    <glyph glyph-name="gravecomb.narrow" horiz-adv-x="0" 
d="M87 771h132l16 -140h-104z" />
    <glyph glyph-name="acutecomb.narrow" horiz-adv-x="0" 
d="M189 771h139l-90 -141h-110z" />
    <glyph glyph-name="uni0302.narrow" horiz-adv-x="0" 
d="M263 773h133l39 -145h-100l-17 57h-4l-43 -57h-106z" />
    <glyph glyph-name="uni0306.narrow" horiz-adv-x="0" 
d="M191.5 655.5q-35.5 30.5 -35.5 83.5q0 19 4 35h108q-4 -24 -4 -31q0 -32 25 -32q16 0 23.5 15t9.5 48h109q-12 -79 -45.5 -114t-99.5 -35q-59 0 -94.5 30.5z" />
    <glyph glyph-name="uni0304.narrow" horiz-adv-x="0" 
d="M161 749h235l-22 -101h-235z" />
    </font>
</defs>
</svg>
